<?xml version="1.0" encoding="UTF-8" standalone="no"?>
<svg
   id="Layer_1"
   data-name="Layer 1"
   viewBox="0 0 595.28 462.26"
   version="1.1"
   sodipodi:docname="logo.svg"
   inkscape:version="1.2.2 (732a01da63, 2022-12-09)"
   inkscape:export-filename="logo.png"
   inkscape:export-xdpi="96"
   inkscape:export-ydpi="96"
   xmlns:inkscape="http://www.inkscape.org/namespaces/inkscape"
   xmlns:sodipodi="http://sodipodi.sourceforge.net/DTD/sodipodi-0.dtd"
   xmlns="http://www.w3.org/2000/svg"
   xmlns:svg="http://www.w3.org/2000/svg">
  <sodipodi:namedview
     id="namedview146"
     pagecolor="#ffffff"
     bordercolor="#000000"
     borderopacity="0.25"
     inkscape:showpageshadow="2"
     inkscape:pageopacity="0.0"
     inkscape:pagecheckerboard="0"
     inkscape:deskcolor="#d1d1d1"
     showgrid="false"
     inkscape:zoom="1.793363"
     inkscape:cx="297.76459"
     inkscape:cy="231.40881"
     inkscape:window-width="1920"
     inkscape:window-height="1009"
     inkscape:window-x="-8"
     inkscape:window-y="-8"
     inkscape:window-maximized="1"
     inkscape:current-layer="Layer_1" />
  <defs
     id="defs15">
    <style
       id="style2">.cls-1{fill:none;}.cls-2{clip-path:url(#clip-path);}.cls-3{clip-path:url(#clip-path-2);}.cls-4{fill:url(#linear-gradient);}.cls-5{fill:#292663;}</style>
    <clipPath
       id="clip-path">
      <rect
         class="cls-1"
         width="595.28"
         height="462.26"
         id="rect4" />
    </clipPath>
    <clipPath
       id="clip-path-2">
      <path
         class="cls-1"
         d="M195.48,310c-.58,1.32.85,3.21,3.19,4.23s4.7.77,5.27-.55-.85-3.22-3.19-4.24a7.18,7.18,0,0,0-2.79-.62,2.5,2.5,0,0,0-2.48,1.18m31.73-30.32,8.73,9.66c6.25,6.91,16.28-5.63,11.11-11.24l-9.38-10.18a4.91,4.91,0,0,0-3.71-1.67c-5.4,0-11.48,8.2-6.75,13.43m-43.46,23.24c6.74-6.65-10.72-17.24-16.32-37.65a46.77,46.77,0,0,1-1.33-18,49.45,49.45,0,0,0,17.65,55.66m-5.49-75.13a40.13,40.13,0,0,0-4.52,25.64q3.66,23,33.8,48.22c5.92,5,14.36-3.13,8.4-9.28q-14.82-15.27-22.67-28Q173.4,232,198.19,215.82a49.67,49.67,0,0,0-19.93,12m34.46-14.22q-29.44,10-7.24,40.16a135.45,135.45,0,0,0,10.89,12.81c6.36,6.7,16.12-4,10.52-10.49q-34-39.56-2-41a49.56,49.56,0,0,0-12-1.47h-.23"
         id="path7" />
    </clipPath>
    <linearGradient
       id="linear-gradient"
       x1="-6.56"
       y1="462.36"
       x2="-5.56"
       y2="462.36"
       gradientTransform="matrix(52.38,0,0,52.38,518.36,-23953.93)"
       gradientUnits="userSpaceOnUse">
      <stop
         offset="0"
         stop-color="#0588ca"
         id="stop10" />
      <stop
         offset="1"
         stop-color="#3cbcb8"
         id="stop12" />
    </linearGradient>
  </defs>
  <g
     class="cls-2"
     clip-path="url(#clip-path)"
     id="g143"
     transform="translate(-6.1337275,-27.88058)">
    <g
       class="cls-3"
       clip-path="url(#clip-path-2)"
       id="g19">
      <rect
         class="cls-4"
         x="140.91"
         y="197.73"
         width="129.69"
         height="133.33"
         transform="rotate(-27.88,205.70885,264.37387)"
         id="rect17"
         style="fill:url(#linear-gradient)" />
    </g>
    <g
       class="cls-2"
       clip-path="url(#clip-path)"
       id="g141">
      <polygon
         class="cls-5"
         points="271.65,213.61 272.6,213.61 297.75,264.36 322.74,213.61 323.68,213.61 332.56,275.47 326.44,275.47 320.41,231.19 298.53,275.47 296.98,275.47 274.84,230.84 268.81,275.47 262.86,275.47 "
         id="polygon21" />
      <path
         class="cls-5"
         d="m 366.69,213.61 27.74,61.86 h -6.37 L 378.7,255.18 H 353 l -9.28,20.29 h -6.62 l 28.07,-61.86 z m -0.69,13.17 -10.19,22.36 h 20.29 z"
         id="path23" />
      <path
         class="cls-5"
         d="m 397.21,263 5,-3 q 5.25,9.69 12.22,9.69 a 11.19,11.19 0 0 0 7.72,-2.87 9.23,9.23 0 0 0 3.2,-7.14 11,11 0 0 0 -2.71,-6.82 49.8,49.8 0 0 0 -9,-8.16 72.9,72.9 0 0 1 -8.45,-7.06 15.55,15.55 0 0 1 -3.2,-5 15,15 0 0 1 -1,-5.38 13.07,13.07 0 0 1 4.06,-9.72 14,14 0 0 1 10.22,-4 14.79,14.79 0 0 1 8.45,2.42 27.69,27.69 0 0 1 7,7.18 l -4.76,3.69 a 29.34,29.34 0 0 0 -4.76,-5.17 9.09,9.09 0 0 0 -6,-2.05 8.12,8.12 0 0 0 -5.82,2.13 7.13,7.13 0 0 0 -2.26,5.42 8.63,8.63 0 0 0 2,5.7 q 2,2.43 9.11,7.67 7.11,5.24 10.34,9.69 a 15.58,15.58 0 0 1 3.24,9.35 14.84,14.84 0 0 1 -5,11.12 16.24,16.24 0 0 1 -11.53,4.72 q -11.58,0 -18.06,-12.47"
         id="path25" />
      <rect
         class="cls-5"
         x="265.72"
         y="303.70999"
         width="1.12"
         height="1.11"
         id="rect27" />
      <rect
         class="cls-5"
         x="264.12"
         y="303.70999"
         width="1.12"
         height="1.11"
         id="rect29" />
      <rect
         class="cls-5"
         x="271.89999"
         y="313.13"
         width="1.12"
         height="1.11"
         id="rect31" />
      <rect
         class="cls-5"
         x="270.29999"
         y="313.13"
         width="1.12"
         height="1.11"
         id="rect33" />
      <rect
         class="cls-5"
         x="292.17999"
         y="313.13"
         width="1.12"
         height="1.11"
         id="rect35" />
      <path
         class="cls-5"
         d="m 293.1,309.54 a 1.3,1.3 0 0 1 -1.48,1.43 h -1.85 v -1 a 3.79,3.79 0 0 0 -1,-2.53 2.67,2.67 0 0 0 -1.83,-1 l -0.54,-0.06 1.44,-2.62 h -1.39 l -2,3.55 1,0.81 a 2.37,2.37 0 0 1 1,-0.31 2.17,2.17 0 0 1 2.08,2.38 V 311 h -15.71 l 0.13,-0.45 a 4.47,4.47 0 0 0 0.14,-1.15 v -2.69 l -1.08,0.65 v 2.21 a 1.31,1.31 0 0 1 -1.48,1.43 h -0.65 a 1.38,1.38 0 0 1 -1.45,-1.57 v -4.15 l -1.12,0.27 v 0.3 h -2.16 a 2.39,2.39 0 0 0 -1.75,0.63 1.9,1.9 0 0 0 -0.53,1.44 v 1.25 c 0,1.66 0.79,2.61 2.29,2.61 h 1 a 2.78,2.78 0 0 0 1.33,-0.29 l 0.26,-0.14 0.19,0.22 a 2.14,2.14 0 0 0 1.66,0.59 h 22 a 2.32,2.32 0 0 0 2.6,-2.65 v -2.8 l -1.08,0.65 z m -25.79,-0.18 c 0,0.84 -0.43,1.25 -1.21,1.25 h -1 c -0.76,0 -1.13,-0.47 -1.13,-1.26 v -1.15 a 1.1,1.1 0 0 1 1.22,-1.23 h 2.16 z"
         id="path37" />
      <rect
         class="cls-5"
         x="290.59"
         y="313.13"
         width="1.12"
         height="1.11"
         id="rect39" />
      <path
         class="cls-5"
         d="m 303.52,306.63 h -0.94 c -1.53,0 -2.31,1 -2.31,2.61 v 0.24 A 1.33,1.33 0 0 1 298.8,311 h -0.94 v -4.26 l -1.11,0.65 v 4.79 a 1.31,1.31 0 0 1 -1.46,1.45 h -0.09 l -0.25,1.24 h 0.32 a 2.28,2.28 0 0 0 2.58,-2.38 v -0.33 h 1.3 a 2.25,2.25 0 0 0 1.21,-0.25 l 0.25,-0.15 0.19,0.2 a 2.32,2.32 0 0 0 1.76,0.65 h 3.24 v -3.46 c 0,-1.67 -0.76,-2.49 -2.3,-2.49 m 1.21,4.79 h -2.21 a 1.06,1.06 0 0 1 -1.16,-1.15 v -0.06 c 0,-0.19 0,-0.61 0,-1.24 a 1.1,1.1 0 0 1 1.23,-1.17 h 1 a 1.18,1.18 0 0 1 0.93,0.44 1.49,1.49 0 0 1 0.2,0.88 z"
         id="path41" />
      <path
         class="cls-5"
         d="m 310.15,304.79 h -0.85 a 0.69,0.69 0 1 1 0,-1.37 0.8,0.8 0 0 1 0.44,0.15 l 0.26,-0.3 a 1.05,1.05 0 0 0 -0.77,-0.32 1.12,1.12 0 0 0 -1.11,1.13 1,1 0 0 0 0.14,0.57 1.47,1.47 0 0 0 0.06,0.14 h -0.57 v 0.58 h 2.4 z"
         id="path43" />
      <path
         class="cls-5"
         d="m 312.14,309.54 a 1.28,1.28 0 0 1 -1.21,1.42 h -0.33 l -1.1,-5.05 -1.07,0.7 0.94,4.33 h -1.71 l -0.27,1.16 h 3.34 c 1.65,0 2.47,-0.92 2.47,-2.76 v -5.28 l -1.06,0.65 z"
         id="path45" />
      <polygon
         class="cls-5"
         points="315.88,312.13 315.88,303.99 314.77,304.65 314.77,312.13 "
         id="polygon47" />
      <path
         class="cls-5"
         d="m 327.94,306 a 4.67,4.67 0 0 0 -1.35,0.17 2.29,2.29 0 0 0 -1.39,1.65 7.24,7.24 0 0 0 -0.13,1.54 7.76,7.76 0 0 0 0.23,1.64 h -3.67 a 1.33,1.33 0 0 1 -1.45,-1.48 c 0,-1.43 0.36,-1.8 1.35,-1.87 l 0.19,-1.12 h -0.27 c -1.59,0 -2.39,0.89 -2.39,2.68 a 3.61,3.61 0 0 0 0.59,2.23 2.41,2.41 0 0 0 2,0.72 h 8.9 v -3.46 c 0,-1.81 -0.88,-2.73 -2.59,-2.73 m 1.47,5 h -1.79 a 1.36,1.36 0 0 1 -1.43,-1.56 v -0.72 a 1.33,1.33 0 0 1 1.48,-1.48 h 0.27 a 1.33,1.33 0 0 1 1.47,1.49 z"
         id="path49" />
      <rect
         class="cls-5"
         x="327.54999"
         y="303.85999"
         width="1.12"
         height="1.11"
         id="rect51" />
      <path
         class="cls-5"
         d="m 333.1,312.26 a 1.32,1.32 0 0 1 -1.47,1.44 h -0.09 l -0.24,1.3 h 0.44 c 1.64,0 2.47,-0.92 2.47,-2.76 v -5.38 l -1.11,0.66 z"
         id="path53" />
      <path
         class="cls-5"
         d="m 375.73,309.54 a 1.32,1.32 0 0 1 -1.47,1.43 H 374 a 1.33,1.33 0 0 1 -1.46,-1.51 v -0.34 c 0,-1.65 -0.76,-2.48 -2.29,-2.48 h -0.94 c -1.53,0 -2.31,1 -2.31,2.6 v 0.24 a 1.32,1.32 0 0 1 -1.45,1.49 h -3.79 l 0.74,-0.62 a 4.69,4.69 0 0 0 1,-1.05 c 0.14,-0.2 0.22,-0.34 0.26,-0.4 a 0.87,0.87 0 0 0 0,-0.13 A 2.86,2.86 0 0 0 364,308 c 0,-0.86 -0.53,-1.46 -1.58,-1.8 a 5.84,5.84 0 0 0 -1.66,-0.23 6.19,6.19 0 0 0 -3.1,0.87 12.06,12.06 0 0 0 -0.27,1.52 26,26 0 0 1 2.09,2 l 0.52,0.59 h -21.67 a 1.32,1.32 0 0 1 -1.47,-1.43 v -4.9 l -1.08,-0.65 v 5.38 c 0,1.84 0.82,2.76 2.47,2.76 h 19.86 a 5.75,5.75 0 0 0 2.65,-0.62 l 0.17,0.12 a 3.68,3.68 0 0 0 2.1,0.5 h 2.89 a 2.41,2.41 0 0 0 1.21,-0.24 l 0.25,-0.16 0.19,0.21 a 2.31,2.31 0 0 0 1.76,0.64 h 3.23 v -0.75 l 0.47,0.16 0.45,0.08 c 0.14,0 0.36,0 0.6,0 h 0.39 c 1.55,-0.05 2.34,-1 2.34,-2.75 V 304 l -1.08,0.65 z m -14.9,1 -0.2,-0.28 a 9,9 0 0 0 -2,-2.19 l -0.4,-0.29 0.41,-0.29 a 3.81,3.81 0 0 1 2.17,-0.6 1.89,1.89 0 0 1 1.66,0.62 1.27,1.27 0 0 1 0.26,0.7 2.08,2.08 0 0 1 -0.87,1.66 7.3,7.3 0 0 1 -1,0.67 m 10.64,0.89 h -2.21 a 1.05,1.05 0 0 1 -1.16,-1.14 v -0.07 c 0,-0.19 0,-0.6 0,-1.25 a 1.09,1.09 0 0 1 1.24,-1.15 h 1 a 1.16,1.16 0 0 1 0.92,0.42 1.41,1.41 0 0 1 0.21,0.88 z"
         id="path55" />
      <polygon
         class="cls-5"
         points="379.49,312.13 379.49,303.99 378.38,304.65 378.38,312.13 "
         id="polygon57" />
      <rect
         class="cls-5"
         x="385.51999"
         y="303.70999"
         width="1.12"
         height="1.11"
         id="rect59" />
      <rect
         class="cls-5"
         x="383.92999"
         y="303.70999"
         width="1.12"
         height="1.11"
         id="rect61" />
      <path
         class="cls-5"
         d="m 412.27,309.48 a 1.32,1.32 0 0 1 -1.45,1.49 h -1.15 v -4.15 l -1.07,0.56 V 310 a 1,1 0 0 1 -1,1 H 406 v -4.15 l -1.08,0.56 V 311 h -15.24 c -0.93,0 -1.44,-0.58 -1.44,-1.57 v -4.15 l -1.12,0.27 v 0.3 H 385 a 2.36,2.36 0 0 0 -1.75,0.63 1.86,1.86 0 0 0 -0.53,1.44 v 1.25 c 0,1.66 0.78,2.61 2.29,2.61 h 1 a 2.72,2.72 0 0 0 1.32,-0.29 l 0.26,-0.14 0.2,0.22 a 2.11,2.11 0 0 0 1.66,0.59 h 21.51 c 1.66,0 2.5,-0.92 2.5,-2.76 v -2.55 l -1.09,0.56 z m -25.15,-0.12 c 0,0.84 -0.44,1.25 -1.21,1.25 h -1 c -0.76,0 -1.14,-0.47 -1.14,-1.26 V 308.2 A 1.1,1.1 0 0 1 385,307 h 2.16 z"
         id="path63" />
      <path
         class="cls-5"
         d="m 415.93,312.26 a 1.32,1.32 0 0 1 -1.47,1.44 h -0.09 l -0.24,1.25 h 0.43 c 1.65,0 2.47,-0.92 2.47,-2.76 v -5.38 l -1.1,0.66 z"
         id="path65" />
      <path
         class="cls-5"
         d="m 429.47,306.63 h -0.94 c -1.53,0 -2.32,1 -2.32,2.61 v 0.24 a 1.33,1.33 0 0 1 -1.47,1.49 h -1 v -2 a 3.36,3.36 0 0 0 -1.53,-2.8 3.07,3.07 0 0 0 -1.67,-0.45 3.34,3.34 0 0 0 -1.42,0.36 l 0.46,1.1 a 2.5,2.5 0 0 1 1,-0.24 2.18,2.18 0 0 1 2.06,2.2 V 311 h -3.75 l -0.28,1.16 h 6.52 a 2.3,2.3 0 0 0 1.21,-0.25 l 0.24,-0.15 0.19,0.2 a 2.34,2.34 0 0 0 1.77,0.65 h 3.23 v -3.46 c 0,-1.67 -0.76,-2.49 -2.29,-2.49 m 1.21,4.79 h -2.22 a 1.06,1.06 0 0 1 -1.15,-1.15 v -0.06 c 0,-0.19 0,-0.61 0,-1.24 a 1.1,1.1 0 0 1 1.24,-1.17 h 1 a 1.17,1.17 0 0 1 0.92,0.44 1.48,1.48 0 0 1 0.21,0.88 z"
         id="path67" />
      <path
         class="cls-5"
         d="m 267.21,288.07 h 1.1 l 4.19,9.87 h -1.36 l -1,-2.43 h -4.94 l -1,2.43 h -1.32 z m 0.53,1.51 v 0 l -2,4.85 h 4 z"
         id="path69" />
      <rect
         class="cls-5"
         x="273.70999"
         y="287.39999"
         width="1.09"
         height="10.53"
         id="rect71" />
      <polygon
         class="cls-5"
         points="282.77,288.07 286.11,295.81 286.14,295.81 289.51,288.07 291.21,288.07 291.21,297.94 290.04,297.94 290.04,289.66 290.01,289.66 286.47,297.94 285.76,297.94 282.23,289.66 282.2,289.66 282.2,297.94 281.03,297.94 281.03,288.07 "
         id="polygon73" />
      <path
         class="cls-5"
         d="m 293.38,292.25 a 3.24,3.24 0 0 1 1.19,-0.76 4.26,4.26 0 0 1 1.41,-0.24 2.75,2.75 0 0 1 2.08,0.68 2.94,2.94 0 0 1 0.64,2.08 v 2.8 c 0,0.18 0,0.38 0,0.58 0,0.2 0,0.38 0.07,0.55 h -1 a 2,2 0 0 1 -0.06,-0.5 c 0,-0.18 0,-0.34 0,-0.48 v 0 a 2.42,2.42 0 0 1 -0.86,0.82 2.38,2.38 0 0 1 -1.29,0.32 3.61,3.61 0 0 1 -0.94,-0.12 2.34,2.34 0 0 1 -0.76,-0.37 1.78,1.78 0 0 1 -0.72,-1.44 1.82,1.82 0 0 1 0.42,-1.27 2.48,2.48 0 0 1 1,-0.68 5.15,5.15 0 0 1 1.33,-0.28 q 0.72,-0.06 1.32,-0.06 h 0.42 v -0.19 a 1.3,1.3 0 0 0 -0.43,-1.07 1.73,1.73 0 0 0 -1.19,-0.37 3.12,3.12 0 0 0 -1,0.18 2.37,2.37 0 0 0 -0.89,0.53 z m 3.15,2.55 a 3.82,3.82 0 0 0 -1.66,0.3 1,1 0 0 0 -0.61,1 1,1 0 0 0 0.41,0.87 1.94,1.94 0 0 0 1,0.25 1.91,1.91 0 0 0 0.82,-0.16 1.63,1.63 0 0 0 0.6,-0.42 2.1,2.1 0 0 0 0.36,-0.62 2.69,2.69 0 0 0 0.14,-0.76 v -0.42 z"
         id="path75" />
      <path
         class="cls-5"
         d="m 300.61,292.25 a 3.32,3.32 0 0 1 1.19,-0.76 4.26,4.26 0 0 1 1.41,-0.24 2.75,2.75 0 0 1 2.08,0.68 3,3 0 0 1 0.65,2.08 v 2.8 c 0,0.18 0,0.38 0,0.58 0,0.2 0.05,0.38 0.07,0.55 h -1 a 2,2 0 0 1 -0.06,-0.5 c 0,-0.18 0,-0.34 0,-0.48 v 0 a 2.42,2.42 0 0 1 -0.86,0.82 2.36,2.36 0 0 1 -1.28,0.32 3.64,3.64 0 0 1 -0.95,-0.12 2.34,2.34 0 0 1 -0.76,-0.37 1.78,1.78 0 0 1 -0.72,-1.44 1.82,1.82 0 0 1 0.42,-1.27 2.48,2.48 0 0 1 1,-0.68 5.15,5.15 0 0 1 1.33,-0.28 q 0.72,-0.06 1.32,-0.06 h 0.42 v -0.19 a 1.3,1.3 0 0 0 -0.43,-1.07 1.73,1.73 0 0 0 -1.19,-0.37 3,3 0 0 0 -1,0.18 2.41,2.41 0 0 0 -0.9,0.53 z m 3.15,2.55 a 3.85,3.85 0 0 0 -1.66,0.3 1,1 0 0 0 -0.61,1 1,1 0 0 0 0.41,0.87 1.94,1.94 0 0 0 1,0.25 2,2 0 0 0 0.83,-0.16 1.67,1.67 0 0 0 0.59,-0.42 1.74,1.74 0 0 0 0.36,-0.62 2.69,2.69 0 0 0 0.14,-0.76 v -0.42 z"
         id="path77" />
      <path
         class="cls-5"
         d="m 307.93,293 c 0,-0.29 0,-0.57 0,-0.83 0,-0.26 0,-0.5 0,-0.71 h 1 c 0,0.17 0,0.35 0,0.53 0,0.18 0,0.35 0,0.54 v 0 a 1.86,1.86 0 0 1 0.31,-0.46 2.68,2.68 0 0 1 0.48,-0.4 3,3 0 0 1 0.63,-0.28 2.57,2.57 0 0 1 0.75,-0.1 h 0.22 a 1,1 0 0 1 0.23,0.06 l -0.07,1.1 a 1.91,1.91 0 0 0 -0.59,-0.08 1.64,1.64 0 0 0 -1.45,0.64 3,3 0 0 0 -0.46,1.78 v 3.18 h -1.08 z"
         id="path79" />
      <path
         class="cls-5"
         d="m 318.4,296.75 a 3.27,3.27 0 0 1 -1.28,1.05 4,4 0 0 1 -1.61,0.3 3.4,3.4 0 0 1 -1.38,-0.27 3,3 0 0 1 -1,-0.73 3.42,3.42 0 0 1 -0.66,-1.09 3.87,3.87 0 0 1 -0.23,-1.33 3.7,3.7 0 0 1 0.26,-1.39 3.16,3.16 0 0 1 0.69,-1.09 3.21,3.21 0 0 1 1.06,-0.7 3.44,3.44 0 0 1 1.34,-0.25 3.39,3.39 0 0 1 1.25,0.23 2.68,2.68 0 0 1 1,0.67 2.94,2.94 0 0 1 0.64,1.07 4.27,4.27 0 0 1 0.22,1.44 V 295 h -5.27 a 2.21,2.21 0 0 0 0.21,0.8 2.08,2.08 0 0 0 0.45,0.67 2,2 0 0 0 1.48,0.62 2.52,2.52 0 0 0 1.19,-0.25 2.66,2.66 0 0 0 0.88,-0.74 z m -0.93,-2.66 a 1.9,1.9 0 0 0 -0.54,-1.34 2,2 0 0 0 -1.42,-0.5 2.13,2.13 0 0 0 -1.47,0.5 2.16,2.16 0 0 0 -0.67,1.34 z"
         id="path81" />
      <path
         class="cls-5"
         d="m 320.88,292.34 h -1.42 v -0.92 h 1.42 V 290 a 5.29,5.29 0 0 1 0.11,-1.09 2.42,2.42 0 0 1 0.39,-0.86 1.76,1.76 0 0 1 0.72,-0.56 2.7,2.7 0 0 1 1.1,-0.2 2.32,2.32 0 0 1 0.44,0 1.5,1.5 0 0 1 0.39,0.12 l -0.15,1 a 2.29,2.29 0 0 0 -0.74,-0.14 1.18,1.18 0 0 0 -0.65,0.15 0.88,0.88 0 0 0 -0.36,0.4 1.62,1.62 0 0 0 -0.14,0.62 c 0,0.24 0,0.5 0,0.78 v 1.23 h 1.59 v 0.92 H 322 v 5.6 h -1.09 z"
         id="path83" />
      <path
         class="cls-5"
         d="m 332,288.07 h 1.1 l 4.19,9.87 h -1.37 l -1,-2.43 H 330 l -1,2.43 h -1.32 z m 0.53,1.51 v 0 l -2.05,4.85 h 4 z"
         id="path85" />
      <path
         class="cls-5"
         d="m 338.39,293 c 0,-0.29 0,-0.57 0,-0.83 0,-0.26 0,-0.5 0,-0.71 h 1 c 0,0.17 0,0.35 0,0.53 0,0.18 0,0.35 0,0.54 v 0 a 1.62,1.62 0 0 1 0.31,-0.46 2.13,2.13 0 0 1 0.48,-0.4 2.79,2.79 0 0 1 0.63,-0.28 2.57,2.57 0 0 1 0.75,-0.1 2.48,2.48 0 0 1 0.88,0.13 2.41,2.41 0 0 1 0.6,0.32 1.52,1.52 0 0 1 0.36,0.41 c 0.09,0.14 0.16,0.27 0.22,0.38 a 3,3 0 0 1 0.84,-0.91 2.07,2.07 0 0 1 1.22,-0.33 3,3 0 0 1 1.17,0.19 1.79,1.79 0 0 1 0.77,0.54 2.35,2.35 0 0 1 0.42,0.87 4.84,4.84 0 0 1 0.12,1.13 v 4 h -1.08 V 294 a 3.51,3.51 0 0 0 -0.07,-0.66 1.48,1.48 0 0 0 -0.26,-0.57 1.26,1.26 0 0 0 -0.48,-0.4 1.67,1.67 0 0 0 -0.78,-0.16 1.63,1.63 0 0 0 -0.66,0.14 1.87,1.87 0 0 0 -0.53,0.39 1.78,1.78 0 0 0 -0.37,0.61 2.47,2.47 0 0 0 -0.13,0.79 v 3.76 h -1.09 v -3.7 a 2.9,2.9 0 0 0 -0.29,-1.53 1,1 0 0 0 -1,-0.46 2.11,2.11 0 0 0 -0.91,0.18 1.61,1.61 0 0 0 -0.63,0.52 2.39,2.39 0 0 0 -0.36,0.79 4.08,4.08 0 0 0 -0.12,1 v 3.18 h -1.09 z"
         id="path87" />
      <path
         class="cls-5"
         d="m 356.09,296.75 a 3.35,3.35 0 0 1 -1.28,1.05 4.11,4.11 0 0 1 -1.62,0.3 3.4,3.4 0 0 1 -1.38,-0.27 3.1,3.1 0 0 1 -1,-0.73 3.23,3.23 0 0 1 -0.65,-1.09 3.87,3.87 0 0 1 -0.23,-1.33 3.7,3.7 0 0 1 0.25,-1.39 3.34,3.34 0 0 1 0.7,-1.09 3.17,3.17 0 0 1 1.05,-0.7 3.64,3.64 0 0 1 2.6,0 2.76,2.76 0 0 1 1,0.67 3.06,3.06 0 0 1 0.63,1.07 4.27,4.27 0 0 1 0.22,1.44 V 295 h -5.26 a 2.19,2.19 0 0 0 0.2,0.8 2.46,2.46 0 0 0 0.45,0.67 2.15,2.15 0 0 0 0.66,0.45 2,2 0 0 0 0.82,0.17 2.6,2.6 0 0 0 1.2,-0.25 2.76,2.76 0 0 0 0.88,-0.74 z m -0.94,-2.66 a 1.86,1.86 0 0 0 -0.54,-1.34 2,2 0 0 0 -1.42,-0.5 2,2 0 0 0 -2.13,1.84 z"
         id="path89" />
      <path
         class="cls-5"
         d="m 358,293 c 0,-0.29 0,-0.57 0,-0.83 0,-0.26 0,-0.5 0,-0.71 h 1 c 0,0.17 0,0.35 0,0.53 0,0.18 0,0.35 0,0.54 v 0 a 1.86,1.86 0 0 1 0.31,-0.46 2.44,2.44 0 0 1 0.49,-0.4 2.71,2.71 0 0 1 0.62,-0.28 2.57,2.57 0 0 1 0.75,-0.1 h 0.23 a 0.9,0.9 0 0 1 0.22,0.06 l -0.07,1.1 a 1.89,1.89 0 0 0 -0.58,-0.08 1.66,1.66 0 0 0 -1.46,0.64 3.11,3.11 0 0 0 -0.45,1.78 v 3.18 H 358 Z"
         id="path91" />
      <path
         class="cls-5"
         d="m 362.76,288.87 a 0.79,0.79 0 0 1 0.23,-0.56 0.74,0.74 0 0 1 0.56,-0.24 0.76,0.76 0 0 1 0.57,0.24 0.79,0.79 0 0 1 0.23,0.56 0.81,0.81 0 0 1 -0.22,0.57 0.8,0.8 0 0 1 -1.37,-0.57 m 0.25,2.55 h 1.09 v 6.52 H 363 Z"
         id="path93" />
      <path
         class="cls-5"
         d="m 370.9,293.05 a 2.35,2.35 0 0 0 -0.76,-0.61 2.15,2.15 0 0 0 -0.89,-0.19 2.42,2.42 0 0 0 -1,0.19 1.91,1.91 0 0 0 -0.69,0.52 2.33,2.33 0 0 0 -0.41,0.78 3.14,3.14 0 0 0 -0.14,0.94 2.65,2.65 0 0 0 0.16,0.94 2.56,2.56 0 0 0 0.45,0.77 2,2 0 0 0 0.69,0.52 2,2 0 0 0 0.9,0.19 1.92,1.92 0 0 0 1.66,-0.81 l 0.81,0.77 a 2.8,2.8 0 0 1 -1.12,0.79 3.56,3.56 0 0 1 -1.35,0.25 3.64,3.64 0 0 1 -1.38,-0.25 2.79,2.79 0 0 1 -1.06,-0.71 3.28,3.28 0 0 1 -0.69,-1.08 4.06,4.06 0 0 1 0,-2.75 3.33,3.33 0 0 1 0.69,-1.08 3.16,3.16 0 0 1 1.07,-0.72 3.56,3.56 0 0 1 1.37,-0.26 3.7,3.7 0 0 1 1.37,0.25 3.06,3.06 0 0 1 1.14,0.78 z"
         id="path95" />
      <path
         class="cls-5"
         d="m 372.89,292.25 a 3.16,3.16 0 0 1 1.19,-0.76 4.25,4.25 0 0 1 1.4,-0.24 2.79,2.79 0 0 1 2.09,0.68 2.94,2.94 0 0 1 0.64,2.08 v 2.8 c 0,0.18 0,0.38 0,0.58 0,0.2 0,0.38 0.07,0.55 h -1.05 a 2.54,2.54 0 0 1 -0.06,-0.5 c 0,-0.18 0,-0.34 0,-0.48 v 0 a 2.5,2.5 0 0 1 -0.86,0.82 2.42,2.42 0 0 1 -1.29,0.32 3.51,3.51 0 0 1 -0.94,-0.12 2.39,2.39 0 0 1 -0.77,-0.37 1.74,1.74 0 0 1 -0.71,-1.44 1.82,1.82 0 0 1 0.41,-1.27 2.55,2.55 0 0 1 1,-0.68 5.14,5.14 0 0 1 1.34,-0.28 q 0.72,-0.06 1.32,-0.06 h 0.41 v -0.19 a 1.32,1.32 0 0 0 -0.42,-1.07 1.75,1.75 0 0 0 -1.19,-0.37 3.08,3.08 0 0 0 -1,0.18 2.41,2.41 0 0 0 -0.9,0.53 z m 3.11,2.55 a 3.82,3.82 0 0 0 -1.66,0.3 1,1 0 0 0 -0.61,1 0.93,0.93 0 0 0 0.41,0.87 1.88,1.88 0 0 0 1,0.25 2,2 0 0 0 0.86,-0.22 1.59,1.59 0 0 0 0.59,-0.42 1.74,1.74 0 0 0 0.41,-0.58 2.38,2.38 0 0 0 0.14,-0.76 v -0.42 z"
         id="path97" />
      <path
         class="cls-5"
         d="m 380.2,293 c 0,-0.29 0,-0.57 0,-0.83 0,-0.26 0,-0.5 0,-0.71 h 1 c 0,0.17 0,0.35 0,0.53 0,0.18 0,0.35 0,0.54 v 0 a 1.91,1.91 0 0 1 0.32,-0.46 2.13,2.13 0 0 1 0.48,-0.4 2.71,2.71 0 0 1 0.62,-0.28 2.68,2.68 0 0 1 0.76,-0.1 3,3 0 0 1 1.1,0.19 2.34,2.34 0 0 1 0.78,0.55 2.26,2.26 0 0 1 0.45,0.84 3.71,3.71 0 0 1 0.15,1.08 v 4 H 384.8 V 294 a 2.06,2.06 0 0 0 -0.36,-1.29 1.32,1.32 0 0 0 -1.13,-0.48 2.11,2.11 0 0 0 -0.91,0.18 1.61,1.61 0 0 0 -0.63,0.52 2.39,2.39 0 0 0 -0.36,0.79 4.08,4.08 0 0 0 -0.12,1 v 3.18 h -1.09 z"
         id="path99" />
      <path
         class="cls-5"
         d="m 396.7,289.82 a 1.73,1.73 0 0 0 -0.78,-0.69 2.43,2.43 0 0 0 -1,-0.22 2.86,2.86 0 0 0 -0.77,0.1 2.13,2.13 0 0 0 -0.67,0.29 1.42,1.42 0 0 0 -0.48,0.52 1.49,1.49 0 0 0 -0.18,0.75 1.55,1.55 0 0 0 0.1,0.59 1.25,1.25 0 0 0 0.34,0.47 2.52,2.52 0 0 0 0.64,0.39 9,9 0 0 0 1,0.36 q 0.57,0.18 1.11,0.39 a 4,4 0 0 1 0.95,0.53 2.32,2.32 0 0 1 0.65,0.8 3,3 0 0 1 -0.05,2.49 2.55,2.55 0 0 1 -0.77,0.89 3.17,3.17 0 0 1 -1.11,0.53 4.67,4.67 0 0 1 -1.29,0.18 5.12,5.12 0 0 1 -0.87,-0.08 4,4 0 0 1 -0.83,-0.24 3.16,3.16 0 0 1 -0.74,-0.41 2.62,2.62 0 0 1 -0.6,-0.64 l 1,-0.82 a 2.07,2.07 0 0 0 0.89,0.82 2.7,2.7 0 0 0 1.22,0.28 2.78,2.78 0 0 0 0.75,-0.11 2,2 0 0 0 0.69,-0.33 1.72,1.72 0 0 0 0.51,-0.53 1.41,1.41 0 0 0 0.19,-0.74 1.61,1.61 0 0 0 -0.15,-0.75 1.32,1.32 0 0 0 -0.48,-0.49 3.51,3.51 0 0 0 -0.8,-0.38 l -1.15,-0.39 a 7.84,7.84 0 0 1 -1,-0.38 2.92,2.92 0 0 1 -0.77,-0.53 2.34,2.34 0 0 1 -0.52,-0.75 2.62,2.62 0 0 1 -0.19,-1.05 2.55,2.55 0 0 1 0.28,-1.24 2.7,2.7 0 0 1 0.75,-0.89 3.65,3.65 0 0 1 1.08,-0.54 4.24,4.24 0 0 1 1.25,-0.18 4.29,4.29 0 0 1 1.52,0.26 3,3 0 0 1 1.24,0.9 z"
         id="path101" />
      <path
         class="cls-5"
         d="m 404.2,293.05 a 2.22,2.22 0 0 0 -0.75,-0.61 2.15,2.15 0 0 0 -0.89,-0.19 2.42,2.42 0 0 0 -1,0.19 1.91,1.91 0 0 0 -0.69,0.52 2.33,2.33 0 0 0 -0.41,0.78 3.14,3.14 0 0 0 -0.14,0.94 2.65,2.65 0 0 0 0.16,0.94 2.56,2.56 0 0 0 0.45,0.77 2,2 0 0 0 0.68,0.52 2.09,2.09 0 0 0 0.91,0.19 1.92,1.92 0 0 0 1.66,-0.81 l 0.81,0.77 a 2.8,2.8 0 0 1 -1.12,0.79 3.6,3.6 0 0 1 -1.35,0.25 3.64,3.64 0 0 1 -1.38,-0.25 2.79,2.79 0 0 1 -1.06,-0.71 3.28,3.28 0 0 1 -0.69,-1.08 4.06,4.06 0 0 1 0,-2.75 3.33,3.33 0 0 1 0.69,-1.08 3.16,3.16 0 0 1 1.07,-0.72 3.56,3.56 0 0 1 1.37,-0.26 3.7,3.7 0 0 1 1.37,0.25 3.14,3.14 0 0 1 1.14,0.78 z"
         id="path103" />
      <path
         class="cls-5"
         d="m 406.28,287.4 h 1.09 v 4.92 0 a 1.66,1.66 0 0 1 0.3,-0.38 2.1,2.1 0 0 1 0.47,-0.34 2.7,2.7 0 0 1 0.6,-0.25 2.39,2.39 0 0 1 0.71,-0.1 2.86,2.86 0 0 1 1.11,0.2 2.18,2.18 0 0 1 0.78,0.54 2.26,2.26 0 0 1 0.45,0.84 3.71,3.71 0 0 1 0.14,1.08 v 4 h -1.08 V 294 a 2.06,2.06 0 0 0 -0.36,-1.29 1.34,1.34 0 0 0 -1.13,-0.48 2.16,2.16 0 0 0 -0.92,0.18 1.75,1.75 0 0 0 -0.62,0.52 2.2,2.2 0 0 0 -0.36,0.79 4.08,4.08 0 0 0 -0.12,1 v 3.18 h -1.09 z"
         id="path105" />
      <path
         class="cls-5"
         d="m 413.65,294.68 a 3.71,3.71 0 0 1 0.26,-1.4 3.49,3.49 0 0 1 0.73,-1.08 3.29,3.29 0 0 1 1.1,-0.7 3.73,3.73 0 0 1 1.39,-0.25 3.78,3.78 0 0 1 1.4,0.25 3.39,3.39 0 0 1 1.1,0.7 3.64,3.64 0 0 1 0.72,1.08 3.53,3.53 0 0 1 0.27,1.4 3.48,3.48 0 0 1 -0.27,1.39 3.4,3.4 0 0 1 -0.72,1.08 3.23,3.23 0 0 1 -1.1,0.7 3.78,3.78 0 0 1 -1.4,0.25 3.73,3.73 0 0 1 -1.39,-0.25 3.14,3.14 0 0 1 -1.1,-0.7 3.27,3.27 0 0 1 -0.73,-1.08 3.66,3.66 0 0 1 -0.26,-1.39 m 1.17,0 a 2.67,2.67 0 0 0 0.16,0.95 2.25,2.25 0 0 0 0.47,0.77 2.09,2.09 0 0 0 0.73,0.51 2.24,2.24 0 0 0 0.95,0.19 2.29,2.29 0 0 0 1,-0.19 2.19,2.19 0 0 0 0.73,-0.51 2.42,2.42 0 0 0 0.47,-0.77 2.91,2.91 0 0 0 0.16,-0.95 3,3 0 0 0 -0.16,-1 2.26,2.26 0 0 0 -1.2,-1.28 2.45,2.45 0 0 0 -1,-0.19 2.4,2.4 0 0 0 -0.95,0.19 2.26,2.26 0 0 0 -0.73,0.52 2.21,2.21 0 0 0 -0.47,0.76 2.73,2.73 0 0 0 -0.16,1"
         id="path107" />
      <path
         class="cls-5"
         d="m 421.93,294.68 a 3.53,3.53 0 0 1 0.26,-1.4 3.64,3.64 0 0 1 0.72,-1.08 3.39,3.39 0 0 1 1.1,-0.7 3.78,3.78 0 0 1 1.4,-0.25 3.73,3.73 0 0 1 1.39,0.25 3.19,3.19 0 0 1 1.1,0.7 3.49,3.49 0 0 1 0.73,1.08 3.71,3.71 0 0 1 0.26,1.4 3.66,3.66 0 0 1 -0.26,1.39 3.27,3.27 0 0 1 -0.73,1.08 3,3 0 0 1 -1.1,0.7 3.73,3.73 0 0 1 -1.39,0.25 3.78,3.78 0 0 1 -1.4,-0.25 3.23,3.23 0 0 1 -1.1,-0.7 3.4,3.4 0 0 1 -0.72,-1.08 3.48,3.48 0 0 1 -0.26,-1.39 m 1.17,0 a 2.67,2.67 0 0 0 0.16,0.95 2.23,2.23 0 0 0 0.46,0.77 2.19,2.19 0 0 0 0.73,0.51 2.29,2.29 0 0 0 1,0.19 2.24,2.24 0 0 0 0.95,-0.19 2,2 0 0 0 0.73,-0.51 2.25,2.25 0 0 0 0.47,-0.77 2.67,2.67 0 0 0 0.16,-0.95 2.73,2.73 0 0 0 -0.16,-1 2.21,2.21 0 0 0 -0.47,-0.76 2.16,2.16 0 0 0 -0.73,-0.52 2.4,2.4 0 0 0 -0.95,-0.19 2.45,2.45 0 0 0 -1,0.19 2.37,2.37 0 0 0 -0.73,0.52 2.18,2.18 0 0 0 -0.46,0.76 2.73,2.73 0 0 0 -0.16,1"
         id="path109" />
      <rect
         class="cls-5"
         x="430.67001"
         y="287.39999"
         width="1.09"
         height="10.53"
         id="rect111" />
      <rect
         class="cls-5"
         x="262.85999"
         y="326.17999"
         width="44.470001"
         height="0.66000003"
         id="rect113" />
      <rect
         class="cls-5"
         x="387.29001"
         y="326.17999"
         width="44.470001"
         height="0.66000003"
         id="rect115" />
      <path
         class="cls-5"
         d="m 312.44,327 a 1.84,1.84 0 0 0 1.64,0.92 1.18,1.18 0 0 0 1.29,-1 c 0,-1.55 -3.35,-0.47 -3.35,-2.62 a 1.74,1.74 0 0 1 1.93,-1.62 2,2 0 0 1 2,1.06 l -0.66,0.39 a 1.38,1.38 0 0 0 -1.33,-0.79 c -0.52,0 -1.19,0.32 -1.19,0.9 0,1.53 3.34,0.34 3.34,2.63 a 1.81,1.81 0 0 1 -2,1.74 2.47,2.47 0 0 1 -2.27,-1.15 z"
         id="path117" />
      <path
         class="cls-5"
         d="m 318.11,320.05 a 0.55,0.55 0 0 1 0.55,0.55 0.54,0.54 0 0 1 -0.55,0.55 0.55,0.55 0 0 1 -0.55,-0.55 0.55,0.55 0 0 1 0.55,-0.55 m -0.36,2.79 h 0.73 v 5.64 h -0.73 z"
         id="path119" />
      <path
         class="cls-5"
         d="m 320.55,324.42 c 0,-0.41 -0.06,-1.29 -0.06,-1.58 h 0.73 c 0,0.41 0,0.88 0,1 v 0 a 2.09,2.09 0 0 1 1.93,-1.14 c 1.76,0 2.15,1.2 2.15,2.43 v 3.36 h -0.74 v -3.32 c 0,-0.92 -0.25,-1.81 -1.41,-1.81 -1.16,0 -2,0.76 -2,2.31 v 2.82 h -0.73 z"
         id="path121" />
      <path
         class="cls-5"
         d="m 332.06,327.65 a 2.61,2.61 0 0 1 -2.07,1 3,3 0 1 1 0,-5.93 2.72,2.72 0 0 1 2.09,1 l -0.58,0.44 a 2,2 0 0 0 -1.51,-0.76 2.31,2.31 0 0 0 0,4.61 2,2 0 0 0 1.51,-0.78 z"
         id="path123" />
      <path
         class="cls-5"
         d="m 338.19,327.41 a 2.95,2.95 0 1 1 -2.48,-4.72 2.57,2.57 0 0 1 2.65,2.64 v 0.51 h -4.74 a 2.1,2.1 0 0 0 2.14,2.12 2.27,2.27 0 0 0 1.89,-1 z m -0.57,-2.23 a 1.89,1.89 0 0 0 -1.95,-1.83 2.09,2.09 0 0 0 -2.05,1.83 z"
         id="path125" />
      <polygon
         class="cls-5"
         points="343.49,320.79 341.93,322.07 341.48,321.51 343.61,319.76 344.24,319.76 344.24,328.4 343.5,328.4 343.5,320.79 "
         id="polygon127" />
      <path
         class="cls-5"
         d="m 351,324.59 v 0 a 2.19,2.19 0 0 1 -1.28,0.37 2.59,2.59 0 0 1 -2.72,-2.66 2.84,2.84 0 0 1 5.67,0 4.24,4.24 0 0 1 -0.8,2.21 l -2.34,3.89 h -0.93 z m 0.9,-2.29 a 2.025,2.025 0 1 0 -4.05,0 2.025,2.025 0 1 0 4.05,0"
         id="path129" />
      <path
         class="cls-5"
         d="m 356.18,319.61 a 2.23,2.23 0 0 1 2.37,2.25 2,2 0 0 1 -1.38,1.9 v 0 a 2.15,2.15 0 0 1 1.68,2.22 2.67,2.67 0 0 1 -5.34,0 2.15,2.15 0 0 1 1.68,-2.22 v 0 a 2,2 0 0 1 -1.38,-1.9 2.23,2.23 0 0 1 2.37,-2.25 m 0,8.28 a 1.89,1.89 0 1 0 -1.87,-1.89 1.82,1.82 0 0 0 1.87,1.89 m 0,-4.44 a 1.54,1.54 0 0 0 1.56,-1.59 1.56,1.56 0 1 0 -3.12,0 1.54,1.54 0 0 0 1.56,1.59"
         id="path131" />
      <polygon
         class="cls-5"
         points="361.32,328.4 360.5,328.4 364,320.42 359.85,320.42 359.85,319.76 364.76,319.76 364.76,320.42 "
         id="polygon133" />
      <path
         class="cls-5"
         d="m 374.69,328.15 c 0,0.21 -0.22,0.4 -0.61,0.4 a 1.57,1.57 0 0 1 -1.48,-0.85 3.05,3.05 0 0 1 -2.53,0.89 8.31,8.31 0 0 1 -1.63,-0.17 l 0.08,-0.55 0.07,-0.05 a 11.85,11.85 0 0 0 1.51,0.12 3.07,3.07 0 0 0 2.23,-0.74 c -0.43,-0.88 -1.19,-2.33 -1.8,-3.4 l 0.48,-0.5 h 0.09 c 0.46,0.95 1.32,2.75 1.83,3.68 0.41,0.76 0.73,0.94 1.41,0.94 0.26,0 0.35,0.09 0.35,0.23 m -3.69,-6.58 -0.74,-0.52 0.45,-0.68 0.75,0.5 z"
         id="path135" />
      <path
         class="cls-5"
         d="m 378.75,328.15 c 0,0.21 -0.21,0.4 -0.6,0.4 a 2.85,2.85 0 0 1 -1.91,-0.68 2.16,2.16 0 0 1 -1.8,0.68 h -0.34 l 0.26,-0.63 h 0.25 a 1.61,1.61 0 0 0 1.2,-0.39 9.22,9.22 0 0 0 0.73,-2.2 l 0.62,-0.15 0.11,0.05 a 10.86,10.86 0 0 1 -0.7,2.12 2.78,2.78 0 0 0 1.84,0.57 c 0.26,0 0.34,0.09 0.34,0.23 m -1.91,-4.69 -0.73,-0.51 0.45,-0.69 0.74,0.51 z"
         id="path137" />
      <path
         class="cls-5"
         d="m 383.85,327.58 a 1,1 0 0 1 -1.19,1.11 4.93,4.93 0 0 1 -2.63,-1 c -0.42,0.69 -0.85,0.9 -1.88,0.9 l 0.26,-0.63 c 0.73,0 0.89,-0.25 1.28,-0.92 0.39,-0.67 1,-2.56 2.12,-2.56 1.12,0 2,1.74 2,3.14 m -2.06,-2.5 c -0.65,0 -1.07,1.21 -1.46,2 a 4.66,4.66 0 0 0 2.15,0.93 c 0.4,0 0.62,-0.08 0.75,-0.25 0.11,-1 -0.68,-2.72 -1.44,-2.72"
         id="path139" />
    </g>
  </g>
</svg>
