<svg xmlns="http://www.w3.org/2000/svg" xmlns:xlink="http://www.w3.org/1999/xlink" version="1.1" viewBox="45 45 147.24 36">
<g id="layer_1" data-name="Figure">
<path transform="matrix(1,0,0,-1,0,792)" d="M45 711H192.239V747H45Z" fill="#159ad6"/>
<g clip-path="url(#clip_4)">
<path transform="matrix(1,0,0,-1,56.1271,67.27777)" d="M0 0V8.566H-1.1C-1.159 8.755-1.203 8.941-1.233 9.124-1.262 9.307-1.277 9.481-1.277 9.648-1.277 9.812-1.262 9.99-1.233 10.179-1.203 10.368-1.159 10.557-1.1 10.747H5.303C5.976 10.747 6.57 10.646 7.084 10.445 7.599 10.244 8.03 9.969 8.379 9.621 8.728 9.271 8.991 8.863 9.169 8.396 9.346 7.93 9.434 7.424 9.434 6.88 9.434 6.42 9.367 5.953 9.231 5.48 9.094 5.007 8.863 4.582 8.539 4.202 8.214 3.825 7.788 3.514 7.261 3.272 6.736 3.029 6.083 2.908 5.303 2.908H2.979V0H4.327C4.386-.189 4.43-.375 4.46-.558 4.49-.742 4.504-.917 4.504-1.082 4.504-1.248 4.49-1.424 4.46-1.613 4.43-1.804 4.386-1.992 4.327-2.181H-1.1C-1.159-1.992-1.203-1.804-1.233-1.613-1.262-1.424-1.277-1.248-1.277-1.082-1.277-.917-1.262-.742-1.233-.558-1.203-.375-1.159-.189-1.1 0ZM4.646 5.125C5.19 5.125 5.61 5.267 5.906 5.551 6.201 5.834 6.349 6.271 6.349 6.863 6.349 7.395 6.204 7.802 5.914 8.086 5.624 8.37 5.219 8.513 4.699 8.513H2.979V5.125Z" fill="#ffffff"/>
<path transform="matrix(1,0,0,-1,66.9565,64.81299)" d="M0 0C.165 .095 .36 .163 .585 .204 .809 .245 1.022 .266 1.223 .266 1.424 .266 1.634 .245 1.853 .204 2.072 .163 2.264 .095 2.429 0V-.728C2.429-.927 2.492-1.137 2.615-1.357 2.74-1.575 2.926-1.777 3.174-1.96 3.422-2.143 3.729-2.294 4.096-2.411 4.463-2.53 4.888-2.589 5.374-2.589 6.094-2.589 6.626-2.462 6.97-2.207 7.312-1.954 7.483-1.62 7.483-1.206 7.483-.473 6.916 .059 5.781 .39L3.458 1.064C3.032 1.182 2.625 1.336 2.234 1.525 1.844 1.714 1.501 1.95 1.206 2.234 .91 2.519 .674 2.858 .497 3.254 .319 3.65 .23 4.126 .23 4.681 .23 5.356 .363 5.938 .63 6.428 .895 6.919 1.238 7.326 1.658 7.653 2.078 7.977 2.545 8.217 3.059 8.37 3.573 8.524 4.078 8.601 4.575 8.601 5.32 8.601 5.938 8.492 6.428 8.272 6.919 8.054 7.294 7.773 7.555 7.43V8.14C7.72 8.234 7.909 8.302 8.122 8.344 8.335 8.385 8.535 8.406 8.725 8.406 8.914 8.406 9.117 8.385 9.337 8.344 9.556 8.302 9.747 8.234 9.913 8.14V4.008C9.747 3.913 9.556 3.846 9.337 3.804 9.117 3.762 8.908 3.742 8.707 3.742 8.506 3.742 8.293 3.762 8.069 3.804 7.844 3.846 7.649 3.913 7.483 4.008V4.433C7.483 4.669 7.433 4.898 7.333 5.116 7.233 5.335 7.081 5.53 6.88 5.701 6.68 5.873 6.419 6.012 6.1 6.118 5.781 6.224 5.409 6.277 4.983 6.277 4.605 6.277 4.282 6.218 4.017 6.101 3.75 5.982 3.54 5.828 3.387 5.639 3.221 5.438 3.139 5.201 3.139 4.93 3.139 4.681 3.218 4.452 3.378 4.239 3.538 4.025 3.86 3.854 4.345 3.724L6.544 3.103C7.088 2.949 7.599 2.769 8.078 2.563 8.556 2.356 8.976 2.096 9.337 1.782 9.697 1.469 9.981 1.088 10.188 .638 10.395 .189 10.498-.361 10.498-1.01 10.498-1.708 10.359-2.305 10.082-2.802 9.803-3.299 9.437-3.706 8.982-4.025 8.527-4.345 8.016-4.578 7.448-4.726 6.88-4.874 6.313-4.947 5.745-4.947 5.024-4.947 4.354-4.832 3.733-4.601 3.112-4.372 2.648-4.049 2.341-3.635V-4.469C2.175-4.563 1.983-4.632 1.764-4.673 1.545-4.713 1.341-4.734 1.153-4.734 .964-4.734 .766-4.713 .558-4.673 .352-4.632 .165-4.563 0-4.469Z" fill="#ffffff"/>
<path transform="matrix(1,0,0,-1,79.8004,67.27777)" d="M0 0 3.636 10.906H7.253L10.747 0H11.739C11.799-.189 11.843-.375 11.873-.558 11.902-.742 11.917-.917 11.917-1.082 11.917-1.248 11.902-1.424 11.873-1.613 11.843-1.804 11.799-1.992 11.739-2.181H6.579C6.52-2.016 6.476-1.841 6.447-1.658 6.417-1.475 6.402-1.307 6.402-1.153 6.402-.999 6.417-.834 6.447-.656 6.476-.479 6.52-.308 6.579-.142H7.643L7.165 1.524H3.369L2.855-.142H3.937C3.996-.308 4.04-.479 4.07-.656 4.1-.834 4.114-.999 4.114-1.153 4.114-1.307 4.1-1.475 4.07-1.658 4.04-1.841 3.996-2.016 3.937-2.181H-1.081C-1.141-1.992-1.185-1.804-1.214-1.613-1.245-1.424-1.259-1.248-1.259-1.082-1.259-.917-1.245-.742-1.214-.558-1.185-.375-1.141-.189-1.081 0ZM6.65 3.511 5.338 8.264 3.937 3.511Z" fill="#ffffff"/>
<path transform="matrix(1,0,0,-1,95.7531,67.27777)" d="M0 0V8.513H-1.933V6.437C-2.099 6.343-2.297 6.275-2.527 6.234-2.758 6.192-2.967 6.171-3.156 6.171-3.346 6.171-3.549 6.192-3.768 6.234-3.987 6.275-4.18 6.343-4.344 6.437V10.747H7.342V6.437C7.176 6.343 6.978 6.275 6.748 6.234 6.517 6.192 6.307 6.171 6.119 6.171 5.929 6.171 5.726 6.192 5.507 6.234 5.288 6.275 5.095 6.343 4.93 6.437V8.513H2.997V0H4.168C4.227-.189 4.271-.375 4.301-.558 4.33-.742 4.345-.917 4.345-1.082 4.345-1.248 4.33-1.424 4.301-1.613 4.271-1.804 4.227-1.992 4.168-2.181H-1.17C-1.229-1.992-1.274-1.804-1.304-1.613-1.333-1.424-1.347-1.248-1.347-1.082-1.347-.917-1.333-.742-1.304-.558-1.274-.375-1.229-.189-1.17 0Z" fill="#ffffff"/>
<path transform="matrix(1,0,0,-1,114.3169,59.64563)" d="M0 0V-6.052C0-7.541 0-9.069 1.88-9.148V-9.852C1.097-9.833 .293-9.793-.49-9.774-1.234-9.793-1.979-9.833-2.723-9.852V-9.148C-1.097-8.991-.98-8.187-.98-6.797V1.078C-1.606 1.96-1.862 2.312-2.939 2.409V3.115C-2.312 3.095-1.704 3.056-1.078 3.036-.334 3.056 .392 3.095 1.136 3.115L8.873-5.798V-.588C8.873 .901 8.873 2.331 7.012 2.409V3.115C7.757 3.095 8.502 3.056 9.245 3.036 10.029 3.056 10.812 3.095 11.596 3.115V2.409C11.048 2.312 10.421 2.234 10.146 1.705 9.852 1.137 9.852-.058 9.852-.705V-10.126H8.893Z" fill="#ffffff"/>
<path transform="matrix(1,0,0,-1,129.7488,59.566774)" d="M0 0H-.04V-6.014C-.04-6.641-.04-7.895 .255-8.443 .567-9.03 1.234-9.168 1.822-9.226V-9.932C.998-9.911 .196-9.873-.627-9.853-1.372-9.873-2.096-9.911-2.841-9.932V-9.226C-2.096-9.109-1.352-9.03-1.156-8.207-1.019-7.659-1.019-6.817-1.019-6.327V1.469C-1.372 2.154-2.136 2.271-2.841 2.331V3.035C-2.136 3.016-1.411 2.977-.706 2.958 .117 2.977 .921 3.016 1.744 3.035L5.583-6.112 9.108 3.035C9.853 3.016 10.598 2.977 11.341 2.958 12.125 2.977 12.908 3.016 13.809 3.035V2.331C11.909 2.39 11.988 1.43 11.968-.176V-6.327C11.968-6.817 11.968-7.659 12.105-8.207 12.301-9.03 13.046-9.109 13.789-9.226V-9.932C12.615-9.911 11.459-9.873 10.284-9.853 9.266-9.873 8.227-9.911 7.149-9.932V-9.226C7.893-9.109 8.638-9.03 8.834-8.207 8.971-7.659 8.971-6.817 8.971-6.327V-.137H8.933L5.033-9.932H4.093Z" fill="#ffffff"/>
<path transform="matrix(1,0,0,-1,145.4191,69.458988)" d="M0 0H-.861V4.074H-.078C.47 2.292 1.372 .647 3.546 .647 4.682 .647 5.779 1.39 5.779 2.605 5.779 4.427 3.899 4.917 2.526 5.504 .764 6.268-.666 7.248-.666 9.402-.666 11.812 1.175 13.105 3.448 13.105 4.506 13.105 5.602 12.869 6.386 12.145L6.64 12.909H7.482L7.6 9.383H6.758C6.406 10.891 5.288 12.203 3.584 12.203 2.626 12.203 1.646 11.655 1.646 10.597 1.646 9.128 3.134 8.717 4.251 8.207 6.347 7.306 8.325 6.385 8.325 3.761 8.325 1.116 6.092-.255 3.682-.255 2.428-.255 1.156 .176 .274 1.078Z" fill="#ffffff"/>
<path transform="matrix(1,0,0,-1,157.9955,62.818605)" d="M0 0C0-2.507 .763-6.111 3.917-6.111 7.149-6.111 7.795-2.997 7.795-.392 7.795 2.154 7.013 5.563 3.84 5.563 .823 5.563 0 2.429 0 0M3.408-6.934V-6.895C-.315-6.758-3.39-4.29-3.39-.372-3.39 3.78-.079 6.464 3.917 6.464 7.855 6.464 11.185 3.839 11.185-.274 11.185-4.035 8.227-6.014 5.035-7.15L2.389-8.07 2.427-8.11C2.723-8.11 3.016-8.089 3.31-8.089 4.76-8.051 5.857-8.363 6.797-8.697 7.737-9.03 8.54-9.363 9.383-9.363 10.108-9.363 10.557-9.05 10.871-8.756 11.185-8.443 11.361-8.148 11.537-8.148 11.714-8.148 11.811-8.325 11.811-8.481 11.811-10.166 10.342-11.793 8.638-11.793 7.149-11.793 6.072-11.048 5.073-10.304 4.055-9.559 3.094-8.815 1.841-8.815 .45-8.815-.411-9.676-.96-9.676-1.214-9.676-1.431-9.442-1.431-9.187-1.431-8.736-.882-8.561-.529-8.443 .274-8.148 1.057-7.874 1.861-7.581Z" fill="#ffffff"/>
<path transform="matrix(1,0,0,-1,182.489,60.252687)" d="M0 0H-.842C-1.038 1.646-1.997 2.742-3.702 2.742-4.328 2.742-4.603 2.801-4.78 2.605-4.975 2.35-4.878 1.96-4.878 1.313V-6.073C-4.878-7.816-4.917-8.6-2.918-8.541V-9.245C-4.074-9.226-5.23-9.186-6.385-9.167-7.541-9.186-8.696-9.226-9.852-9.245V-8.541C-7.854-8.6-7.874-7.816-7.874-6.073V1.313C-7.874 2.018-7.894 2.409-7.992 2.527-8.128 2.684-8.502 2.703-9.049 2.742-10.969 2.9-11.694 1.704-12.008 0H-12.849L-12.732 3.722H-.117Z" fill="#ffffff"/>
<path transform="matrix(1,0,0,-1,107.1949,56.017274)" d="M0 0H2.519L-1.809-13.761H-4.326Z" fill="#ffffff"/>
<path transform="matrix(1,0,0,-1,183.4277,57.66272)" d="M0 0C0 .181 .035 .348 .103 .503 .171 .658 .263 .791 .38 .904 .497 1.016 .634 1.105 .79 1.167 .945 1.229 1.11 1.261 1.284 1.261 1.457 1.261 1.62 1.229 1.774 1.167 1.929 1.105 2.064 1.016 2.181 .904 2.298 .791 2.391 .658 2.46 .503 2.528 .348 2.562 .181 2.562 0 2.562-.183 2.528-.352 2.46-.508 2.391-.664 2.298-.798 2.181-.911 2.064-1.023 1.929-1.111 1.774-1.175 1.62-1.239 1.457-1.272 1.284-1.272 1.11-1.272 .945-1.239 .79-1.175 .634-1.111 .497-1.023 .38-.911 .263-.798 .171-.664 .103-.508 .035-.352 0-.183 0 0M1.284-.987C1.417-.987 1.54-.962 1.657-.911 1.773-.862 1.874-.793 1.96-.707 2.046-.62 2.113-.516 2.162-.395 2.211-.276 2.234-.143 2.234 0 2.234 .139 2.211 .268 2.162 .387 2.113 .506 2.046 .61 1.96 .697 1.874 .784 1.773 .852 1.657 .902 1.54 .951 1.417 .977 1.284 .977 1.149 .977 1.024 .951 .907 .902 .79 .852 .688 .784 .603 .697 .516 .61 .449 .506 .4 .387 .352 .268 .328 .139 .328 0 .328-.143 .352-.276 .4-.395 .449-.516 .516-.62 .603-.707 .688-.793 .79-.862 .907-.911 1.024-.962 1.149-.987 1.284-.987M.831-.519V.517H.728C.719 .547 .714 .571 .712 .586 .709 .601 .708 .617 .708 .632 .708 .644 .709 .657 .712 .672 .714 .687 .719 .711 .728 .742H1.373C1.442 .742 1.505 .73 1.563 .708 1.62 .686 1.669 .655 1.71 .616 1.75 .577 1.782 .529 1.804 .476 1.826 .423 1.837 .368 1.837 .308 1.837 .237 1.821 .163 1.788 .084 1.755 .006 1.691-.056 1.595-.103L1.784-.519H1.89C1.901-.551 1.907-.573 1.908-.589 1.91-.605 1.911-.62 1.911-.635 1.911-.647 1.909-.659 1.907-.673 1.905-.688 1.898-.709 1.887-.738H1.572L1.311-.138H1.096V-.519H1.222C1.23-.551 1.236-.573 1.238-.589 1.24-.605 1.241-.62 1.241-.635 1.241-.647 1.24-.66 1.238-.675 1.236-.691 1.229-.713 1.218-.742H.728C.719-.713 .714-.691 .712-.675 .709-.66 .708-.647 .708-.635 .708-.62 .709-.605 .712-.589 .714-.573 .719-.551 .728-.519ZM1.321 .096C1.391 .096 1.445 .115 1.481 .153 1.518 .193 1.536 .244 1.536 .308 1.536 .366 1.519 .413 1.483 .45 1.448 .488 1.397 .506 1.331 .506H1.096V.096Z" fill="#ffffff"/>
</g>
</g>
</svg>