<?xml version="1.0" encoding="UTF-8" standalone="no"?>
<svg
   id="Layer_1"
   data-name="Layer 1"
   viewBox="0 0 595.28 462.26"
   version="1.1"
   sodipodi:docname="al_maaref_logo.svg"
   inkscape:version="1.2.2 (732a01da63, 2022-12-09)"
   xmlns:inkscape="http://www.inkscape.org/namespaces/inkscape"
   xmlns:sodipodi="http://sodipodi.sourceforge.net/DTD/sodipodi-0.dtd"
   xmlns="http://www.w3.org/2000/svg"
   xmlns:svg="http://www.w3.org/2000/svg">
  <sodipodi:namedview
     id="namedview3289"
     pagecolor="#ffffff"
     bordercolor="#000000"
     borderopacity="0.25"
     inkscape:showpageshadow="2"
     inkscape:pageopacity="0.0"
     inkscape:pagecheckerboard="0"
     inkscape:deskcolor="#d1d1d1"
     showgrid="false"
     inkscape:zoom="1.793363"
     inkscape:cx="297.76459"
     inkscape:cy="230.8512"
     inkscape:window-width="1920"
     inkscape:window-height="1009"
     inkscape:window-x="-8"
     inkscape:window-y="-8"
     inkscape:window-maximized="1"
     inkscape:current-layer="Layer_1" />
  <defs
     id="defs3156">
    <style
       id="style3143">.cls-1{fill:none;}.cls-2{clip-path:url(#clip-path);}.cls-3{fill:#231f20;}.cls-4{clip-path:url(#clip-path-2);}.cls-5{fill:url(#linear-gradient);}.cls-6{fill:#fff;}</style>
    <clipPath
       id="clip-path">
      <rect
         class="cls-1"
         x="0.03"
         width="595.28"
         height="462.26"
         id="rect3145" />
    </clipPath>
    <clipPath
       id="clip-path-2">
      <path
         class="cls-1"
         d="M195.5,310c-.57,1.32.86,3.21,3.19,4.23s4.7.77,5.28-.55-.86-3.22-3.2-4.24a7.14,7.14,0,0,0-2.79-.62A2.52,2.52,0,0,0,195.5,310m31.74-30.32,8.73,9.66c6.24,6.91,16.27-5.63,11.11-11.24l-9.38-10.18a4.91,4.91,0,0,0-3.71-1.67c-5.4,0-11.48,8.2-6.75,13.43m-43.46,23.24c6.74-6.65-10.72-17.24-16.33-37.65a47,47,0,0,1-1.33-18,49.46,49.46,0,0,0,17.66,55.66m-5.49-75.13a40.07,40.07,0,0,0-4.52,25.64q3.64,23,33.8,48.22c5.92,5,14.36-3.13,8.39-9.28q-14.81-15.27-22.66-28-19.87-32.31,4.92-48.52a49.6,49.6,0,0,0-19.93,12m34.46-14.22q-29.44,10-7.25,40.16a135.66,135.66,0,0,0,10.9,12.81c6.35,6.7,16.12-4,10.52-10.49q-34-39.56-2-41a49.62,49.62,0,0,0-12-1.47h-.23"
         id="path3148" />
    </clipPath>
    <linearGradient
       id="linear-gradient"
       x1="4828.23"
       y1="-60.29"
       x2="4829.23"
       y2="-60.29"
       gradientTransform="matrix(52.38,0,0,52.38,-252725.38,3422.47)"
       gradientUnits="userSpaceOnUse">
      <stop
         offset="0"
         stop-color="#0588ca"
         id="stop3151" />
      <stop
         offset="1"
         stop-color="#3cbcb8"
         id="stop3153" />
    </linearGradient>
  </defs>
  <g
     class="cls-2"
     clip-path="url(#clip-path)"
     id="g3286"
     transform="translate(0,-2.2304464)">
    <g
       class="cls-4"
       clip-path="url(#clip-path-2)"
       id="g3162">
      <rect
         class="cls-5"
         x="140.94"
         y="197.73"
         width="129.69"
         height="133.33"
         transform="rotate(-27.88,205.75414,264.36372)"
         id="rect3160"
         style="fill:url(#linear-gradient)" />
    </g>
    <g
       class="cls-2"
       clip-path="url(#clip-path)"
       id="g3284">
      <polygon
         class="cls-6"
         points="271.67,213.61 272.62,213.61 297.78,264.36 322.76,213.61 323.71,213.61 332.58,275.47 326.47,275.47 320.44,231.19 298.55,275.47 297,275.47 274.86,230.84 268.83,275.47 262.89,275.47 "
         id="polygon3164" />
      <path
         class="cls-6"
         d="m 366.72,213.61 27.74,61.86 h -6.38 l -9.35,-20.29 h -25.67 l -9.28,20.29 h -6.62 l 28.07,-61.86 z m -0.72,13.17 -10.18,22.36 h 20.29 z"
         id="path3166" />
      <path
         class="cls-6"
         d="m 397.24,263 5,-3 q 5.25,9.69 12.23,9.69 a 11.19,11.19 0 0 0 7.72,-2.87 9.23,9.23 0 0 0 3.2,-7.14 11.11,11.11 0 0 0 -2.71,-6.82 50.16,50.16 0 0 0 -9,-8.16 72.9,72.9 0 0 1 -8.45,-7.06 15.55,15.55 0 0 1 -3.2,-5 14.76,14.76 0 0 1 -1,-5.38 13.08,13.08 0 0 1 4.07,-9.72 14,14 0 0 1 10.21,-4 14.8,14.8 0 0 1 8.46,2.42 27.69,27.69 0 0 1 7,7.18 l -4.77,3.75 a 29.34,29.34 0 0 0 -4.76,-5.17 9.09,9.09 0 0 0 -6,-2.05 8.16,8.16 0 0 0 -5.83,2.13 7.16,7.16 0 0 0 -2.25,5.42 8.63,8.63 0 0 0 2,5.7 q 2,2.43 9.11,7.67 a 49.17,49.17 0 0 1 10.34,9.69 15.58,15.58 0 0 1 3.24,9.35 14.85,14.85 0 0 1 -5,11.12 16.2,16.2 0 0 1 -11.53,4.72 q -11.57,0 -18.05,-12.47"
         id="path3168" />
      <rect
         class="cls-6"
         x="265.75"
         y="303.70999"
         width="1.12"
         height="1.11"
         id="rect3170" />
      <rect
         class="cls-6"
         x="264.14999"
         y="303.70999"
         width="1.12"
         height="1.11"
         id="rect3172" />
      <rect
         class="cls-6"
         x="271.92001"
         y="313.13"
         width="1.12"
         height="1.11"
         id="rect3174" />
      <rect
         class="cls-6"
         x="270.32999"
         y="313.13"
         width="1.12"
         height="1.11"
         id="rect3176" />
      <rect
         class="cls-6"
         x="290.62"
         y="313.13"
         width="1.12"
         height="1.11"
         id="rect3178" />
      <rect
         class="cls-6"
         x="292.20999"
         y="313.13"
         width="1.12"
         height="1.11"
         id="rect3180" />
      <path
         class="cls-6"
         d="m 293.13,309.54 a 1.3,1.3 0 0 1 -1.48,1.43 h -1.86 v -1 a 3.78,3.78 0 0 0 -1,-2.53 2.67,2.67 0 0 0 -1.83,-1 l -0.54,-0.06 1.44,-2.62 h -1.39 l -2,3.55 1,0.81 a 2.41,2.41 0 0 1 1,-0.31 2.17,2.17 0 0 1 2.09,2.38 V 311 h -15.71 l 0.13,-0.45 a 4.47,4.47 0 0 0 0.14,-1.15 v -2.69 l -1.08,0.65 v 2.21 a 1.31,1.31 0 0 1 -1.48,1.43 h -0.66 a 1.37,1.37 0 0 1 -1.44,-1.57 v -4.15 l -1.12,0.27 v 0.3 h -2.16 a 2.36,2.36 0 0 0 -1.75,0.63 1.86,1.86 0 0 0 -0.53,1.44 v 1.25 c 0,1.66 0.78,2.61 2.29,2.61 h 0.95 a 2.78,2.78 0 0 0 1.33,-0.29 l 0.26,-0.14 0.19,0.22 a 2.14,2.14 0 0 0 1.66,0.59 h 22 a 2.32,2.32 0 0 0 2.6,-2.65 v -2.8 l -1.08,0.65 z m -25.79,-0.18 c 0,0.84 -0.44,1.25 -1.21,1.25 h -1 c -0.76,0 -1.13,-0.47 -1.13,-1.26 v -1.15 a 1.09,1.09 0 0 1 1.22,-1.23 h 2.16 z"
         id="path3182" />
      <path
         class="cls-6"
         d="m 303.55,306.63 h -0.94 c -1.53,0 -2.32,1 -2.32,2.61 v 0.24 a 1.32,1.32 0 0 1 -1.46,1.49 h -0.94 v -4.26 l -1.11,0.65 v 4.79 a 1.32,1.32 0 0 1 -1.47,1.45 h -0.09 l -0.24,1.24 h 0.32 a 2.28,2.28 0 0 0 2.58,-2.38 v -0.33 h 1.3 a 2.25,2.25 0 0 0 1.21,-0.25 l 0.24,-0.15 0.2,0.2 a 2.32,2.32 0 0 0 1.76,0.65 h 3.23 v -3.46 c 0,-1.67 -0.76,-2.49 -2.29,-2.49 m 1.21,4.79 h -2.21 a 1.06,1.06 0 0 1 -1.16,-1.15 v -0.06 c 0,-0.19 0,-0.61 0,-1.24 a 1.09,1.09 0 0 1 1.23,-1.17 h 1 a 1.19,1.19 0 0 1 0.93,0.44 1.49,1.49 0 0 1 0.2,0.88 z"
         id="path3184" />
      <path
         class="cls-6"
         d="M 312.16,309.54 A 1.28,1.28 0 0 1 311,311 h -0.32 l -1.11,-5.05 -1.07,0.7 0.94,4.33 h -1.71 l -0.27,1.16 h 3.35 c 1.65,0 2.47,-0.92 2.47,-2.76 v -5.28 l -1.07,0.65 z"
         id="path3186" />
      <path
         class="cls-6"
         d="m 310.18,304.79 h -0.85 a 0.69,0.69 0 1 1 0,-1.37 0.83,0.83 0 0 1 0.44,0.15 l 0.26,-0.3 a 1.06,1.06 0 0 0 -0.78,-0.32 1.12,1.12 0 0 0 -1.1,1.13 1,1 0 0 0 0.14,0.57 1.47,1.47 0 0 0 0.06,0.14 h -0.58 v 0.58 h 2.41 z"
         id="path3188" />
      <polygon
         class="cls-6"
         points="315.91,312.13 315.91,303.99 314.8,304.65 314.8,312.13 "
         id="polygon3190" />
      <rect
         class="cls-6"
         x="327.57999"
         y="303.85999"
         width="1.12"
         height="1.11"
         id="rect3192" />
      <path
         class="cls-6"
         d="m 328,306 a 4.67,4.67 0 0 0 -1.35,0.17 2.29,2.29 0 0 0 -1.39,1.65 7.24,7.24 0 0 0 -0.13,1.54 7.16,7.16 0 0 0 0.23,1.64 h -3.67 a 1.33,1.33 0 0 1 -1.45,-1.48 c 0,-1.43 0.36,-1.8 1.35,-1.87 l 0.19,-1.12 h -0.27 c -1.6,0 -2.39,0.89 -2.39,2.68 a 3.61,3.61 0 0 0 0.59,2.23 2.41,2.41 0 0 0 2,0.72 h 8.9 v -3.46 c 0,-1.81 -0.88,-2.73 -2.59,-2.73 m 1.47,5 h -1.79 c -0.92,0 -1.43,-0.57 -1.43,-1.56 v -0.72 a 1.33,1.33 0 0 1 1.48,-1.48 H 328 a 1.33,1.33 0 0 1 1.47,1.49 z"
         id="path3194" />
      <path
         class="cls-6"
         d="m 333.13,312.26 a 1.32,1.32 0 0 1 -1.47,1.44 h -0.09 l -0.24,1.25 h 0.43 c 1.65,0 2.47,-0.92 2.47,-2.76 v -5.38 l -1.1,0.66 z"
         id="path3196" />
      <path
         class="cls-6"
         d="m 375.75,309.54 a 1.3,1.3 0 0 1 -1.46,1.43 H 374 a 1.33,1.33 0 0 1 -1.45,-1.51 v -0.34 c 0,-1.65 -0.76,-2.48 -2.29,-2.48 h -0.94 c -1.53,0 -2.32,1 -2.32,2.6 v 0.24 a 1.32,1.32 0 0 1 -1.4,1.52 h -3.8 l 0.75,-0.62 a 4.83,4.83 0 0 0 1,-1.05 4.4,4.4 0 0 0 0.26,-0.4 0.49,0.49 0 0 0 0,-0.13 2.76,2.76 0 0 0 0.19,-0.8 c 0,-0.86 -0.53,-1.46 -1.57,-1.8 a 5.89,5.89 0 0 0 -1.66,-0.23 6.16,6.16 0 0 0 -3.1,0.87 9.29,9.29 0 0 0 -0.27,1.52 24.11,24.11 0 0 1 2.08,2 l 0.53,0.59 h -21.66 a 1.3,1.3 0 0 1 -1.46,-1.43 v -4.9 L 335.8,304 v 5.38 c 0,1.84 0.83,2.76 2.48,2.76 h 19.85 a 5.82,5.82 0 0 0 2.66,-0.62 l 0.16,0.12 a 3.72,3.72 0 0 0 2.1,0.5 H 366 a 2.41,2.41 0 0 0 1.21,-0.24 l 0.24,-0.16 0.19,0.21 a 2.34,2.34 0 0 0 1.77,0.64 h 3.23 v -0.75 l 0.46,0.16 0.45,0.08 c 0.15,0 0.36,0 0.61,0 h 0.39 c 1.55,-0.05 2.34,-1 2.34,-2.75 V 304 l -1.09,0.65 z m -14.9,1 -0.19,-0.28 a 9.18,9.18 0 0 0 -2.05,-2.19 l -0.4,-0.29 0.41,-0.29 a 3.84,3.84 0 0 1 2.18,-0.6 1.91,1.91 0 0 1 1.66,0.62 1.27,1.27 0 0 1 0.26,0.7 2.09,2.09 0 0 1 -0.88,1.66 6.71,6.71 0 0 1 -1,0.67 m 10.65,0.89 h -2.22 a 1.06,1.06 0 0 1 -1.16,-1.14 v -0.07 c 0,-0.19 0,-0.6 0,-1.25 a 1.09,1.09 0 0 1 1.24,-1.15 h 1 a 1.18,1.18 0 0 1 0.93,0.42 1.48,1.48 0 0 1 0.21,0.88 z"
         id="path3198" />
      <polygon
         class="cls-6"
         points="379.51,312.13 379.51,303.99 378.41,304.65 378.41,312.13 "
         id="polygon3200" />
      <rect
         class="cls-6"
         x="383.95001"
         y="303.70999"
         width="1.12"
         height="1.11"
         id="rect3202" />
      <rect
         class="cls-6"
         x="385.54999"
         y="303.70999"
         width="1.12"
         height="1.11"
         id="rect3204" />
      <path
         class="cls-6"
         d="m 412.3,309.48 a 1.32,1.32 0 0 1 -1.45,1.49 h -1.15 v -4.15 l -1.07,0.56 V 310 a 1,1 0 0 1 -1,1 H 406 v -4.15 l -1.08,0.56 V 311 h -15.21 c -0.93,0 -1.44,-0.58 -1.44,-1.57 v -4.15 l -1.12,0.27 v 0.3 H 385 a 2.39,2.39 0 0 0 -1.75,0.63 1.9,1.9 0 0 0 -0.52,1.44 v 1.25 c 0,1.66 0.79,2.61 2.29,2.61 h 1 a 2.77,2.77 0 0 0 1.32,-0.29 l 0.26,-0.14 0.19,0.22 a 2.14,2.14 0 0 0 1.66,0.59 h 21.51 c 1.66,0 2.5,-0.92 2.5,-2.76 v -2.55 l -1.08,0.56 z m -25.15,-0.12 c 0,0.84 -0.44,1.25 -1.21,1.25 h -1.05 c -0.76,0 -1.13,-0.47 -1.13,-1.26 V 308.2 A 1.1,1.1 0 0 1 385,307 h 2.17 z"
         id="path3206" />
      <path
         class="cls-6"
         d="m 416,312.26 a 1.31,1.31 0 0 1 -1.46,1.44 h -0.09 l -0.25,1.25 h 0.44 c 1.65,0 2.47,-0.92 2.47,-2.76 v -5.38 l -1.11,0.66 z"
         id="path3208" />
      <path
         class="cls-6"
         d="m 429.5,306.63 h -0.94 c -1.54,0 -2.32,1 -2.32,2.61 v 0.24 a 1.33,1.33 0 0 1 -1.47,1.49 h -1 v -2 a 3.36,3.36 0 0 0 -1.53,-2.8 3.08,3.08 0 0 0 -1.68,-0.45 3.3,3.3 0 0 0 -1.41,0.36 l 0.46,1.1 a 2.5,2.5 0 0 1 1,-0.24 2.18,2.18 0 0 1 2.06,2.2 V 311 h -3.77 l -0.27,1.16 h 6.51 a 2.25,2.25 0 0 0 1.21,-0.25 l 0.25,-0.15 0.19,0.2 a 2.33,2.33 0 0 0 1.77,0.65 h 3.23 v -3.46 c 0,-1.67 -0.76,-2.49 -2.29,-2.49 m 1.21,4.79 h -2.22 a 1.06,1.06 0 0 1 -1.16,-1.15 v -0.06 c 0,-0.19 0,-0.61 0,-1.24 a 1.1,1.1 0 0 1 1.24,-1.17 h 1 a 1.18,1.18 0 0 1 0.93,0.44 1.48,1.48 0 0 1 0.21,0.88 z"
         id="path3210" />
      <path
         class="cls-6"
         d="m 267.23,288.07 h 1.1 l 4.2,9.87 h -1.37 l -1,-2.43 h -4.93 l -1,2.43 h -1.32 z m 0.53,1.51 v 0 l -2.05,4.85 h 4 z"
         id="path3212" />
      <rect
         class="cls-6"
         x="273.73999"
         y="287.39999"
         width="1.09"
         height="10.53"
         id="rect3214" />
      <polygon
         class="cls-6"
         points="282.79,288.07 286.14,295.81 286.17,295.81 289.54,288.07 291.24,288.07 291.24,297.94 290.07,297.94 290.07,289.66 290.04,289.66 286.5,297.94 285.79,297.94 282.25,289.66 282.22,289.66 282.22,297.94 281.05,297.94 281.05,288.07 "
         id="polygon3216" />
      <path
         class="cls-6"
         d="m 293.41,292.25 a 3.16,3.16 0 0 1 1.19,-0.76 4.25,4.25 0 0 1 1.4,-0.24 2.78,2.78 0 0 1 2.09,0.68 2.94,2.94 0 0 1 0.64,2.08 v 2.8 c 0,0.18 0,0.38 0,0.58 0,0.2 0,0.38 0.07,0.55 h -1.05 a 3.61,3.61 0 0 1 -0.06,-0.5 c 0,-0.18 0,-0.34 0,-0.48 v 0 a 2.5,2.5 0 0 1 -0.86,0.82 2.42,2.42 0 0 1 -1.29,0.32 3.56,3.56 0 0 1 -0.94,-0.12 2.39,2.39 0 0 1 -0.77,-0.37 1.82,1.82 0 0 1 -0.52,-0.61 1.72,1.72 0 0 1 -0.19,-0.83 1.82,1.82 0 0 1 0.42,-1.27 2.45,2.45 0 0 1 1,-0.68 5.23,5.23 0 0 1 1.34,-0.28 q 0.72,-0.06 1.32,-0.06 h 0.42 v -0.19 a 1.33,1.33 0 0 0 -0.43,-1.07 1.73,1.73 0 0 0 -1.19,-0.37 3.12,3.12 0 0 0 -1,0.18 2.41,2.41 0 0 0 -0.9,0.53 z m 3.15,2.55 a 3.82,3.82 0 0 0 -1.66,0.3 1,1 0 0 0 -0.61,1 0.93,0.93 0 0 0 0.41,0.87 1.88,1.88 0 0 0 1,0.25 2,2 0 0 0 0.83,-0.16 1.51,1.51 0 0 0 0.59,-0.42 1.93,1.93 0 0 0 0.37,-0.62 2.69,2.69 0 0 0 0.14,-0.76 v -0.42 z"
         id="path3218" />
      <path
         class="cls-6"
         d="m 300.64,292.25 a 3.24,3.24 0 0 1 1.19,-0.76 4.25,4.25 0 0 1 1.4,-0.24 2.78,2.78 0 0 1 2.09,0.68 2.94,2.94 0 0 1 0.68,2.07 v 2.8 c 0,0.18 0,0.38 0,0.58 0,0.2 0,0.38 0.07,0.55 h -1 a 2.51,2.51 0 0 1 -0.07,-0.5 v -0.43 0 a 2.5,2.5 0 0 1 -0.86,0.82 2.42,2.42 0 0 1 -1.29,0.32 3.56,3.56 0 0 1 -0.94,-0.12 2.24,2.24 0 0 1 -0.76,-0.37 1.71,1.71 0 0 1 -0.72,-1.44 1.82,1.82 0 0 1 0.42,-1.27 2.45,2.45 0 0 1 1,-0.68 5.23,5.23 0 0 1 1.34,-0.28 q 0.72,-0.06 1.32,-0.06 h 0.42 v -0.19 a 1.33,1.33 0 0 0 -0.43,-1.07 1.73,1.73 0 0 0 -1.19,-0.37 3.12,3.12 0 0 0 -1,0.18 2.41,2.41 0 0 0 -0.9,0.53 z m 3.15,2.55 a 3.82,3.82 0 0 0 -1.66,0.3 1,1 0 0 0 -0.61,1 1,1 0 0 0 0.41,0.87 1.88,1.88 0 0 0 1,0.25 1.92,1.92 0 0 0 0.83,-0.16 1.51,1.51 0 0 0 0.59,-0.42 1.93,1.93 0 0 0 0.37,-0.62 2.69,2.69 0 0 0 0.14,-0.76 v -0.42 z"
         id="path3220" />
      <path
         class="cls-6"
         d="m 308,293 c 0,-0.29 0,-0.57 0,-0.83 0,-0.26 0,-0.5 0,-0.71 h 1 c 0,0.17 0,0.35 0,0.53 0,0.18 0,0.35 0,0.54 v 0 a 1.62,1.62 0 0 1 0.31,-0.46 2.13,2.13 0 0 1 0.48,-0.4 2.79,2.79 0 0 1 0.63,-0.28 2.57,2.57 0 0 1 0.75,-0.1 h 0.22 a 0.79,0.79 0 0 1 0.22,0.06 l -0.07,1.1 a 1.85,1.85 0 0 0 -0.58,-0.08 1.67,1.67 0 0 0 -1.46,0.64 3.11,3.11 0 0 0 -0.45,1.78 v 3.18 H 308 Z"
         id="path3222" />
      <path
         class="cls-6"
         d="m 318.43,296.75 a 3.35,3.35 0 0 1 -1.28,1.05 4.07,4.07 0 0 1 -1.62,0.3 3.4,3.4 0 0 1 -1.38,-0.27 3.06,3.06 0 0 1 -1,-0.73 3.1,3.1 0 0 1 -0.66,-1.09 4,4 0 0 1 0,-2.72 3.34,3.34 0 0 1 0.7,-1.09 3.21,3.21 0 0 1 1.06,-0.7 3.62,3.62 0 0 1 2.59,0 2.68,2.68 0 0 1 1,0.67 2.92,2.92 0 0 1 0.63,1.07 4.26,4.26 0 0 1 0.23,1.44 V 295 h -5.3 a 2.41,2.41 0 0 0 0.2,0.8 2.28,2.28 0 0 0 0.46,0.67 2,2 0 0 0 0.65,0.45 2,2 0 0 0 0.82,0.17 2.54,2.54 0 0 0 1.2,-0.25 2.66,2.66 0 0 0 0.88,-0.74 z m -0.93,-2.66 a 1.87,1.87 0 0 0 -0.55,-1.34 2,2 0 0 0 -1.42,-0.5 2.12,2.12 0 0 0 -1.46,0.5 2.16,2.16 0 0 0 -0.67,1.34 z"
         id="path3224" />
      <path
         class="cls-6"
         d="m 320.91,292.34 h -1.42 v -0.92 h 1.42 V 290 a 5.29,5.29 0 0 1 0.11,-1.09 2.4,2.4 0 0 1 0.38,-0.86 1.83,1.83 0 0 1 0.72,-0.56 2.77,2.77 0 0 1 1.1,-0.2 2.42,2.42 0 0 1 0.45,0 1.5,1.5 0 0 1 0.39,0.12 l -0.15,1 a 2.29,2.29 0 0 0 -0.74,-0.14 1.24,1.24 0 0 0 -0.66,0.15 0.86,0.86 0 0 0 -0.35,0.4 1.62,1.62 0 0 0 -0.14,0.62 c 0,0.24 0,0.5 0,0.78 v 1.23 h 1.59 v 0.92 H 322 v 5.6 h -1.09 z"
         id="path3226" />
      <path
         class="cls-6"
         d="m 332,288.07 h 1.1 l 4.2,9.87 h -1.37 l -1,-2.43 H 330 l -1,2.43 h -1.32 z m 0.53,1.51 v 0 l -2,4.85 h 4 z"
         id="path3228" />
      <path
         class="cls-6"
         d="m 338.42,293 c 0,-0.29 0,-0.57 0,-0.83 0,-0.26 0,-0.5 0,-0.71 h 1 c 0,0.17 0,0.35 0,0.53 0,0.18 0,0.35 0,0.54 v 0 a 1.91,1.91 0 0 1 0.32,-0.46 2.13,2.13 0 0 1 0.48,-0.4 2.71,2.71 0 0 1 0.62,-0.28 2.68,2.68 0 0 1 0.76,-0.1 2.51,2.51 0 0 1 0.88,0.13 2.33,2.33 0 0 1 0.59,0.32 1.56,1.56 0 0 1 0.37,0.41 c 0.09,0.14 0.16,0.27 0.22,0.38 a 3.07,3.07 0 0 1 0.83,-0.91 2.13,2.13 0 0 1 1.23,-0.33 3.12,3.12 0 0 1 1.17,0.19 1.79,1.79 0 0 1 0.77,0.54 2.19,2.19 0 0 1 0.41,0.87 4.33,4.33 0 0 1 0.13,1.13 v 4 h -1.09 V 294 a 2.84,2.84 0 0 0 -0.07,-0.66 1.46,1.46 0 0 0 -0.25,-0.57 1.22,1.22 0 0 0 -0.49,-0.4 1.61,1.61 0 0 0 -0.78,-0.16 1.58,1.58 0 0 0 -0.65,0.14 2.07,2.07 0 0 0 -0.54,0.39 1.93,1.93 0 0 0 -0.36,0.61 2.22,2.22 0 0 0 -0.13,0.79 v 3.76 h -1.09 v -3.7 a 3,3 0 0 0 -0.29,-1.53 1.05,1.05 0 0 0 -1,-0.46 2.11,2.11 0 0 0 -0.91,0.18 1.61,1.61 0 0 0 -0.63,0.52 2.39,2.39 0 0 0 -0.36,0.79 4.08,4.08 0 0 0 -0.12,1 v 3.18 h -1.09 z"
         id="path3230" />
      <path
         class="cls-6"
         d="m 356.11,296.75 a 3.27,3.27 0 0 1 -1.28,1.05 4,4 0 0 1 -1.61,0.3 3.36,3.36 0 0 1 -1.38,-0.27 3,3 0 0 1 -1,-0.73 3.42,3.42 0 0 1 -0.66,-1.09 3.87,3.87 0 0 1 -0.23,-1.33 3.7,3.7 0 0 1 0.26,-1.39 3.16,3.16 0 0 1 0.69,-1.09 3.21,3.21 0 0 1 1.06,-0.7 3.47,3.47 0 0 1 1.34,-0.25 3.39,3.39 0 0 1 1.25,0.23 2.68,2.68 0 0 1 1,0.67 2.94,2.94 0 0 1 0.64,1.07 4.27,4.27 0 0 1 0.22,1.44 V 295 h -5.27 a 2.21,2.21 0 0 0 0.21,0.8 2.08,2.08 0 0 0 0.45,0.67 2.1,2.1 0 0 0 0.65,0.45 2.05,2.05 0 0 0 0.83,0.17 2.52,2.52 0 0 0 1.19,-0.25 2.66,2.66 0 0 0 0.88,-0.74 z m -0.93,-2.66 a 1.9,1.9 0 0 0 -0.54,-1.34 2,2 0 0 0 -1.42,-0.5 2.13,2.13 0 0 0 -1.47,0.5 2.16,2.16 0 0 0 -0.67,1.34 z"
         id="path3232" />
      <path
         class="cls-6"
         d="m 358,293 c 0,-0.29 0,-0.57 0,-0.83 0,-0.26 0,-0.5 0,-0.71 h 1 c 0,0.17 0,0.35 0,0.53 0,0.18 0,0.35 0,0.54 v 0 a 1.86,1.86 0 0 1 0.31,-0.46 2.68,2.68 0 0 1 0.48,-0.4 3,3 0 0 1 0.63,-0.28 2.57,2.57 0 0 1 0.75,-0.1 h 0.22 a 1,1 0 0 1 0.23,0.06 l -0.07,1.1 a 1.91,1.91 0 0 0 -0.59,-0.08 1.64,1.64 0 0 0 -1.45,0.64 3,3 0 0 0 -0.46,1.78 v 3.18 H 358 Z"
         id="path3234" />
      <path
         class="cls-6"
         d="m 362.79,288.87 a 0.79,0.79 0 1 1 1.58,0 0.79,0.79 0 1 1 -1.58,0 m 0.25,2.55 h 1.08 v 6.52 H 363 Z"
         id="path3236" />
      <path
         class="cls-6"
         d="m 370.92,293.05 a 2.22,2.22 0 0 0 -0.75,-0.61 2.18,2.18 0 0 0 -0.89,-0.19 2.42,2.42 0 0 0 -1,0.19 1.91,1.91 0 0 0 -0.69,0.52 2.33,2.33 0 0 0 -0.41,0.78 2.85,2.85 0 0 0 -0.14,0.94 2.65,2.65 0 0 0 0.16,0.94 2.34,2.34 0 0 0 0.44,0.77 2,2 0 0 0 0.69,0.52 2.06,2.06 0 0 0 0.91,0.19 1.93,1.93 0 0 0 1.66,-0.81 l 0.8,0.77 a 2.7,2.7 0 0 1 -1.11,0.79 3.85,3.85 0 0 1 -2.73,0 2.91,2.91 0 0 1 -1.07,-0.71 3.25,3.25 0 0 1 -0.68,-1.08 4.06,4.06 0 0 1 0,-2.75 3.16,3.16 0 0 1 1.76,-1.8 3.56,3.56 0 0 1 1.37,-0.26 3.7,3.7 0 0 1 1.37,0.25 3.14,3.14 0 0 1 1.14,0.78 z"
         id="path3238" />
      <path
         class="cls-6"
         d="m 372.91,292.25 a 3.27,3.27 0 0 1 1.2,-0.76 4.16,4.16 0 0 1 1.4,-0.24 2.75,2.75 0 0 1 2.08,0.68 3,3 0 0 1 0.65,2.08 v 2.8 c 0,0.18 0,0.38 0,0.58 0,0.2 0.05,0.38 0.07,0.55 h -1 a 2,2 0 0 1 -0.06,-0.5 c 0,-0.18 0,-0.34 0,-0.48 v 0 a 2.42,2.42 0 0 1 -0.86,0.82 2.36,2.36 0 0 1 -1.28,0.32 3.51,3.51 0 0 1 -0.94,-0.12 2.3,2.3 0 0 1 -0.77,-0.37 1.78,1.78 0 0 1 -0.72,-1.44 1.82,1.82 0 0 1 0.42,-1.27 2.48,2.48 0 0 1 1,-0.68 5.15,5.15 0 0 1 1.33,-0.28 q 0.72,-0.06 1.32,-0.06 h 0.42 v -0.19 a 1.3,1.3 0 0 0 -0.43,-1.07 1.73,1.73 0 0 0 -1.19,-0.37 3,3 0 0 0 -1,0.18 2.41,2.41 0 0 0 -0.9,0.53 z m 3.15,2.55 a 3.85,3.85 0 0 0 -1.66,0.3 1,1 0 0 0 -0.61,1 1,1 0 0 0 0.41,0.87 1.94,1.94 0 0 0 1,0.25 2,2 0 0 0 0.83,-0.16 1.67,1.67 0 0 0 0.59,-0.42 1.74,1.74 0 0 0 0.38,-0.64 2.69,2.69 0 0 0 0.14,-0.76 v -0.42 z"
         id="path3240" />
      <path
         class="cls-6"
         d="m 380.23,293 c 0,-0.29 0,-0.57 0,-0.83 0,-0.26 0,-0.5 0,-0.71 h 1 c 0,0.17 0,0.35 0,0.53 0,0.18 0,0.35 0,0.54 v 0 a 1.86,1.86 0 0 1 0.31,-0.46 2.68,2.68 0 0 1 0.48,-0.4 3,3 0 0 1 0.63,-0.28 2.57,2.57 0 0 1 0.75,-0.1 3.06,3.06 0 0 1 1.11,0.19 2.2,2.2 0 0 1 0.77,0.55 2.14,2.14 0 0 1 0.46,0.84 4.09,4.09 0 0 1 0.14,1.08 v 4 H 384.8 V 294 a 2,2 0 0 0 -0.37,-1.29 1.3,1.3 0 0 0 -1.12,-0.48 2.16,2.16 0 0 0 -0.92,0.18 1.65,1.65 0 0 0 -0.62,0.52 2.22,2.22 0 0 0 -0.37,0.79 4.62,4.62 0 0 0 -0.11,1 v 3.18 h -1.09 z"
         id="path3242" />
      <path
         class="cls-6"
         d="m 396.72,289.82 a 1.63,1.63 0 0 0 -0.78,-0.69 2.36,2.36 0 0 0 -1,-0.22 2.86,2.86 0 0 0 -0.77,0.1 2.18,2.18 0 0 0 -0.68,0.29 1.42,1.42 0 0 0 -0.48,0.52 1.49,1.49 0 0 0 -0.18,0.75 1.55,1.55 0 0 0 0.11,0.59 1.25,1.25 0 0 0 0.34,0.47 2.52,2.52 0 0 0 0.64,0.39 9,9 0 0 0 1,0.36 c 0.38,0.12 0.75,0.25 1.1,0.39 a 3.77,3.77 0 0 1 0.95,0.53 2.24,2.24 0 0 1 0.66,0.8 2.67,2.67 0 0 1 0.24,1.2 2.76,2.76 0 0 1 -0.29,1.29 2.66,2.66 0 0 1 -0.77,0.89 3.26,3.26 0 0 1 -1.11,0.53 4.69,4.69 0 0 1 -1.3,0.18 5,5 0 0 1 -0.86,-0.08 4,4 0 0 1 -0.83,-0.24 3.16,3.16 0 0 1 -0.74,-0.41 2.29,2.29 0 0 1 -0.6,-0.64 l 1,-0.82 a 2,2 0 0 0 0.89,0.82 2.66,2.66 0 0 0 1.21,0.28 2.85,2.85 0 0 0 0.76,-0.11 2,2 0 0 0 0.69,-0.33 1.69,1.69 0 0 0 0.5,-0.53 1.41,1.41 0 0 0 0.2,-0.74 1.49,1.49 0 0 0 -0.16,-0.75 1.37,1.37 0 0 0 -0.47,-0.49 3.41,3.41 0 0 0 -0.81,-0.38 l -1.14,-0.39 a 7.26,7.26 0 0 1 -1,-0.38 3.15,3.15 0 0 1 -0.78,-0.53 2.17,2.17 0 0 1 -0.51,-0.75 2.62,2.62 0 0 1 -0.19,-1.05 2.55,2.55 0 0 1 0.28,-1.24 2.48,2.48 0 0 1 0.75,-0.89 3.59,3.59 0 0 1 1.07,-0.54 4.54,4.54 0 0 1 2.78,0.08 2.93,2.93 0 0 1 1.23,0.9 z"
         id="path3244" />
      <path
         class="cls-6"
         d="m 404.23,293.05 a 2.22,2.22 0 0 0 -0.75,-0.61 2.18,2.18 0 0 0 -0.89,-0.19 2.38,2.38 0 0 0 -1,0.19 1.91,1.91 0 0 0 -0.69,0.52 2.33,2.33 0 0 0 -0.41,0.78 2.85,2.85 0 0 0 -0.14,0.94 2.65,2.65 0 0 0 0.16,0.94 2.34,2.34 0 0 0 0.44,0.77 2,2 0 0 0 0.69,0.52 2.06,2.06 0 0 0 0.91,0.19 1.93,1.93 0 0 0 1.66,-0.81 l 0.8,0.77 a 2.7,2.7 0 0 1 -1.11,0.79 3.85,3.85 0 0 1 -2.73,0 2.91,2.91 0 0 1 -1.07,-0.71 3.25,3.25 0 0 1 -0.68,-1.08 4.06,4.06 0 0 1 0,-2.75 3.16,3.16 0 0 1 1.76,-1.8 3.56,3.56 0 0 1 1.37,-0.26 3.7,3.7 0 0 1 1.37,0.25 3.14,3.14 0 0 1 1.14,0.78 z"
         id="path3246" />
      <path
         class="cls-6"
         d="m 406.31,287.4 h 1.08 v 4.92 0 a 2.07,2.07 0 0 1 0.31,-0.38 2,2 0 0 1 0.46,-0.34 3,3 0 0 1 0.61,-0.25 2.34,2.34 0 0 1 0.71,-0.1 2.86,2.86 0 0 1 1.11,0.2 2.06,2.06 0 0 1 0.77,0.54 2,2 0 0 1 0.45,0.84 3.71,3.71 0 0 1 0.15,1.08 v 4 H 410.9 V 294 a 2.06,2.06 0 0 0 -0.36,-1.29 1.32,1.32 0 0 0 -1.13,-0.48 2.14,2.14 0 0 0 -0.91,0.18 1.87,1.87 0 0 0 -0.63,0.52 2.39,2.39 0 0 0 -0.36,0.79 4.08,4.08 0 0 0 -0.12,1 v 3.18 h -1.08 z"
         id="path3248" />
      <path
         class="cls-6"
         d="m 413.68,294.68 a 3.53,3.53 0 0 1 0.26,-1.4 3.49,3.49 0 0 1 0.73,-1.08 3.19,3.19 0 0 1 1.1,-0.7 4,4 0 0 1 2.78,0 3.19,3.19 0 0 1 1.1,0.7 3.49,3.49 0 0 1 0.73,1.08 3.71,3.71 0 0 1 0.26,1.4 3.66,3.66 0 0 1 -0.26,1.39 3.27,3.27 0 0 1 -0.73,1.08 3,3 0 0 1 -1.1,0.7 4,4 0 0 1 -2.78,0 3,3 0 0 1 -1.1,-0.7 3.27,3.27 0 0 1 -0.73,-1.08 3.48,3.48 0 0 1 -0.26,-1.39 m 1.17,0 a 2.67,2.67 0 0 0 0.16,0.95 2.23,2.23 0 0 0 0.46,0.77 2.19,2.19 0 0 0 0.73,0.51 2.32,2.32 0 0 0 1,0.19 2.24,2.24 0 0 0 0.95,-0.19 2.13,2.13 0 0 0 0.74,-0.51 2.39,2.39 0 0 0 0.46,-0.77 2.67,2.67 0 0 0 0.16,-0.95 2.73,2.73 0 0 0 -0.16,-1 2.34,2.34 0 0 0 -0.46,-0.76 2.3,2.3 0 0 0 -0.74,-0.52 2.4,2.4 0 0 0 -0.95,-0.19 2.49,2.49 0 0 0 -1,0.19 2.37,2.37 0 0 0 -0.73,0.52 2.18,2.18 0 0 0 -0.46,0.76 2.73,2.73 0 0 0 -0.16,1"
         id="path3250" />
      <path
         class="cls-6"
         d="m 422,294.68 a 3.53,3.53 0 0 1 0.27,-1.4 3.15,3.15 0 0 1 1.73,-1.78 4,4 0 0 1 2.79,0 3.15,3.15 0 0 1 1.82,1.78 3.53,3.53 0 0 1 0.27,1.4 3.48,3.48 0 0 1 -0.27,1.39 3.1,3.1 0 0 1 -0.72,1.08 3.14,3.14 0 0 1 -1.1,0.7 4,4 0 0 1 -2.79,0 3.14,3.14 0 0 1 -1.1,-0.7 3.1,3.1 0 0 1 -0.72,-1.08 3.48,3.48 0 0 1 -0.27,-1.39 m 1.17,0 a 2.91,2.91 0 0 0 0.16,0.95 2.25,2.25 0 0 0 0.47,0.77 2.09,2.09 0 0 0 0.73,0.51 2.5,2.5 0 0 0 1.91,0 2.09,2.09 0 0 0 0.73,-0.51 2.42,2.42 0 0 0 0.47,-0.77 2.91,2.91 0 0 0 0.16,-0.95 3,3 0 0 0 -0.16,-1 2.37,2.37 0 0 0 -0.47,-0.76 2.26,2.26 0 0 0 -0.73,-0.52 2.5,2.5 0 0 0 -1.91,0 2.26,2.26 0 0 0 -0.73,0.52 2.21,2.21 0 0 0 -0.47,0.76 3,3 0 0 0 -0.16,1"
         id="path3252" />
      <rect
         class="cls-6"
         x="430.70001"
         y="287.39999"
         width="1.09"
         height="10.53"
         id="rect3254" />
      <rect
         class="cls-6"
         x="262.89001"
         y="326.17999"
         width="44.470001"
         height="0.66000003"
         id="rect3256" />
      <rect
         class="cls-6"
         x="387.32001"
         y="326.17999"
         width="44.470001"
         height="0.66000003"
         id="rect3258" />
      <path
         class="cls-6"
         d="m 312.47,327 a 1.82,1.82 0 0 0 1.63,0.92 c 0.64,0 1.3,-0.39 1.3,-1 0,-1.55 -3.35,-0.47 -3.35,-2.62 a 1.74,1.74 0 0 1 1.93,-1.62 2.06,2.06 0 0 1 2,1.06 l -0.66,0.39 a 1.38,1.38 0 0 0 -1.33,-0.79 c -0.53,0 -1.2,0.32 -1.2,0.9 0,1.53 3.35,0.34 3.35,2.63 a 1.82,1.82 0 0 1 -2,1.74 2.47,2.47 0 0 1 -2.27,-1.15 z"
         id="path3260" />
      <path
         class="cls-6"
         d="m 318.14,320.05 a 0.55,0.55 0 0 1 0.55,0.55 0.55,0.55 0 0 1 -1.1,0 0.55,0.55 0 0 1 0.55,-0.55 m -0.37,2.79 h 0.73 v 5.64 h -0.73 z"
         id="path3262" />
      <path
         class="cls-6"
         d="m 320.58,324.42 c 0,-0.41 -0.06,-1.29 -0.06,-1.58 h 0.73 a 8.86,8.86 0 0 0 0.05,1 v 0 a 2.09,2.09 0 0 1 1.93,-1.14 c 1.75,0 2.14,1.2 2.14,2.43 v 3.36 h -0.73 v -3.32 c 0,-0.92 -0.25,-1.81 -1.41,-1.81 -1.16,0 -2,0.76 -2,2.31 v 2.82 h -0.73 z"
         id="path3264" />
      <path
         class="cls-6"
         d="m 332.09,327.65 a 2.61,2.61 0 0 1 -2.08,1 3,3 0 0 1 0,-5.93 2.74,2.74 0 0 1 2.1,1 l -0.58,0.44 a 2,2 0 0 0 -1.52,-0.76 2.31,2.31 0 0 0 0,4.61 2,2 0 0 0 1.52,-0.78 z"
         id="path3266" />
      <path
         class="cls-6"
         d="m 338.21,327.41 a 2.93,2.93 0 0 1 -5.3,-1.77 2.81,2.81 0 0 1 2.82,-2.95 2.56,2.56 0 0 1 2.65,2.64 v 0.51 h -4.73 a 2.1,2.1 0 0 0 2.13,2.12 2.25,2.25 0 0 0 1.89,-1 z m -0.56,-2.23 a 1.9,1.9 0 0 0 -1.95,-1.83 2.09,2.09 0 0 0 -2.05,1.83 z"
         id="path3268" />
      <polygon
         class="cls-6"
         points="343.52,320.79 341.96,322.07 341.51,321.51 343.64,319.76 344.26,319.76 344.26,328.4 343.53,328.4 343.53,320.79 "
         id="polygon3270" />
      <path
         class="cls-6"
         d="m 351,324.59 v 0 a 2.21,2.21 0 0 1 -1.28,0.37 2.59,2.59 0 0 1 -2.72,-2.66 2.84,2.84 0 0 1 5.67,0 4.33,4.33 0 0 1 -0.8,2.21 l -2.34,3.89 h -0.93 z m 0.9,-2.29 a 2.025,2.025 0 1 0 -4.05,0 2.025,2.025 0 1 0 4.05,0"
         id="path3272" />
      <path
         class="cls-6"
         d="m 356.21,319.61 a 2.23,2.23 0 0 1 2.37,2.25 2,2 0 0 1 -1.38,1.9 v 0 a 2.16,2.16 0 0 1 1.68,2.22 2.68,2.68 0 0 1 -5.35,0 2.16,2.16 0 0 1 1.69,-2.22 v 0 a 2,2 0 0 1 -1.38,-1.9 2.23,2.23 0 0 1 2.37,-2.25 m 0,8.28 a 1.89,1.89 0 1 0 -1.87,-1.89 1.82,1.82 0 0 0 1.87,1.89 m 0,-4.44 a 1.54,1.54 0 0 0 1.56,-1.59 1.57,1.57 0 1 0 -3.13,0 1.55,1.55 0 0 0 1.57,1.59"
         id="path3274" />
      <polygon
         class="cls-6"
         points="361.34,328.4 360.52,328.4 364.03,320.42 359.88,320.42 359.88,319.76 364.79,319.76 364.79,320.42 "
         id="polygon3276" />
      <path
         class="cls-6"
         d="m 374.72,328.15 c 0,0.21 -0.22,0.4 -0.61,0.4 a 1.55,1.55 0 0 1 -1.48,-0.85 3.08,3.08 0 0 1 -2.54,0.89 8.29,8.29 0 0 1 -1.62,-0.17 l 0.08,-0.55 0.06,-0.05 a 12,12 0 0 0 1.52,0.12 3.09,3.09 0 0 0 2.23,-0.74 c -0.44,-0.88 -1.2,-2.33 -1.8,-3.4 l 0.47,-0.5 h 0.09 c 0.47,0.95 1.33,2.75 1.83,3.68 0.41,0.76 0.74,0.94 1.42,0.94 0.26,0 0.35,0.09 0.35,0.23 m -3.72,-6.58 -0.73,-0.52 0.45,-0.68 0.75,0.5 z"
         id="path3278" />
      <path
         class="cls-6"
         d="m 378.77,328.15 c 0,0.21 -0.2,0.4 -0.59,0.4 a 2.9,2.9 0 0 1 -1.92,-0.68 2.13,2.13 0 0 1 -1.79,0.68 h -0.35 l 0.26,-0.63 h 0.26 a 1.61,1.61 0 0 0 1.2,-0.39 9.72,9.72 0 0 0 0.73,-2.2 l 0.62,-0.15 0.1,0.05 a 11,11 0 0 1 -0.69,2.12 2.75,2.75 0 0 0 1.84,0.57 c 0.26,0 0.33,0.09 0.33,0.23 m -1.9,-4.69 -0.74,-0.51 0.45,-0.69 0.75,0.51 z"
         id="path3280" />
      <path
         class="cls-6"
         d="m 383.87,327.58 a 1,1 0 0 1 -1.18,1.11 4.93,4.93 0 0 1 -2.63,-1 c -0.42,0.69 -0.85,0.9 -1.88,0.9 l 0.26,-0.63 c 0.73,0 0.89,-0.25 1.27,-0.92 0.38,-0.67 1,-2.56 2.13,-2.56 1.13,0 2,1.74 2,3.14 m -2.06,-2.5 c -0.64,0 -1.07,1.21 -1.45,2 a 4.58,4.58 0 0 0 2.15,0.93 c 0.4,0 0.62,-0.08 0.74,-0.25 0.12,-1 -0.68,-2.72 -1.44,-2.72"
         id="path3282" />
    </g>
  </g>
</svg>
