<svg id="Layer_1" data-name="Layer 1" xmlns="http://www.w3.org/2000/svg" xmlns:xlink="http://www.w3.org/1999/xlink" viewBox="0 0 595.28 462.26"><defs><style>.cls-1{fill:none;}.cls-2{clip-path:url(#clip-path);}.cls-3{fill:#231f20;}.cls-4{clip-path:url(#clip-path-2);}.cls-5{fill:url(#linear-gradient);}.cls-6{fill:#fff;}</style><clipPath id="clip-path"><rect class="cls-1" x="0.03" width="595.28" height="462.26"/></clipPath><clipPath id="clip-path-2"><path class="cls-1" d="M195.5,310c-.57,1.32.86,3.21,3.19,4.23s4.7.77,5.28-.55-.86-3.22-3.2-4.24a7.14,7.14,0,0,0-2.79-.62A2.52,2.52,0,0,0,195.5,310m31.74-30.32,8.73,9.66c6.24,6.91,16.27-5.63,11.11-11.24l-9.38-10.18a4.91,4.91,0,0,0-3.71-1.67c-5.4,0-11.48,8.2-6.75,13.43m-43.46,23.24c6.74-6.65-10.72-17.24-16.33-37.65a47,47,0,0,1-1.33-18,49.46,49.46,0,0,0,17.66,55.66m-5.49-75.13a40.07,40.07,0,0,0-4.52,25.64q3.64,23,33.8,48.22c5.92,5,14.36-3.13,8.39-9.28q-14.81-15.27-22.66-28-19.87-32.31,4.92-48.52a49.6,49.6,0,0,0-19.93,12m34.46-14.22q-29.44,10-7.25,40.16a135.66,135.66,0,0,0,10.9,12.81c6.35,6.7,16.12-4,10.52-10.49q-34-39.56-2-41a49.62,49.62,0,0,0-12-1.47h-.23"/></clipPath><linearGradient id="linear-gradient" x1="4828.23" y1="-60.29" x2="4829.23" y2="-60.29" gradientTransform="translate(-252725.38 3422.47) scale(52.38)" gradientUnits="userSpaceOnUse"><stop offset="0" stop-color="#0588ca"/><stop offset="1" stop-color="#3cbcb8"/></linearGradient></defs><g class="cls-2"><rect class="cls-3" x="0.03" width="595.28" height="462.26"/><g class="cls-4"><rect class="cls-5" x="140.94" y="197.73" width="129.69" height="133.33" transform="translate(-99.74 126.9) rotate(-27.88)"/></g><g class="cls-2"><polygon class="cls-6" points="262.89 275.47 271.67 213.61 272.62 213.61 297.78 264.36 322.76 213.61 323.71 213.61 332.58 275.47 326.47 275.47 320.44 231.19 298.55 275.47 297 275.47 274.86 230.84 268.83 275.47 262.89 275.47"/><path class="cls-6" d="M366.72,213.61l27.74,61.86h-6.38l-9.35-20.29H353.06l-9.28,20.29h-6.62l28.07-61.86ZM366,226.78l-10.18,22.36h20.29Z"/><path class="cls-6" d="M397.24,263l5-3q5.25,9.69,12.23,9.69a11.19,11.19,0,0,0,7.72-2.87,9.23,9.23,0,0,0,3.2-7.14,11.11,11.11,0,0,0-2.71-6.82,50.16,50.16,0,0,0-9-8.16,72.9,72.9,0,0,1-8.45-7.06,15.55,15.55,0,0,1-3.2-5,14.76,14.76,0,0,1-1-5.38,13.08,13.08,0,0,1,4.07-9.72,14,14,0,0,1,10.21-4,14.8,14.8,0,0,1,8.46,2.42,27.69,27.69,0,0,1,7,7.18L426,226.89a29.34,29.34,0,0,0-4.76-5.17,9.09,9.09,0,0,0-6-2.05,8.16,8.16,0,0,0-5.83,2.13,7.16,7.16,0,0,0-2.25,5.42,8.63,8.63,0,0,0,2,5.7q2,2.43,9.11,7.67a49.17,49.17,0,0,1,10.34,9.69,15.58,15.58,0,0,1,3.24,9.35,14.85,14.85,0,0,1-5,11.12,16.2,16.2,0,0,1-11.53,4.72q-11.57,0-18.05-12.47"/><rect class="cls-6" x="265.75" y="303.71" width="1.12" height="1.11"/><rect class="cls-6" x="264.15" y="303.71" width="1.12" height="1.11"/><rect class="cls-6" x="271.92" y="313.13" width="1.12" height="1.11"/><rect class="cls-6" x="270.33" y="313.13" width="1.12" height="1.11"/><rect class="cls-6" x="290.62" y="313.13" width="1.12" height="1.11"/><rect class="cls-6" x="292.21" y="313.13" width="1.12" height="1.11"/><path class="cls-6" d="M293.13,309.54a1.3,1.3,0,0,1-1.48,1.43h-1.86v-1a3.78,3.78,0,0,0-1-2.53,2.67,2.67,0,0,0-1.83-1l-.54-.06,1.44-2.62h-1.39l-2,3.55,1,.81a2.41,2.41,0,0,1,1-.31,2.17,2.17,0,0,1,2.09,2.38V311H272.85l.13-.45a4.47,4.47,0,0,0,.14-1.15v-2.69l-1.08.65v2.21a1.31,1.31,0,0,1-1.48,1.43h-.66a1.37,1.37,0,0,1-1.44-1.57v-4.15l-1.12.27v.3h-2.16a2.36,2.36,0,0,0-1.75.63,1.86,1.86,0,0,0-.53,1.44v1.25c0,1.66.78,2.61,2.29,2.61h.95a2.78,2.78,0,0,0,1.33-.29l.26-.14.19.22a2.14,2.14,0,0,0,1.66.59h22a2.32,2.32,0,0,0,2.6-2.65v-2.8l-1.08.65Zm-25.79-.18c0,.84-.44,1.25-1.21,1.25h-1c-.76,0-1.13-.47-1.13-1.26V308.2a1.09,1.09,0,0,1,1.22-1.23h2.16Z"/><path class="cls-6" d="M303.55,306.63h-.94c-1.53,0-2.32,1-2.32,2.61v.24a1.32,1.32,0,0,1-1.46,1.49h-.94v-4.26l-1.11.65v4.79a1.32,1.32,0,0,1-1.47,1.45h-.09l-.24,1.24h.32a2.28,2.28,0,0,0,2.58-2.38l0-.33h1.3a2.25,2.25,0,0,0,1.21-.25l.24-.15.2.2a2.32,2.32,0,0,0,1.76.65h3.23v-3.46c0-1.67-.76-2.49-2.29-2.49m1.21,4.79h-2.21a1.06,1.06,0,0,1-1.16-1.15v-.06c0-.19,0-.61,0-1.24a1.09,1.09,0,0,1,1.23-1.17h1a1.19,1.19,0,0,1,.93.44,1.49,1.49,0,0,1,.2.88Z"/><path class="cls-6" d="M312.16,309.54A1.28,1.28,0,0,1,311,311l-.32,0-1.11-5.05-1.07.7.94,4.33h-1.71l-.27,1.16h3.35c1.65,0,2.47-.92,2.47-2.76v-5.28l-1.07.65Z"/><path class="cls-6" d="M310.18,304.79h-.85a.69.69,0,1,1,0-1.37.83.83,0,0,1,.44.15l.26-.3a1.06,1.06,0,0,0-.78-.32,1.12,1.12,0,0,0-1.1,1.13,1,1,0,0,0,.14.57,1.47,1.47,0,0,0,.06.14h-.58v.58h2.41Z"/><polygon class="cls-6" points="314.8 312.13 315.91 312.13 315.91 303.99 314.8 304.65 314.8 312.13"/><rect class="cls-6" x="327.58" y="303.86" width="1.12" height="1.11"/><path class="cls-6" d="M328,306a4.67,4.67,0,0,0-1.35.17,2.29,2.29,0,0,0-1.39,1.65,7.24,7.24,0,0,0-.13,1.54,7.16,7.16,0,0,0,.23,1.64h-3.67a1.33,1.33,0,0,1-1.45-1.48c0-1.43.36-1.8,1.35-1.87l.19-1.12h-.27c-1.6,0-2.39.89-2.39,2.68a3.61,3.61,0,0,0,.59,2.23,2.41,2.41,0,0,0,2,.72h8.9V308.7c0-1.81-.88-2.73-2.59-2.73m1.47,5h-1.79c-.92,0-1.43-.57-1.43-1.56v-.72a1.33,1.33,0,0,1,1.48-1.48H328a1.33,1.33,0,0,1,1.47,1.49Z"/><path class="cls-6" d="M333.13,312.26a1.32,1.32,0,0,1-1.47,1.44h-.09l-.24,1.25h.43c1.65,0,2.47-.92,2.47-2.76v-5.38l-1.1.66Z"/><path class="cls-6" d="M375.75,309.54a1.3,1.3,0,0,1-1.46,1.43H374a1.33,1.33,0,0,1-1.45-1.51v-.34c0-1.65-.76-2.48-2.29-2.48h-.94c-1.53,0-2.32,1-2.32,2.6v.24A1.32,1.32,0,0,1,365.6,311h-3.8l.75-.62a4.83,4.83,0,0,0,1-1.05,4.4,4.4,0,0,0,.26-.4.49.49,0,0,0,0-.13A2.76,2.76,0,0,0,364,308c0-.86-.53-1.46-1.57-1.8a5.89,5.89,0,0,0-1.66-.23,6.16,6.16,0,0,0-3.1.87,9.29,9.29,0,0,0-.27,1.52,24.11,24.11,0,0,1,2.08,2l.53.59H338.35a1.3,1.3,0,0,1-1.46-1.43v-4.9L335.8,304v5.38c0,1.84.83,2.76,2.48,2.76h19.85a5.82,5.82,0,0,0,2.66-.62l.16.12a3.72,3.72,0,0,0,2.1.5H366a2.41,2.41,0,0,0,1.21-.24l.24-.16.19.21a2.34,2.34,0,0,0,1.77.64h3.23v-.75l.46.16.45.08c.15,0,.36,0,.61,0h.39c1.55-.05,2.34-1,2.34-2.75V304l-1.09.65Zm-14.9,1-.19-.28a9.18,9.18,0,0,0-2.05-2.19l-.4-.29.41-.29a3.84,3.84,0,0,1,2.18-.6,1.91,1.91,0,0,1,1.66.62,1.27,1.27,0,0,1,.26.7,2.09,2.09,0,0,1-.88,1.66,6.71,6.71,0,0,1-1,.67m10.65.89h-2.22a1.06,1.06,0,0,1-1.16-1.14v-.07c0-.19,0-.6,0-1.25a1.09,1.09,0,0,1,1.24-1.15h1a1.18,1.18,0,0,1,.93.42,1.48,1.48,0,0,1,.21.88Z"/><polygon class="cls-6" points="378.41 312.13 379.51 312.13 379.51 303.99 378.41 304.65 378.41 312.13"/><rect class="cls-6" x="383.95" y="303.71" width="1.12" height="1.11"/><rect class="cls-6" x="385.55" y="303.71" width="1.12" height="1.11"/><path class="cls-6" d="M412.3,309.48a1.32,1.32,0,0,1-1.45,1.49H409.7v-4.15l-1.07.56V310a1,1,0,0,1-1,1H406v-4.15l-1.08.56V311H389.71c-.93,0-1.44-.58-1.44-1.57v-4.15l-1.12.27v.3H385a2.39,2.39,0,0,0-1.75.63,1.9,1.9,0,0,0-.52,1.44l0,1.25c0,1.66.79,2.61,2.29,2.61h1a2.77,2.77,0,0,0,1.32-.29l.26-.14.19.22a2.14,2.14,0,0,0,1.66.59h21.51c1.66,0,2.5-.92,2.5-2.76v-2.55l-1.08.56Zm-25.15-.12c0,.84-.44,1.25-1.21,1.25h-1.05c-.76,0-1.13-.47-1.13-1.26V308.2A1.1,1.1,0,0,1,385,307h2.17Z"/><path class="cls-6" d="M416,312.26a1.31,1.31,0,0,1-1.46,1.44h-.09l-.25,1.25h.44c1.65,0,2.47-.92,2.47-2.76v-5.38l-1.11.66Z"/><path class="cls-6" d="M429.5,306.63h-.94c-1.54,0-2.32,1-2.32,2.61v.24a1.33,1.33,0,0,1-1.47,1.49h-1v-2a3.36,3.36,0,0,0-1.53-2.8,3.08,3.08,0,0,0-1.68-.45,3.3,3.3,0,0,0-1.41.36l.46,1.1a2.5,2.5,0,0,1,1-.24,2.18,2.18,0,0,1,2.06,2.2V311H418.9l-.27,1.16h6.51a2.25,2.25,0,0,0,1.21-.25l.25-.15.19.2a2.33,2.33,0,0,0,1.77.65h3.23v-3.46c0-1.67-.76-2.49-2.29-2.49m1.21,4.79h-2.22a1.06,1.06,0,0,1-1.16-1.15v-.06c0-.19,0-.61,0-1.24a1.1,1.1,0,0,1,1.24-1.17h1a1.18,1.18,0,0,1,.93.44,1.48,1.48,0,0,1,.21.88Z"/><path class="cls-6" d="M267.23,288.07h1.1l4.2,9.87h-1.37l-1-2.43h-4.93l-1,2.43h-1.32Zm.53,1.51h0l-2.05,4.85h4Z"/><rect class="cls-6" x="273.74" y="287.4" width="1.09" height="10.53"/><polygon class="cls-6" points="281.05 288.07 282.79 288.07 286.14 295.81 286.17 295.81 289.54 288.07 291.24 288.07 291.24 297.94 290.07 297.94 290.07 289.66 290.04 289.66 286.5 297.94 285.79 297.94 282.25 289.66 282.22 289.66 282.22 297.94 281.05 297.94 281.05 288.07"/><path class="cls-6" d="M293.41,292.25a3.16,3.16,0,0,1,1.19-.76,4.25,4.25,0,0,1,1.4-.24,2.78,2.78,0,0,1,2.09.68,2.94,2.94,0,0,1,.64,2.08v2.8c0,.18,0,.38,0,.58s0,.38.07.55h-1.05a3.61,3.61,0,0,1-.06-.5c0-.18,0-.34,0-.48h0a2.5,2.5,0,0,1-.86.82,2.42,2.42,0,0,1-1.29.32,3.56,3.56,0,0,1-.94-.12,2.39,2.39,0,0,1-.77-.37,1.82,1.82,0,0,1-.52-.61,1.72,1.72,0,0,1-.19-.83,1.82,1.82,0,0,1,.42-1.27,2.45,2.45,0,0,1,1-.68,5.23,5.23,0,0,1,1.34-.28q.72-.06,1.32-.06h.42v-.19a1.33,1.33,0,0,0-.43-1.07,1.73,1.73,0,0,0-1.19-.37,3.12,3.12,0,0,0-1,.18,2.41,2.41,0,0,0-.9.53Zm3.15,2.55a3.82,3.82,0,0,0-1.66.3,1,1,0,0,0-.61,1,.93.93,0,0,0,.41.87,1.88,1.88,0,0,0,1,.25,2,2,0,0,0,.83-.16,1.51,1.51,0,0,0,.59-.42,1.93,1.93,0,0,0,.37-.62,2.69,2.69,0,0,0,.14-.76v-.42Z"/><path class="cls-6" d="M300.64,292.25a3.24,3.24,0,0,1,1.19-.76,4.25,4.25,0,0,1,1.4-.24,2.78,2.78,0,0,1,2.09.68A2.94,2.94,0,0,1,306,294v2.8c0,.18,0,.38,0,.58s0,.38.07.55h-1a2.51,2.51,0,0,1-.07-.5V297h0a2.5,2.5,0,0,1-.86.82,2.42,2.42,0,0,1-1.29.32,3.56,3.56,0,0,1-.94-.12,2.24,2.24,0,0,1-.76-.37,1.71,1.71,0,0,1-.72-1.44,1.82,1.82,0,0,1,.42-1.27,2.45,2.45,0,0,1,1-.68,5.23,5.23,0,0,1,1.34-.28q.72-.06,1.32-.06h.42v-.19a1.33,1.33,0,0,0-.43-1.07,1.73,1.73,0,0,0-1.19-.37,3.12,3.12,0,0,0-1,.18,2.41,2.41,0,0,0-.9.53Zm3.15,2.55a3.82,3.82,0,0,0-1.66.3,1,1,0,0,0-.61,1,1,1,0,0,0,.41.87,1.88,1.88,0,0,0,1,.25,1.92,1.92,0,0,0,.83-.16,1.51,1.51,0,0,0,.59-.42,1.93,1.93,0,0,0,.37-.62,2.69,2.69,0,0,0,.14-.76v-.42Z"/><path class="cls-6" d="M308,293c0-.29,0-.57,0-.83s0-.5,0-.71h1c0,.17,0,.35,0,.53s0,.35,0,.54h0a1.62,1.62,0,0,1,.31-.46,2.13,2.13,0,0,1,.48-.4,2.79,2.79,0,0,1,.63-.28,2.57,2.57,0,0,1,.75-.1h.22a.79.79,0,0,1,.22.06l-.07,1.1a1.85,1.85,0,0,0-.58-.08,1.67,1.67,0,0,0-1.46.64,3.11,3.11,0,0,0-.45,1.78v3.18H308Z"/><path class="cls-6" d="M318.43,296.75a3.35,3.35,0,0,1-1.28,1.05,4.07,4.07,0,0,1-1.62.3,3.4,3.4,0,0,1-1.38-.27,3.06,3.06,0,0,1-1-.73,3.1,3.1,0,0,1-.66-1.09,4,4,0,0,1,0-2.72,3.34,3.34,0,0,1,.7-1.09,3.21,3.21,0,0,1,1.06-.7,3.62,3.62,0,0,1,2.59,0,2.68,2.68,0,0,1,1,.67,2.92,2.92,0,0,1,.63,1.07,4.26,4.26,0,0,1,.23,1.44V295H313.4a2.41,2.41,0,0,0,.2.8,2.28,2.28,0,0,0,.46.67,2,2,0,0,0,.65.45,2,2,0,0,0,.82.17,2.54,2.54,0,0,0,1.2-.25,2.66,2.66,0,0,0,.88-.74Zm-.93-2.66a1.87,1.87,0,0,0-.55-1.34,2,2,0,0,0-1.42-.5,2.12,2.12,0,0,0-1.46.5,2.16,2.16,0,0,0-.67,1.34Z"/><path class="cls-6" d="M320.91,292.34h-1.42v-.92h1.42V290a5.29,5.29,0,0,1,.11-1.09,2.4,2.4,0,0,1,.38-.86,1.83,1.83,0,0,1,.72-.56,2.77,2.77,0,0,1,1.1-.2,2.42,2.42,0,0,1,.45,0,1.5,1.5,0,0,1,.39.12l-.15,1a2.29,2.29,0,0,0-.74-.14,1.24,1.24,0,0,0-.66.15.86.86,0,0,0-.35.4,1.62,1.62,0,0,0-.14.62c0,.24,0,.5,0,.78v1.23h1.59v.92H322v5.6h-1.09Z"/><path class="cls-6" d="M332,288.07h1.1l4.2,9.87h-1.37l-1-2.43H330l-1,2.43h-1.32Zm.53,1.51h0l-2,4.85h4Z"/><path class="cls-6" d="M338.42,293c0-.29,0-.57,0-.83s0-.5,0-.71h1c0,.17,0,.35,0,.53s0,.35,0,.54h0a1.91,1.91,0,0,1,.32-.46,2.13,2.13,0,0,1,.48-.4,2.71,2.71,0,0,1,.62-.28,2.68,2.68,0,0,1,.76-.1,2.51,2.51,0,0,1,.88.13,2.33,2.33,0,0,1,.59.32,1.56,1.56,0,0,1,.37.41c.09.14.16.27.22.38a3.07,3.07,0,0,1,.83-.91,2.13,2.13,0,0,1,1.23-.33,3.12,3.12,0,0,1,1.17.19,1.79,1.79,0,0,1,.77.54,2.19,2.19,0,0,1,.41.87,4.33,4.33,0,0,1,.13,1.13v4h-1.09V294a2.84,2.84,0,0,0-.07-.66,1.46,1.46,0,0,0-.25-.57,1.22,1.22,0,0,0-.49-.4,1.61,1.61,0,0,0-.78-.16,1.58,1.58,0,0,0-.65.14,2.07,2.07,0,0,0-.54.39,1.93,1.93,0,0,0-.36.61,2.22,2.22,0,0,0-.13.79v3.76h-1.09v-3.7a3,3,0,0,0-.29-1.53,1.05,1.05,0,0,0-1-.46,2.11,2.11,0,0,0-.91.18,1.61,1.61,0,0,0-.63.52,2.39,2.39,0,0,0-.36.79,4.08,4.08,0,0,0-.12,1v3.18h-1.09Z"/><path class="cls-6" d="M356.11,296.75a3.27,3.27,0,0,1-1.28,1.05,4,4,0,0,1-1.61.3,3.36,3.36,0,0,1-1.38-.27,3,3,0,0,1-1-.73,3.42,3.42,0,0,1-.66-1.09,3.87,3.87,0,0,1-.23-1.33,3.7,3.7,0,0,1,.26-1.39,3.16,3.16,0,0,1,.69-1.09,3.21,3.21,0,0,1,1.06-.7,3.47,3.47,0,0,1,1.34-.25,3.39,3.39,0,0,1,1.25.23,2.68,2.68,0,0,1,1,.67,2.94,2.94,0,0,1,.64,1.07,4.27,4.27,0,0,1,.22,1.44V295h-5.27a2.21,2.21,0,0,0,.21.8,2.08,2.08,0,0,0,.45.67,2.1,2.1,0,0,0,.65.45,2.05,2.05,0,0,0,.83.17,2.52,2.52,0,0,0,1.19-.25,2.66,2.66,0,0,0,.88-.74Zm-.93-2.66a1.9,1.9,0,0,0-.54-1.34,2,2,0,0,0-1.42-.5,2.13,2.13,0,0,0-1.47.5,2.16,2.16,0,0,0-.67,1.34Z"/><path class="cls-6" d="M358,293c0-.29,0-.57,0-.83s0-.5,0-.71h1c0,.17,0,.35,0,.53s0,.35,0,.54h0a1.86,1.86,0,0,1,.31-.46,2.68,2.68,0,0,1,.48-.4,3,3,0,0,1,.63-.28,2.57,2.57,0,0,1,.75-.1h.22a1,1,0,0,1,.23.06l-.07,1.1a1.91,1.91,0,0,0-.59-.08,1.64,1.64,0,0,0-1.45.64,3,3,0,0,0-.46,1.78v3.18H358Z"/><path class="cls-6" d="M362.79,288.87a.79.79,0,1,1,1.58,0,.79.79,0,1,1-1.58,0m.25,2.55h1.08v6.52H363Z"/><path class="cls-6" d="M370.92,293.05a2.22,2.22,0,0,0-.75-.61,2.18,2.18,0,0,0-.89-.19,2.42,2.42,0,0,0-1,.19,1.91,1.91,0,0,0-.69.52,2.33,2.33,0,0,0-.41.78,2.85,2.85,0,0,0-.14.94,2.65,2.65,0,0,0,.16.94,2.34,2.34,0,0,0,.44.77,2,2,0,0,0,.69.52,2.06,2.06,0,0,0,.91.19,1.93,1.93,0,0,0,1.66-.81l.8.77a2.7,2.7,0,0,1-1.11.79,3.85,3.85,0,0,1-2.73,0,2.91,2.91,0,0,1-1.07-.71,3.25,3.25,0,0,1-.68-1.08,4.06,4.06,0,0,1,0-2.75,3.16,3.16,0,0,1,1.76-1.8,3.56,3.56,0,0,1,1.37-.26,3.7,3.7,0,0,1,1.37.25,3.14,3.14,0,0,1,1.14.78Z"/><path class="cls-6" d="M372.91,292.25a3.27,3.27,0,0,1,1.2-.76,4.16,4.16,0,0,1,1.4-.24,2.75,2.75,0,0,1,2.08.68,3,3,0,0,1,.65,2.08v2.8c0,.18,0,.38,0,.58s.05.38.07.55h-1a2,2,0,0,1-.06-.5c0-.18,0-.34,0-.48h0a2.42,2.42,0,0,1-.86.82,2.36,2.36,0,0,1-1.28.32,3.51,3.51,0,0,1-.94-.12,2.3,2.3,0,0,1-.77-.37,1.78,1.78,0,0,1-.72-1.44,1.82,1.82,0,0,1,.42-1.27,2.48,2.48,0,0,1,1-.68,5.15,5.15,0,0,1,1.33-.28q.72-.06,1.32-.06h.42v-.19a1.3,1.3,0,0,0-.43-1.07,1.73,1.73,0,0,0-1.19-.37,3,3,0,0,0-1,.18,2.41,2.41,0,0,0-.9.53Zm3.15,2.55a3.85,3.85,0,0,0-1.66.3,1,1,0,0,0-.61,1,1,1,0,0,0,.41.87,1.94,1.94,0,0,0,1,.25,2,2,0,0,0,.83-.16,1.67,1.67,0,0,0,.59-.42A1.74,1.74,0,0,0,377,296a2.69,2.69,0,0,0,.14-.76v-.42Z"/><path class="cls-6" d="M380.23,293c0-.29,0-.57,0-.83s0-.5,0-.71h1c0,.17,0,.35,0,.53s0,.35,0,.54h0a1.86,1.86,0,0,1,.31-.46,2.68,2.68,0,0,1,.48-.4,3,3,0,0,1,.63-.28,2.57,2.57,0,0,1,.75-.1,3.06,3.06,0,0,1,1.11.19,2.2,2.2,0,0,1,.77.55,2.14,2.14,0,0,1,.46.84,4.09,4.09,0,0,1,.14,1.08v4h-1.08V294a2,2,0,0,0-.37-1.29,1.3,1.3,0,0,0-1.12-.48,2.16,2.16,0,0,0-.92.18,1.65,1.65,0,0,0-.62.52,2.22,2.22,0,0,0-.37.79,4.62,4.62,0,0,0-.11,1v3.18h-1.09Z"/><path class="cls-6" d="M396.72,289.82a1.63,1.63,0,0,0-.78-.69,2.36,2.36,0,0,0-1-.22,2.86,2.86,0,0,0-.77.1,2.18,2.18,0,0,0-.68.29,1.42,1.42,0,0,0-.48.52,1.49,1.49,0,0,0-.18.75,1.55,1.55,0,0,0,.11.59,1.25,1.25,0,0,0,.34.47,2.52,2.52,0,0,0,.64.39,9,9,0,0,0,1,.36c.38.12.75.25,1.1.39a3.77,3.77,0,0,1,.95.53,2.24,2.24,0,0,1,.66.8,2.67,2.67,0,0,1,.24,1.2,2.76,2.76,0,0,1-.29,1.29,2.66,2.66,0,0,1-.77.89,3.26,3.26,0,0,1-1.11.53,4.69,4.69,0,0,1-1.3.18,5,5,0,0,1-.86-.08,4,4,0,0,1-.83-.24,3.16,3.16,0,0,1-.74-.41,2.29,2.29,0,0,1-.6-.64l1-.82a2,2,0,0,0,.89.82,2.66,2.66,0,0,0,1.21.28,2.85,2.85,0,0,0,.76-.11,2,2,0,0,0,.69-.33,1.69,1.69,0,0,0,.5-.53,1.41,1.41,0,0,0,.2-.74,1.49,1.49,0,0,0-.16-.75,1.37,1.37,0,0,0-.47-.49,3.41,3.41,0,0,0-.81-.38l-1.14-.39a7.26,7.26,0,0,1-1-.38,3.15,3.15,0,0,1-.78-.53,2.17,2.17,0,0,1-.51-.75,2.62,2.62,0,0,1-.19-1.05,2.55,2.55,0,0,1,.28-1.24,2.48,2.48,0,0,1,.75-.89,3.59,3.59,0,0,1,1.07-.54,4.54,4.54,0,0,1,2.78.08,2.93,2.93,0,0,1,1.23.9Z"/><path class="cls-6" d="M404.23,293.05a2.22,2.22,0,0,0-.75-.61,2.18,2.18,0,0,0-.89-.19,2.38,2.38,0,0,0-1,.19,1.91,1.91,0,0,0-.69.52,2.33,2.33,0,0,0-.41.78,2.85,2.85,0,0,0-.14.94,2.65,2.65,0,0,0,.16.94,2.34,2.34,0,0,0,.44.77,2,2,0,0,0,.69.52,2.06,2.06,0,0,0,.91.19,1.93,1.93,0,0,0,1.66-.81l.8.77a2.7,2.7,0,0,1-1.11.79,3.85,3.85,0,0,1-2.73,0,2.91,2.91,0,0,1-1.07-.71,3.25,3.25,0,0,1-.68-1.08,4.06,4.06,0,0,1,0-2.75,3.16,3.16,0,0,1,1.76-1.8,3.56,3.56,0,0,1,1.37-.26,3.7,3.7,0,0,1,1.37.25,3.14,3.14,0,0,1,1.14.78Z"/><path class="cls-6" d="M406.31,287.4h1.08v4.92h0a2.07,2.07,0,0,1,.31-.38,2,2,0,0,1,.46-.34,3,3,0,0,1,.61-.25,2.34,2.34,0,0,1,.71-.1,2.86,2.86,0,0,1,1.11.2,2.06,2.06,0,0,1,.77.54,2,2,0,0,1,.45.84,3.71,3.71,0,0,1,.15,1.08v4H410.9V294a2.06,2.06,0,0,0-.36-1.29,1.32,1.32,0,0,0-1.13-.48,2.14,2.14,0,0,0-.91.18,1.87,1.87,0,0,0-.63.52,2.39,2.39,0,0,0-.36.79,4.08,4.08,0,0,0-.12,1v3.18h-1.08Z"/><path class="cls-6" d="M413.68,294.68a3.53,3.53,0,0,1,.26-1.4,3.49,3.49,0,0,1,.73-1.08,3.19,3.19,0,0,1,1.1-.7,4,4,0,0,1,2.78,0,3.19,3.19,0,0,1,1.1.7,3.49,3.49,0,0,1,.73,1.08,3.71,3.71,0,0,1,.26,1.4,3.66,3.66,0,0,1-.26,1.39,3.27,3.27,0,0,1-.73,1.08,3,3,0,0,1-1.1.7,4,4,0,0,1-2.78,0,3,3,0,0,1-1.1-.7,3.27,3.27,0,0,1-.73-1.08,3.48,3.48,0,0,1-.26-1.39m1.17,0a2.67,2.67,0,0,0,.16.95,2.23,2.23,0,0,0,.46.77,2.19,2.19,0,0,0,.73.51,2.32,2.32,0,0,0,1,.19,2.24,2.24,0,0,0,.95-.19,2.13,2.13,0,0,0,.74-.51,2.39,2.39,0,0,0,.46-.77,2.67,2.67,0,0,0,.16-.95,2.73,2.73,0,0,0-.16-1,2.34,2.34,0,0,0-.46-.76,2.3,2.3,0,0,0-.74-.52,2.4,2.4,0,0,0-.95-.19,2.49,2.49,0,0,0-1,.19,2.37,2.37,0,0,0-.73.52,2.18,2.18,0,0,0-.46.76,2.73,2.73,0,0,0-.16,1"/><path class="cls-6" d="M422,294.68a3.53,3.53,0,0,1,.27-1.4A3.15,3.15,0,0,1,424,291.5a4,4,0,0,1,2.79,0,3.15,3.15,0,0,1,1.82,1.78,3.53,3.53,0,0,1,.27,1.4,3.48,3.48,0,0,1-.27,1.39,3.1,3.1,0,0,1-.72,1.08,3.14,3.14,0,0,1-1.1.7,4,4,0,0,1-2.79,0,3.14,3.14,0,0,1-1.1-.7,3.1,3.1,0,0,1-.72-1.08,3.48,3.48,0,0,1-.27-1.39m1.17,0a2.91,2.91,0,0,0,.16.95,2.25,2.25,0,0,0,.47.77,2.09,2.09,0,0,0,.73.51,2.5,2.5,0,0,0,1.91,0,2.09,2.09,0,0,0,.73-.51,2.42,2.42,0,0,0,.47-.77,2.91,2.91,0,0,0,.16-.95,3,3,0,0,0-.16-1,2.37,2.37,0,0,0-.47-.76,2.26,2.26,0,0,0-.73-.52,2.5,2.5,0,0,0-1.91,0,2.26,2.26,0,0,0-.73.52,2.21,2.21,0,0,0-.47.76,3,3,0,0,0-.16,1"/><rect class="cls-6" x="430.7" y="287.4" width="1.09" height="10.53"/><rect class="cls-6" x="262.89" y="326.18" width="44.47" height="0.66"/><rect class="cls-6" x="387.32" y="326.18" width="44.47" height="0.66"/><path class="cls-6" d="M312.47,327a1.82,1.82,0,0,0,1.63.92c.64,0,1.3-.39,1.3-1,0-1.55-3.35-.47-3.35-2.62a1.74,1.74,0,0,1,1.93-1.62,2.06,2.06,0,0,1,2,1.06l-.66.39a1.38,1.38,0,0,0-1.33-.79c-.53,0-1.2.32-1.2.9,0,1.53,3.35.34,3.35,2.63a1.82,1.82,0,0,1-2,1.74,2.47,2.47,0,0,1-2.27-1.15Z"/><path class="cls-6" d="M318.14,320.05a.55.55,0,0,1,.55.55.55.55,0,0,1-1.1,0,.55.55,0,0,1,.55-.55m-.37,2.79h.73v5.64h-.73Z"/><path class="cls-6" d="M320.58,324.42c0-.41-.06-1.29-.06-1.58h.73a8.86,8.86,0,0,0,.05,1h0a2.09,2.09,0,0,1,1.93-1.14c1.75,0,2.14,1.2,2.14,2.43v3.36h-.73v-3.32c0-.92-.25-1.81-1.41-1.81s-2,.76-2,2.31v2.82h-.73Z"/><path class="cls-6" d="M332.09,327.65a2.61,2.61,0,0,1-2.08,1,3,3,0,0,1,0-5.93,2.74,2.74,0,0,1,2.1,1l-.58.44a2,2,0,0,0-1.52-.76,2.31,2.31,0,0,0,0,4.61,2,2,0,0,0,1.52-.78Z"/><path class="cls-6" d="M338.21,327.41a2.93,2.93,0,0,1-5.3-1.77,2.81,2.81,0,0,1,2.82-2.95,2.56,2.56,0,0,1,2.65,2.64v.51h-4.73a2.1,2.1,0,0,0,2.13,2.12,2.25,2.25,0,0,0,1.89-1Zm-.56-2.23a1.9,1.9,0,0,0-1.95-1.83,2.09,2.09,0,0,0-2.05,1.83Z"/><polygon class="cls-6" points="343.53 320.79 343.52 320.79 341.96 322.07 341.51 321.51 343.64 319.76 344.26 319.76 344.26 328.4 343.53 328.4 343.53 320.79"/><path class="cls-6" d="M351,324.59h0a2.21,2.21,0,0,1-1.28.37A2.59,2.59,0,0,1,347,322.3a2.84,2.84,0,0,1,5.67,0,4.33,4.33,0,0,1-.8,2.21l-2.34,3.89h-.93Zm.9-2.29a2,2,0,1,0-4.05,0,2,2,0,1,0,4.05,0"/><path class="cls-6" d="M356.21,319.61a2.23,2.23,0,0,1,2.37,2.25,2,2,0,0,1-1.38,1.9v0a2.16,2.16,0,0,1,1.68,2.22,2.68,2.68,0,0,1-5.35,0,2.16,2.16,0,0,1,1.69-2.22v0a2,2,0,0,1-1.38-1.9,2.23,2.23,0,0,1,2.37-2.25m0,8.28a1.89,1.89,0,1,0-1.87-1.89,1.82,1.82,0,0,0,1.87,1.89m0-4.44a1.54,1.54,0,0,0,1.56-1.59,1.57,1.57,0,1,0-3.13,0,1.55,1.55,0,0,0,1.57,1.59"/><polygon class="cls-6" points="364.79 320.42 361.34 328.4 360.52 328.4 364.03 320.42 359.88 320.42 359.88 319.76 364.79 319.76 364.79 320.42"/><path class="cls-6" d="M374.72,328.15c0,.21-.22.4-.61.4a1.55,1.55,0,0,1-1.48-.85,3.08,3.08,0,0,1-2.54.89,8.29,8.29,0,0,1-1.62-.17l.08-.55.06-.05a12,12,0,0,0,1.52.12,3.09,3.09,0,0,0,2.23-.74c-.44-.88-1.2-2.33-1.8-3.4l.47-.5h.09c.47.95,1.33,2.75,1.83,3.68.41.76.74.94,1.42.94.26,0,.35.09.35.23M371,321.57l-.73-.52.45-.68.75.5Z"/><path class="cls-6" d="M378.77,328.15c0,.21-.2.4-.59.4a2.9,2.9,0,0,1-1.92-.68,2.13,2.13,0,0,1-1.79.68h-.35l.26-.63h.26a1.61,1.61,0,0,0,1.2-.39,9.72,9.72,0,0,0,.73-2.2l.62-.15.1.05a11,11,0,0,1-.69,2.12,2.75,2.75,0,0,0,1.84.57c.26,0,.33.09.33.23m-1.9-4.69-.74-.51.45-.69.75.51Z"/><path class="cls-6" d="M383.87,327.58a1,1,0,0,1-1.18,1.11,4.93,4.93,0,0,1-2.63-1c-.42.69-.85.9-1.88.9l.26-.63c.73,0,.89-.25,1.27-.92s1-2.56,2.13-2.56,2,1.74,2,3.14m-2.06-2.5c-.64,0-1.07,1.21-1.45,2a4.58,4.58,0,0,0,2.15.93c.4,0,.62-.08.74-.25.12-1-.68-2.72-1.44-2.72"/></g></g></svg>