<svg id="Layer_1" data-name="Layer 1" xmlns="http://www.w3.org/2000/svg" xmlns:xlink="http://www.w3.org/1999/xlink" viewBox="0 0 595.28 462.26"><defs><style>.cls-1{fill:none;}.cls-2{clip-path:url(#clip-path);}.cls-3{clip-path:url(#clip-path-2);}.cls-4{fill:url(#linear-gradient);}.cls-5{clip-path:url(#clip-path-3);}.cls-6{fill:#292663;}.cls-7{fill:#231f20;}</style><clipPath id="clip-path"><rect class="cls-1" width="595.28" height="462.26"/></clipPath><clipPath id="clip-path-2"><path class="cls-1" d="M286,196.23c-.65,1.5,1,3.65,3.62,4.8s5.34.88,6-.62-1-3.65-3.62-4.81a8.14,8.14,0,0,0-3.18-.71c-1.35,0-2.43.46-2.81,1.34m36-34.43,9.91,11c7.1,7.85,18.49-6.39,12.62-12.76l-10.65-11.56a5.57,5.57,0,0,0-4.21-1.9c-6.13,0-13,9.32-7.67,15.25m-49.34,26.4c7.65-7.56-12.18-19.58-18.54-42.75A53.45,53.45,0,0,1,252.66,125a56.17,56.17,0,0,0,20,63.21m-6.23-85.31A45.39,45.39,0,0,0,261.35,132q4.14,26.13,38.37,54.76c6.72,5.63,16.31-3.57,9.53-10.54q-16.81-17.34-25.73-31.83-22.57-36.67,5.58-55.08a56.37,56.37,0,0,0-22.62,13.58M305.6,86.74q-33.44,11.37-8.22,45.6a152.85,152.85,0,0,0,12.36,14.54c7.22,7.61,18.31-4.52,11.95-11.9q-38.64-44.92-2.25-46.57a56,56,0,0,0-13.58-1.67h-.26"/></clipPath><linearGradient id="linear-gradient" x1="3019.25" y1="-991.8" x2="3020.25" y2="-991.8" gradientTransform="translate(-179304.96 59130.96) scale(59.47)" gradientUnits="userSpaceOnUse"><stop offset="0" stop-color="#0588ca"/><stop offset="1" stop-color="#3cbcb8"/></linearGradient><clipPath id="clip-path-3"><rect class="cls-1" width="595.28" height="462.26"/></clipPath></defs><g class="cls-2"><g class="cls-3"><rect class="cls-4" x="224.06" y="68.77" width="147.25" height="151.39" transform="translate(-33 155.95) rotate(-27.88)"/></g><g class="cls-5"><polygon class="cls-6" points="211.22 275.47 220.01 213.61 220.96 213.61 246.11 264.36 271.1 213.61 272.05 213.61 280.92 275.47 274.8 275.47 268.77 231.19 246.89 275.47 245.34 275.47 223.2 230.84 217.17 275.47 211.22 275.47"/><path class="cls-6" d="M315.05,213.61l27.75,61.86h-6.38l-9.36-20.29H301.39l-9.27,20.29h-6.63l28.07-61.86Zm-.74,13.17-10.19,22.36h20.29Z"/><path class="cls-6" d="M345.57,263l5-3q5.25,9.69,12.23,9.69a11.17,11.17,0,0,0,7.71-2.87,9.23,9.23,0,0,0,3.2-7.14A11,11,0,0,0,371,252.9a50,50,0,0,0-9-8.16,72.37,72.37,0,0,1-8.46-7.06,15.72,15.72,0,0,1-3.2-5,15,15,0,0,1-1-5.38,13.07,13.07,0,0,1,4.06-9.72,14,14,0,0,1,10.22-4,14.79,14.79,0,0,1,8.45,2.42,27.71,27.71,0,0,1,7,7.18l-4.76,3.69a29.72,29.72,0,0,0-4.76-5.17,9.13,9.13,0,0,0-6-2.05,8.12,8.12,0,0,0-5.82,2.13,7.13,7.13,0,0,0-2.26,5.42,8.63,8.63,0,0,0,2,5.7q2,2.43,9.11,7.67t10.34,9.69a15.58,15.58,0,0,1,3.24,9.35,14.84,14.84,0,0,1-5,11.12,16.22,16.22,0,0,1-11.53,4.72q-11.58,0-18.06-12.47"/></g></g><path class="cls-7" d="M54.78,36.09c-1.57.09-2.26.49-2.37,1.58a40.56,40.56,0,0,0-.16,4.2V44c0,3.13-.51,5.43-2.09,7.06a6.93,6.93,0,0,1-5,1.87,7.22,7.22,0,0,1-4.46-1.29c-1.67-1.23-2.47-3.24-2.47-6.43V38.84c0-2.44-.23-2.57-2.37-2.75v-.8h7.27v.8c-2.12.12-2.36.29-2.36,2.75v5.79c0,4.36,1.83,6.76,5.13,6.76,3.84,0,5.17-3.08,5.17-7.49v-2a25.93,25.93,0,0,0-.22-4.28c-.15-1-.76-1.38-2.63-1.5v-.8h6.54Z"/><path class="cls-7" d="M62.76,52.53v-.71c1.54-.16,1.72-.38,1.72-2.25V45.26c0-1.85-.74-2.95-2.39-2.95a4.82,4.82,0,0,0-2.83,1.3v6.13c0,1.81.15,1.92,1.71,2.08v.71H55v-.71c1.8-.22,1.94-.34,1.94-2.12V44.37c0-1.72-.18-1.83-1.59-2.08v-.67a18.43,18.43,0,0,0,3.93-1V42.7c.55-.39,1.13-.81,1.82-1.26a4,4,0,0,1,2.22-.78c2.14,0,3.5,1.5,3.5,4.13v5c0,1.81.17,1.88,1.73,2.08v.71Z"/><path class="cls-7" d="M69.92,52.53v-.71c1.69-.16,1.89-.32,1.89-2.17V44.32c0-1.67-.09-1.8-1.69-2.07v-.63a20.65,20.65,0,0,0,4-1v9c0,1.83.18,2,1.9,2.17v.71ZM71.34,37a1.47,1.47,0,0,1,1.48-1.49A1.42,1.42,0,0,1,74.24,37a1.44,1.44,0,0,1-1.45,1.43A1.48,1.48,0,0,1,71.34,37Z"/><path class="cls-7" d="M79.19,41v-.59a6.87,6.87,0,0,1,.29-2.14,6.36,6.36,0,0,1,2.13-3.12,5.37,5.37,0,0,1,3-1.43,3,3,0,0,1,2.18.9.85.85,0,0,1,.14,1,1.82,1.82,0,0,1-.54.63.51.51,0,0,1-.78,0,3.33,3.33,0,0,0-2.21-1,1.5,1.5,0,0,0-1.38.79c-.31.48-.58,1.71-.52,3.94V41H84.7a1,1,0,0,1-.29,1.11h-2.9v7.5c0,2,.21,2,2.32,2.27v.69H77.26v-.71c1.71-.16,1.93-.32,1.93-2.06V42.07H77.28l-.12-.31.76-.8Z"/><path class="cls-7" d="M91.49,40.66a5.86,5.86,0,0,1,6,5.87,6,6,0,0,1-6,6.31A5.84,5.84,0,0,1,85.37,47a6.21,6.21,0,0,1,6.11-6.36Zm-.34.88c-1.56,0-3,1.58-3,4.57,0,3.36,1.45,5.8,3.63,5.8,1.55,0,3-1,3-4.76,0-3.18-1.27-5.61-3.53-5.61Z"/><path class="cls-7" d="M103.24,43.52c.89-1.45,2-2.86,3.25-2.86A1.52,1.52,0,0,1,108.12,42a1.58,1.58,0,0,1-.94,1.43.69.69,0,0,1-.73-.07,1.6,1.6,0,0,0-1.18-.55c-.69,0-1.5.78-2.08,2.19v4.74c0,1.74.12,1.9,2.23,2.06v.71H99v-.71c1.63-.16,1.87-.32,1.87-2.06v-5.5c0-1.68-.15-1.79-1.65-2v-.6a17.45,17.45,0,0,0,4-1.08v3Z"/><path class="cls-7" d="M124.29,52.53v-.71c1.5-.16,1.81-.29,1.81-2.17V45.37c0-2-.76-3.06-2.32-3.06a4.89,4.89,0,0,0-2.86,1.32,10.34,10.34,0,0,1,.07,1.1v5.1c0,1.67.25,1.83,1.72,2v.71h-5.93v-.71c1.62-.16,1.85-.29,1.85-2V45.31c0-2-.74-3-2.28-3a5,5,0,0,0-2.83,1.3v6.18c0,1.71.24,1.87,1.47,2v.71h-5.8v-.71c1.74-.16,2-.32,2-2.06V44.37c0-1.68-.09-1.85-1.63-2.08v-.67a18.41,18.41,0,0,0,3.93-1v2.17c.58-.38,1.16-.87,2-1.36a4.16,4.16,0,0,1,2.23-.72,3.28,3.28,0,0,1,3,2.17c.8-.58,1.56-1.07,2.21-1.5a3.81,3.81,0,0,1,2-.67c2.14,0,3.52,1.46,3.52,4.13v5c0,1.76.18,1.83,1.74,2v.71Z"/></svg>