<svg id="Layer_1" data-name="Layer 1" xmlns="http://www.w3.org/2000/svg" xmlns:xlink="http://www.w3.org/1999/xlink" viewBox="0 0 595.28 462.26"><defs><style>.cls-1{fill:none;}.cls-2{clip-path:url(#clip-path);}.cls-3{fill:#231f20;}.cls-4{clip-path:url(#clip-path-2);}.cls-5{fill:url(#linear-gradient);}.cls-6{clip-path:url(#clip-path-3);}.cls-7{fill:#fff;}</style><clipPath id="clip-path"><rect class="cls-1" width="595.28" height="462.26"/></clipPath><clipPath id="clip-path-2"><path class="cls-1" d="M195.48,310c-.58,1.32.85,3.21,3.19,4.23s4.7.77,5.27-.55-.85-3.22-3.19-4.24a7.18,7.18,0,0,0-2.79-.62,2.5,2.5,0,0,0-2.48,1.18m31.73-30.32,8.73,9.66c6.25,6.91,16.28-5.63,11.11-11.24l-9.38-10.18a4.91,4.91,0,0,0-3.7-1.67c-5.41,0-11.49,8.2-6.76,13.43m-43.46,23.24c6.74-6.65-10.72-17.24-16.32-37.65a46.77,46.77,0,0,1-1.33-18,49.45,49.45,0,0,0,17.65,55.66m-5.49-75.13a40.06,40.06,0,0,0-4.51,25.64q3.65,23,33.79,48.22c5.92,5,14.36-3.13,8.4-9.28q-14.82-15.27-22.67-28Q173.4,232,198.19,215.82a49.73,49.73,0,0,0-19.93,12m34.46-14.22q-29.44,10-7.24,40.16a137,137,0,0,0,10.89,12.81c6.36,6.7,16.12-4,10.52-10.49q-34-39.56-2-41a49.56,49.56,0,0,0-12-1.47h-.23"/></clipPath><linearGradient id="linear-gradient" x1="3614.17" y1="-520.78" x2="3615.17" y2="-520.78" gradientTransform="translate(-189133.33 27542.56) scale(52.38)" gradientUnits="userSpaceOnUse"><stop offset="0" stop-color="#0588ca"/><stop offset="1" stop-color="#3cbcb8"/></linearGradient><clipPath id="clip-path-3"><rect class="cls-1" width="595.28" height="462.26"/></clipPath></defs><g class="cls-2"><rect class="cls-3" width="595.28" height="462.26"/><g class="cls-4"><rect class="cls-5" x="140.91" y="197.73" width="129.69" height="133.33" transform="translate(-99.75 126.88) rotate(-27.88)"/></g><g class="cls-6"><polygon class="cls-7" points="262.86 275.47 271.65 213.61 272.6 213.61 297.75 264.36 322.74 213.61 323.68 213.61 332.56 275.47 326.44 275.47 320.41 231.19 298.53 275.47 296.98 275.47 274.84 230.84 268.81 275.47 262.86 275.47"/><path class="cls-7" d="M366.69,213.61l27.74,61.86h-6.37l-9.36-20.29H353l-9.28,20.29h-6.62l28.07-61.86ZM366,226.78l-10.19,22.36h20.29Z"/><path class="cls-7" d="M397.21,263l5-3q5.25,9.69,12.23,9.69a11.17,11.17,0,0,0,7.71-2.87,9.23,9.23,0,0,0,3.2-7.14,11,11,0,0,0-2.71-6.82,50,50,0,0,0-9-8.16,72.37,72.37,0,0,1-8.46-7.06,15.72,15.72,0,0,1-3.2-5,15,15,0,0,1-1-5.38,13.07,13.07,0,0,1,4.06-9.72,14,14,0,0,1,10.22-4,14.79,14.79,0,0,1,8.45,2.42,27.53,27.53,0,0,1,7,7.18l-4.75,3.69a29.72,29.72,0,0,0-4.76-5.17,9.13,9.13,0,0,0-6-2.05,8.12,8.12,0,0,0-5.82,2.13,7.13,7.13,0,0,0-2.26,5.42,8.63,8.63,0,0,0,2,5.7q2,2.43,9.11,7.67t10.34,9.69a15.58,15.58,0,0,1,3.24,9.35,14.84,14.84,0,0,1-5,11.12,16.22,16.22,0,0,1-11.53,4.72q-11.58,0-18.06-12.47"/><rect class="cls-7" x="264.12" y="303.71" width="1.12" height="1.11"/><rect class="cls-7" x="265.72" y="303.71" width="1.12" height="1.11"/><rect class="cls-7" x="271.9" y="313.13" width="1.12" height="1.11"/><rect class="cls-7" x="270.3" y="313.13" width="1.12" height="1.11"/><rect class="cls-7" x="290.59" y="313.13" width="1.12" height="1.11"/><path class="cls-7" d="M293.1,309.54a1.3,1.3,0,0,1-1.48,1.43h-1.85v-1a3.79,3.79,0,0,0-1-2.53,2.67,2.67,0,0,0-1.83-1l-.54-.06,1.44-2.62h-1.39l-2,3.55,1,.81a2.37,2.37,0,0,1,1-.31,2.17,2.17,0,0,1,2.08,2.38V311H272.82l.13-.45a4.47,4.47,0,0,0,.14-1.15v-2.69l-1.08.65v2.21a1.31,1.31,0,0,1-1.48,1.43h-.65c-.93,0-1.44-.58-1.44-1.57v-4.15l-1.12.27v.3h-2.17a2.39,2.39,0,0,0-1.75.63,1.9,1.9,0,0,0-.53,1.44v1.25c0,1.66.79,2.61,2.29,2.61h1a2.77,2.77,0,0,0,1.32-.29l.26-.14.19.22a2.14,2.14,0,0,0,1.66.59h22a2.32,2.32,0,0,0,2.6-2.65v-2.8l-1.08.65Zm-25.78-.18c0,.84-.44,1.25-1.21,1.25h-1.05c-.76,0-1.13-.47-1.13-1.26V308.2a1.1,1.1,0,0,1,1.22-1.23h2.17Z"/><rect class="cls-7" x="292.19" y="313.13" width="1.12" height="1.11"/><path class="cls-7" d="M303.53,306.63h-.94c-1.54,0-2.32,1-2.32,2.61v.24A1.33,1.33,0,0,1,298.8,311h-.94v-4.26l-1.1.65v4.79a1.32,1.32,0,0,1-1.47,1.45h-.09l-.25,1.24h.33a2.27,2.27,0,0,0,2.57-2.38l0-.33h1.29a2.25,2.25,0,0,0,1.21-.25l.25-.15.19.2a2.33,2.33,0,0,0,1.77.65h3.23v-3.46c0-1.67-.76-2.49-2.29-2.49m1.21,4.79h-2.22a1.06,1.06,0,0,1-1.16-1.15v-.06c0-.19,0-.61,0-1.24a1.1,1.1,0,0,1,1.24-1.17h1a1.18,1.18,0,0,1,.93.44,1.48,1.48,0,0,1,.21.88Z"/><path class="cls-7" d="M310.15,304.79h-.85a.69.69,0,1,1,0-1.37.8.8,0,0,1,.44.15l.26-.3a1.05,1.05,0,0,0-.77-.32,1.12,1.12,0,0,0-1.11,1.13,1,1,0,0,0,.14.57.61.61,0,0,0,.07.14h-.58v.58h2.4Z"/><path class="cls-7" d="M312.14,309.54a1.28,1.28,0,0,1-1.21,1.42l-.33,0-1.1-5.05-1.07.7.94,4.33h-1.71l-.27,1.16h3.34c1.65,0,2.47-.92,2.47-2.76v-5.28l-1.06.65Z"/><polygon class="cls-7" points="314.77 312.13 315.88 312.13 315.88 303.99 314.77 304.65 314.77 312.13"/><path class="cls-7" d="M327.94,306a4.67,4.67,0,0,0-1.35.17,2.29,2.29,0,0,0-1.39,1.65,7.24,7.24,0,0,0-.13,1.54,7.76,7.76,0,0,0,.23,1.64h-3.67a1.33,1.33,0,0,1-1.45-1.48c0-1.43.36-1.8,1.35-1.87l.19-1.12h-.27c-1.59,0-2.39.89-2.39,2.68a3.61,3.61,0,0,0,.59,2.23,2.41,2.41,0,0,0,2,.72h8.9V308.7c0-1.81-.88-2.73-2.59-2.73m1.47,5h-1.79a1.36,1.36,0,0,1-1.43-1.56v-.72a1.33,1.33,0,0,1,1.48-1.48h.27a1.33,1.33,0,0,1,1.47,1.49Z"/><rect class="cls-7" x="327.56" y="303.86" width="1.12" height="1.11"/><path class="cls-7" d="M333.1,312.26a1.32,1.32,0,0,1-1.47,1.44h-.09L331.3,315h.44c1.64,0,2.47-.92,2.47-2.76v-5.38l-1.11.66Z"/><path class="cls-7" d="M375.73,309.54a1.32,1.32,0,0,1-1.47,1.43H374a1.33,1.33,0,0,1-1.46-1.51v-.34c0-1.65-.76-2.48-2.29-2.48h-.94c-1.53,0-2.31,1-2.31,2.6v.24a1.32,1.32,0,0,1-1.45,1.49h-3.79l.74-.62a4.69,4.69,0,0,0,1-1.05c.14-.2.22-.34.26-.4a.87.87,0,0,0,0-.13A2.86,2.86,0,0,0,364,308c0-.86-.53-1.46-1.58-1.8a5.84,5.84,0,0,0-1.66-.23,6.19,6.19,0,0,0-3.1.87,12.06,12.06,0,0,0-.27,1.52,26,26,0,0,1,2.09,2l.52.59H338.33a1.32,1.32,0,0,1-1.47-1.43v-4.9l-1.08-.65v5.38c0,1.84.82,2.76,2.47,2.76h19.86a5.75,5.75,0,0,0,2.65-.62l.17.12a3.68,3.68,0,0,0,2.1.5h2.89a2.41,2.41,0,0,0,1.21-.24l.25-.16.19.21a2.31,2.31,0,0,0,1.76.64h3.23v-.75l.47.16.45.08c.14,0,.36,0,.6,0h.39c1.56-.05,2.34-1,2.34-2.75V304l-1.08.65Zm-14.9,1-.2-.28a9,9,0,0,0-2-2.19l-.4-.29.41-.29a3.81,3.81,0,0,1,2.17-.6,1.89,1.89,0,0,1,1.66.62,1.27,1.27,0,0,1,.26.7,2.08,2.08,0,0,1-.87,1.66,7.3,7.3,0,0,1-1,.67m10.64.89h-2.21a1.05,1.05,0,0,1-1.16-1.14v-.07c0-.19,0-.6,0-1.25a1.09,1.09,0,0,1,1.24-1.15h1a1.16,1.16,0,0,1,.92.42,1.41,1.41,0,0,1,.21.88Z"/><polygon class="cls-7" points="378.38 312.13 379.49 312.13 379.49 303.99 378.38 304.65 378.38 312.13"/><rect class="cls-7" x="383.93" y="303.71" width="1.12" height="1.11"/><rect class="cls-7" x="385.52" y="303.71" width="1.12" height="1.11"/><path class="cls-7" d="M412.27,309.48a1.32,1.32,0,0,1-1.45,1.49h-1.15v-4.15l-1.06.56V310a1,1,0,0,1-1,1H406v-4.15l-1.08.56V311H389.68a1.37,1.37,0,0,1-1.44-1.57v-4.15l-1.12.27v.3H385a2.36,2.36,0,0,0-1.75.63,1.86,1.86,0,0,0-.53,1.44v1.25c0,1.66.78,2.61,2.29,2.61h1a2.78,2.78,0,0,0,1.33-.29l.25-.14.2.22a2.11,2.11,0,0,0,1.66.59h21.51c1.66,0,2.5-.92,2.5-2.76v-2.55l-1.09.56Zm-25.15-.12c0,.84-.44,1.25-1.21,1.25h-1c-.76,0-1.14-.47-1.14-1.26V308.2A1.1,1.1,0,0,1,385,307h2.16Z"/><path class="cls-7" d="M415.93,312.26a1.32,1.32,0,0,1-1.47,1.44h-.09l-.24,1.25h.43c1.65,0,2.48-.92,2.48-2.76v-5.38l-1.11.66Z"/><path class="cls-7" d="M429.47,306.63h-.94c-1.53,0-2.32,1-2.32,2.61v.24a1.33,1.33,0,0,1-1.47,1.49h-1v-2a3.36,3.36,0,0,0-1.53-2.8,3.07,3.07,0,0,0-1.67-.45,3.34,3.34,0,0,0-1.42.36l.46,1.1a2.5,2.5,0,0,1,1-.24,2.18,2.18,0,0,1,2.06,2.2V311h-3.76l-.27,1.16h6.52a2.3,2.3,0,0,0,1.21-.25l.24-.15.19.2a2.34,2.34,0,0,0,1.77.65h3.23v-3.46c0-1.67-.76-2.49-2.29-2.49m1.21,4.79h-2.22a1.06,1.06,0,0,1-1.15-1.15v-.06c0-.19,0-.61,0-1.24a1.1,1.1,0,0,1,1.24-1.17h1a1.17,1.17,0,0,1,.92.44,1.48,1.48,0,0,1,.21.88Z"/><path class="cls-7" d="M267.21,288.07h1.1l4.19,9.87h-1.36l-1-2.43H265.2l-1,2.43h-1.32Zm.53,1.51h0l-2,4.85h4Z"/><rect class="cls-7" x="273.71" y="287.4" width="1.09" height="10.53"/><polygon class="cls-7" points="281.03 288.07 282.77 288.07 286.11 295.81 286.14 295.81 289.51 288.07 291.21 288.07 291.21 297.94 290.04 297.94 290.04 289.66 290.01 289.66 286.47 297.94 285.76 297.94 282.23 289.66 282.2 289.66 282.2 297.94 281.03 297.94 281.03 288.07"/><path class="cls-7" d="M293.38,292.25a3.32,3.32,0,0,1,1.19-.76,4.26,4.26,0,0,1,1.41-.24,2.75,2.75,0,0,1,2.08.68,3,3,0,0,1,.65,2.08v2.8c0,.18,0,.38,0,.58s0,.38.07.55h-1a2,2,0,0,1-.06-.5c0-.18,0-.34,0-.48h0a2.42,2.42,0,0,1-.86.82,2.36,2.36,0,0,1-1.28.32,3.64,3.64,0,0,1-.95-.12,2.34,2.34,0,0,1-.76-.37,1.78,1.78,0,0,1-.72-1.44,1.82,1.82,0,0,1,.42-1.27,2.48,2.48,0,0,1,1-.68,5.15,5.15,0,0,1,1.33-.28q.72-.06,1.32-.06h.42v-.19a1.3,1.3,0,0,0-.43-1.07,1.73,1.73,0,0,0-1.19-.37,3,3,0,0,0-1,.18,2.41,2.41,0,0,0-.9.53Zm3.15,2.55a3.85,3.85,0,0,0-1.66.3,1,1,0,0,0-.61,1,1,1,0,0,0,.41.87,1.94,1.94,0,0,0,1,.25,2,2,0,0,0,.83-.16,1.67,1.67,0,0,0,.59-.42,1.74,1.74,0,0,0,.36-.62,2.69,2.69,0,0,0,.14-.76v-.42Z"/><path class="cls-7" d="M300.61,292.25a3.32,3.32,0,0,1,1.19-.76,4.26,4.26,0,0,1,1.41-.24,2.75,2.75,0,0,1,2.08.68,3,3,0,0,1,.65,2.08v2.8c0,.18,0,.38,0,.58s.05.38.07.55h-1a2,2,0,0,1-.06-.5c0-.18,0-.34,0-.48h0a2.42,2.42,0,0,1-.86.82,2.36,2.36,0,0,1-1.28.32,3.64,3.64,0,0,1-.95-.12,2.34,2.34,0,0,1-.76-.37,1.78,1.78,0,0,1-.72-1.44,1.82,1.82,0,0,1,.42-1.27,2.48,2.48,0,0,1,1-.68,5.15,5.15,0,0,1,1.33-.28q.72-.06,1.32-.06h.42v-.19a1.3,1.3,0,0,0-.43-1.07,1.73,1.73,0,0,0-1.19-.37,3,3,0,0,0-1,.18,2.41,2.41,0,0,0-.9.53Zm3.15,2.55a3.85,3.85,0,0,0-1.66.3,1,1,0,0,0-.61,1,1,1,0,0,0,.41.87,1.94,1.94,0,0,0,1,.25,2,2,0,0,0,.83-.16,1.67,1.67,0,0,0,.59-.42,1.74,1.74,0,0,0,.36-.62,2.69,2.69,0,0,0,.14-.76v-.42Z"/><path class="cls-7" d="M307.93,293c0-.29,0-.57,0-.83s0-.5,0-.71h1c0,.17,0,.35,0,.53s0,.35,0,.54h0a1.86,1.86,0,0,1,.31-.46,2.68,2.68,0,0,1,.48-.4,3,3,0,0,1,.63-.28,2.57,2.57,0,0,1,.75-.1h.22a1,1,0,0,1,.23.06l-.07,1.1a1.91,1.91,0,0,0-.59-.08,1.64,1.64,0,0,0-1.45.64,3,3,0,0,0-.46,1.78v3.18h-1.08Z"/><path class="cls-7" d="M318.4,296.75a3.27,3.27,0,0,1-1.28,1.05,4,4,0,0,1-1.61.3,3.4,3.4,0,0,1-1.38-.27,3,3,0,0,1-1-.73,3.42,3.42,0,0,1-.66-1.09,3.87,3.87,0,0,1-.23-1.33,3.7,3.7,0,0,1,.26-1.39,3.16,3.16,0,0,1,.69-1.09,3.21,3.21,0,0,1,1.06-.7,3.44,3.44,0,0,1,1.34-.25,3.39,3.39,0,0,1,1.25.23,2.68,2.68,0,0,1,1,.67,2.94,2.94,0,0,1,.64,1.07,4.27,4.27,0,0,1,.22,1.44V295h-5.27a2.21,2.21,0,0,0,.21.8,2.08,2.08,0,0,0,.45.67,2,2,0,0,0,1.48.62,2.52,2.52,0,0,0,1.19-.25,2.66,2.66,0,0,0,.88-.74Zm-.93-2.66a1.9,1.9,0,0,0-.54-1.34,2,2,0,0,0-1.42-.5,2.13,2.13,0,0,0-1.47.5,2.16,2.16,0,0,0-.67,1.34Z"/><path class="cls-7" d="M320.88,292.34h-1.42v-.92h1.42V290a4.67,4.67,0,0,1,.12-1.09,2.24,2.24,0,0,1,.38-.86,1.76,1.76,0,0,1,.72-.56,2.7,2.7,0,0,1,1.1-.2,2.32,2.32,0,0,1,.44,0,1.5,1.5,0,0,1,.39.12l-.15,1a2.29,2.29,0,0,0-.74-.14,1.18,1.18,0,0,0-.65.15.88.88,0,0,0-.36.4,1.83,1.83,0,0,0-.14.62c0,.24,0,.5,0,.78v1.23h1.59v.92H322v5.6h-1.09Z"/><path class="cls-7" d="M332,288.07h1.1l4.19,9.87h-1.36l-1-2.43H330l-1,2.43h-1.32Zm.53,1.51h0l-2.05,4.85h4Z"/><path class="cls-7" d="M338.39,293c0-.29,0-.57,0-.83s0-.5,0-.71h1c0,.17,0,.35,0,.53s0,.35,0,.54h0a1.62,1.62,0,0,1,.31-.46,2.13,2.13,0,0,1,.48-.4,2.79,2.79,0,0,1,.63-.28,2.57,2.57,0,0,1,.75-.1,2.48,2.48,0,0,1,.88.13,2.41,2.41,0,0,1,.6.32,1.52,1.52,0,0,1,.36.41c.09.14.16.27.22.38a3,3,0,0,1,.84-.91,2.07,2.07,0,0,1,1.22-.33,3,3,0,0,1,1.17.19,1.79,1.79,0,0,1,.77.54,2.35,2.35,0,0,1,.42.87,4.84,4.84,0,0,1,.12,1.13v4h-1.08V294a3.51,3.51,0,0,0-.07-.66,1.48,1.48,0,0,0-.26-.57,1.26,1.26,0,0,0-.48-.4,1.67,1.67,0,0,0-.78-.16,1.63,1.63,0,0,0-.66.14,1.87,1.87,0,0,0-.53.39,1.78,1.78,0,0,0-.37.61,2.47,2.47,0,0,0-.13.79v3.76h-1.09v-3.7a2.9,2.9,0,0,0-.29-1.53,1,1,0,0,0-1-.46,2.11,2.11,0,0,0-.91.18,1.61,1.61,0,0,0-.63.52,2.39,2.39,0,0,0-.36.79,4.08,4.08,0,0,0-.12,1v3.18h-1.09Z"/><path class="cls-7" d="M356.09,296.75a3.35,3.35,0,0,1-1.28,1.05,4.11,4.11,0,0,1-1.62.3,3.4,3.4,0,0,1-1.38-.27,3.1,3.1,0,0,1-1-.73,3.23,3.23,0,0,1-.65-1.09,3.87,3.87,0,0,1-.23-1.33,3.7,3.7,0,0,1,.25-1.39,3.34,3.34,0,0,1,.7-1.09,3.17,3.17,0,0,1,1.05-.7,3.64,3.64,0,0,1,2.6,0,2.76,2.76,0,0,1,1,.67,3.06,3.06,0,0,1,.63,1.07,4.27,4.27,0,0,1,.22,1.44V295h-5.26a2.19,2.19,0,0,0,.2.8,2.46,2.46,0,0,0,.45.67,2.15,2.15,0,0,0,.66.45,2,2,0,0,0,.82.17,2.6,2.6,0,0,0,1.2-.25,2.76,2.76,0,0,0,.88-.74Zm-.94-2.66a1.86,1.86,0,0,0-.54-1.34,2,2,0,0,0-1.42-.5,2,2,0,0,0-2.13,1.84Z"/><path class="cls-7" d="M358,293c0-.29,0-.57,0-.83s0-.5,0-.71h1c0,.17,0,.35,0,.53s0,.35,0,.54h0a2.19,2.19,0,0,1,.31-.46,2.44,2.44,0,0,1,.49-.4,2.71,2.71,0,0,1,.62-.28,2.61,2.61,0,0,1,.75-.1h.23a.9.9,0,0,1,.22.06l-.07,1.1a1.85,1.85,0,0,0-.58-.08,1.66,1.66,0,0,0-1.46.64,3.11,3.11,0,0,0-.45,1.78v3.18H358Z"/><path class="cls-7" d="M362.76,288.87a.79.79,0,0,1,.23-.56.79.79,0,0,1,1.13,0,.79.79,0,0,1,.23.56.81.81,0,0,1-.22.57.8.8,0,0,1-1.37-.57m.25,2.55h1.09v6.52H363Z"/><path class="cls-7" d="M370.9,293.05a2.35,2.35,0,0,0-.76-.61,2.15,2.15,0,0,0-.89-.19,2.42,2.42,0,0,0-1,.19,1.91,1.91,0,0,0-.69.52,2.33,2.33,0,0,0-.41.78,3.14,3.14,0,0,0-.14.94,2.9,2.9,0,0,0,.16.94,2.56,2.56,0,0,0,.45.77,2,2,0,0,0,.69.52,2,2,0,0,0,.9.19,1.92,1.92,0,0,0,1.66-.81l.81.77a2.8,2.8,0,0,1-1.12.79,3.56,3.56,0,0,1-1.35.25,3.64,3.64,0,0,1-1.38-.25,2.87,2.87,0,0,1-1.06-.71,3.25,3.25,0,0,1-.68-1.08,3.91,3.91,0,0,1,0-2.75,3.1,3.1,0,0,1,1.75-1.8,3.56,3.56,0,0,1,1.37-.26,3.75,3.75,0,0,1,1.38.25,3,3,0,0,1,1.13.78Z"/><path class="cls-7" d="M372.89,292.25a3.16,3.16,0,0,1,1.19-.76,4.25,4.25,0,0,1,1.4-.24,2.79,2.79,0,0,1,2.09.68,2.94,2.94,0,0,1,.64,2.08v2.8c0,.18,0,.38,0,.58s0,.38.07.55h-1.05a2.54,2.54,0,0,1-.06-.5c0-.18,0-.34,0-.48h0a2.5,2.5,0,0,1-.86.82,2.42,2.42,0,0,1-1.29.32,3.51,3.51,0,0,1-.94-.12,2.39,2.39,0,0,1-.77-.37,1.74,1.74,0,0,1-.71-1.44,1.82,1.82,0,0,1,.41-1.27,2.55,2.55,0,0,1,1-.68,5.14,5.14,0,0,1,1.34-.28q.72-.06,1.32-.06h.41v-.19a1.32,1.32,0,0,0-.42-1.07,1.75,1.75,0,0,0-1.19-.37,3.08,3.08,0,0,0-1,.18,2.41,2.41,0,0,0-.9.53ZM376,294.8a3.82,3.82,0,0,0-1.66.3,1,1,0,0,0-.61,1,.93.93,0,0,0,.41.87,1.88,1.88,0,0,0,1,.25A2,2,0,0,0,376,297a1.59,1.59,0,0,0,.59-.42A1.74,1.74,0,0,0,377,296a2.38,2.38,0,0,0,.14-.76v-.42Z"/><path class="cls-7" d="M380.2,293c0-.29,0-.57,0-.83s0-.5,0-.71h1c0,.17,0,.35,0,.53s0,.35,0,.54h0a1.91,1.91,0,0,1,.32-.46,2.13,2.13,0,0,1,.48-.4,2.71,2.71,0,0,1,.62-.28,2.68,2.68,0,0,1,.76-.1,3,3,0,0,1,1.1.19,2.34,2.34,0,0,1,.78.55,2.26,2.26,0,0,1,.45.84,3.71,3.71,0,0,1,.15,1.08v4H384.8V294a2.06,2.06,0,0,0-.36-1.29,1.32,1.32,0,0,0-1.13-.48,2.11,2.11,0,0,0-.91.18,1.61,1.61,0,0,0-.63.52,2.39,2.39,0,0,0-.36.79,4.08,4.08,0,0,0-.12,1v3.18H380.2Z"/><path class="cls-7" d="M396.7,289.82a1.73,1.73,0,0,0-.78-.69,2.43,2.43,0,0,0-1-.22,2.86,2.86,0,0,0-.77.1,2.13,2.13,0,0,0-.67.29,1.42,1.42,0,0,0-.48.52,1.49,1.49,0,0,0-.18.75,1.55,1.55,0,0,0,.1.59,1.25,1.25,0,0,0,.34.47,2.52,2.52,0,0,0,.64.39,9,9,0,0,0,1,.36q.57.18,1.11.39a4,4,0,0,1,.95.53,2.32,2.32,0,0,1,.65.8,3,3,0,0,1-.05,2.49,2.55,2.55,0,0,1-.77.89,3.17,3.17,0,0,1-1.11.53,4.67,4.67,0,0,1-1.29.18,5.12,5.12,0,0,1-.87-.08,4,4,0,0,1-.83-.24,3.16,3.16,0,0,1-.74-.41,2.62,2.62,0,0,1-.6-.64l1-.82a2.07,2.07,0,0,0,.89.82,2.7,2.7,0,0,0,1.22.28,2.78,2.78,0,0,0,.75-.11,2,2,0,0,0,.69-.33,1.72,1.72,0,0,0,.51-.53,1.41,1.41,0,0,0,.19-.74,1.61,1.61,0,0,0-.15-.75,1.32,1.32,0,0,0-.48-.49,3.51,3.51,0,0,0-.8-.38l-1.15-.39a7.84,7.84,0,0,1-1-.38,2.92,2.92,0,0,1-.77-.53,2.34,2.34,0,0,1-.52-.75,2.62,2.62,0,0,1-.19-1.05,2.55,2.55,0,0,1,.28-1.24,2.7,2.7,0,0,1,.75-.89,3.65,3.65,0,0,1,1.08-.54,4.24,4.24,0,0,1,1.25-.18,4.29,4.29,0,0,1,1.52.26,3,3,0,0,1,1.24.9Z"/><path class="cls-7" d="M404.21,293.05a2.35,2.35,0,0,0-.76-.61,2.15,2.15,0,0,0-.89-.19,2.42,2.42,0,0,0-1,.19,1.91,1.91,0,0,0-.69.52,2.33,2.33,0,0,0-.41.78,3.14,3.14,0,0,0-.14.94,2.65,2.65,0,0,0,.16.94,2.56,2.56,0,0,0,.45.77,2,2,0,0,0,.69.52,2,2,0,0,0,.9.19,1.92,1.92,0,0,0,1.66-.81l.81.77a2.8,2.8,0,0,1-1.12.79,3.56,3.56,0,0,1-1.35.25,3.64,3.64,0,0,1-1.38-.25,2.79,2.79,0,0,1-1.06-.71,3.28,3.28,0,0,1-.69-1.08,4.06,4.06,0,0,1,0-2.75,3.33,3.33,0,0,1,.69-1.08,3.16,3.16,0,0,1,1.07-.72,3.56,3.56,0,0,1,1.37-.26,3.7,3.7,0,0,1,1.37.25,3.06,3.06,0,0,1,1.14.78Z"/><path class="cls-7" d="M406.28,287.4h1.09v4.92h0a1.66,1.66,0,0,1,.3-.38,2.1,2.1,0,0,1,.47-.34,2.7,2.7,0,0,1,.6-.25,2.39,2.39,0,0,1,.71-.1,2.86,2.86,0,0,1,1.11.2,2.18,2.18,0,0,1,.78.54,2.26,2.26,0,0,1,.45.84,3.71,3.71,0,0,1,.14,1.08v4h-1.08V294a2.06,2.06,0,0,0-.36-1.29,1.34,1.34,0,0,0-1.13-.48,2.16,2.16,0,0,0-.92.18,1.75,1.75,0,0,0-.62.52,2.2,2.2,0,0,0-.36.79,4.08,4.08,0,0,0-.12,1v3.18h-1.09Z"/><path class="cls-7" d="M413.65,294.68a3.71,3.71,0,0,1,.26-1.4,3.49,3.49,0,0,1,.73-1.08,3.29,3.29,0,0,1,1.1-.7,3.73,3.73,0,0,1,1.39-.25,3.78,3.78,0,0,1,1.4.25,3.39,3.39,0,0,1,1.1.7,3.64,3.64,0,0,1,.72,1.08,3.53,3.53,0,0,1,.27,1.4,3.48,3.48,0,0,1-.27,1.39,3.4,3.4,0,0,1-.72,1.08,3.23,3.23,0,0,1-1.1.7,3.78,3.78,0,0,1-1.4.25,3.73,3.73,0,0,1-1.39-.25,3.14,3.14,0,0,1-1.1-.7,3.27,3.27,0,0,1-.73-1.08,3.66,3.66,0,0,1-.26-1.39m1.17,0a2.67,2.67,0,0,0,.16.95,2.25,2.25,0,0,0,.47.77,2.09,2.09,0,0,0,.73.51,2.24,2.24,0,0,0,.95.19,2.29,2.29,0,0,0,1-.19,2.19,2.19,0,0,0,.73-.51,2.42,2.42,0,0,0,.47-.77,2.91,2.91,0,0,0,.16-.95,3,3,0,0,0-.16-1,2.26,2.26,0,0,0-1.2-1.28,2.45,2.45,0,0,0-1-.19,2.4,2.4,0,0,0-.95.19,2.26,2.26,0,0,0-.73.52,2.21,2.21,0,0,0-.47.76,2.73,2.73,0,0,0-.16,1"/><path class="cls-7" d="M421.93,294.68a3.53,3.53,0,0,1,.26-1.4,3.64,3.64,0,0,1,.72-1.08,3.39,3.39,0,0,1,1.1-.7,3.78,3.78,0,0,1,1.4-.25,3.73,3.73,0,0,1,1.39.25,3.19,3.19,0,0,1,1.1.7,3.49,3.49,0,0,1,.73,1.08,3.71,3.71,0,0,1,.26,1.4,3.66,3.66,0,0,1-.26,1.39,3.27,3.27,0,0,1-.73,1.08,3,3,0,0,1-1.1.7,3.73,3.73,0,0,1-1.39.25,3.78,3.78,0,0,1-1.4-.25,3.23,3.23,0,0,1-1.1-.7,3.4,3.4,0,0,1-.72-1.08,3.48,3.48,0,0,1-.26-1.39m1.17,0a2.67,2.67,0,0,0,.16.95,2.23,2.23,0,0,0,.46.77,2.19,2.19,0,0,0,.73.51,2.29,2.29,0,0,0,1,.19,2.24,2.24,0,0,0,.95-.19,2,2,0,0,0,.73-.51,2.25,2.25,0,0,0,.47-.77,2.67,2.67,0,0,0,.16-.95,2.73,2.73,0,0,0-.16-1,2.21,2.21,0,0,0-.47-.76,2.16,2.16,0,0,0-.73-.52,2.4,2.4,0,0,0-.95-.19,2.45,2.45,0,0,0-1,.19,2.37,2.37,0,0,0-.73.52,2.18,2.18,0,0,0-.46.76,2.73,2.73,0,0,0-.16,1"/><rect class="cls-7" x="430.67" y="287.4" width="1.09" height="10.53"/></g></g></svg>