<svg id="Layer_1" data-name="Layer 1" xmlns="http://www.w3.org/2000/svg" xmlns:xlink="http://www.w3.org/1999/xlink" viewBox="0 0 595.28 462.26"><defs><style>.cls-1{fill:none;}.cls-2{clip-path:url(#clip-path);}.cls-3{clip-path:url(#clip-path-2);}.cls-4{fill:url(#linear-gradient);}.cls-5{fill:#292663;}</style><clipPath id="clip-path"><rect class="cls-1" width="595.28" height="462.26"/></clipPath><clipPath id="clip-path-2"><path class="cls-1" d="M286,196.23c-.65,1.5,1,3.65,3.62,4.8s5.34.88,6-.62-1-3.65-3.62-4.81a8.14,8.14,0,0,0-3.18-.71c-1.35,0-2.43.46-2.81,1.34m36-34.43,9.91,11c7.1,7.85,18.49-6.39,12.62-12.76l-10.65-11.56a5.57,5.57,0,0,0-4.21-1.9c-6.13,0-13,9.32-7.67,15.25m-49.34,26.4c7.65-7.56-12.18-19.58-18.54-42.75A53.25,53.25,0,0,1,252.66,125a56.17,56.17,0,0,0,20,63.21m-6.23-85.31A45.39,45.39,0,0,0,261.35,132q4.14,26.13,38.37,54.76c6.72,5.63,16.31-3.57,9.53-10.54q-16.81-17.34-25.73-31.83-22.57-36.67,5.58-55.08a56.37,56.37,0,0,0-22.62,13.58M305.6,86.74q-33.44,11.37-8.22,45.6a152.85,152.85,0,0,0,12.36,14.54c7.22,7.61,18.31-4.52,11.95-11.9q-38.64-44.92-2.25-46.57a56,56,0,0,0-13.58-1.67h-.26"/></clipPath><linearGradient id="linear-gradient" y1="462.3" x2="1" y2="462.3" gradientTransform="translate(262.48 -27350.71) scale(59.47)" gradientUnits="userSpaceOnUse"><stop offset="0" stop-color="#0588ca"/><stop offset="1" stop-color="#3cbcb8"/></linearGradient></defs><g class="cls-2"><g class="cls-3"><rect class="cls-4" x="224.06" y="68.77" width="147.25" height="151.39" transform="translate(-33 155.95) rotate(-27.88)"/></g><g class="cls-2"><polygon class="cls-5" points="211.22 275.47 220.01 213.61 220.96 213.61 246.11 264.36 271.1 213.61 272.04 213.61 280.92 275.47 274.8 275.47 268.77 231.19 246.89 275.47 245.34 275.47 223.2 230.84 217.17 275.47 211.22 275.47"/><path class="cls-5" d="M315.05,213.61l27.75,61.86h-6.38l-9.36-20.29H301.39l-9.27,20.29h-6.63l28.07-61.86Zm-.74,13.17-10.19,22.36h20.29Z"/><path class="cls-5" d="M345.57,263l5-3q5.25,9.69,12.23,9.69a11.17,11.17,0,0,0,7.71-2.87,9.23,9.23,0,0,0,3.2-7.14A11,11,0,0,0,371,252.9a50,50,0,0,0-9-8.16,72.37,72.37,0,0,1-8.46-7.06,15.72,15.72,0,0,1-3.2-5,15,15,0,0,1-1-5.38,13.07,13.07,0,0,1,4.06-9.72,14,14,0,0,1,10.22-4,14.79,14.79,0,0,1,8.45,2.42,27.71,27.71,0,0,1,7,7.18l-4.76,3.69a29.72,29.72,0,0,0-4.76-5.17,9.13,9.13,0,0,0-6-2.05,8.12,8.12,0,0,0-5.82,2.13,7.13,7.13,0,0,0-2.26,5.42,8.63,8.63,0,0,0,2,5.7q2,2.43,9.11,7.67t10.34,9.69a15.58,15.58,0,0,1,3.24,9.35,14.84,14.84,0,0,1-5,11.12,16.22,16.22,0,0,1-11.53,4.72q-11.58,0-18.06-12.47"/><rect class="cls-5" x="175.82" y="316.75" width="1.65" height="1.63"/><rect class="cls-5" x="173.46" y="316.75" width="1.65" height="1.63"/><rect class="cls-5" x="184.93" y="330.65" width="1.65" height="1.63"/><rect class="cls-5" x="182.57" y="330.65" width="1.65" height="1.63"/><path class="cls-5" d="M216.21,325.35a1.92,1.92,0,0,1-2.18,2.11H211.3V326a5.62,5.62,0,0,0-1.43-3.74,4,4,0,0,0-2.7-1.52l-.79-.08,2.12-3.87h-2.05L203.53,322l1.5,1.2a3.46,3.46,0,0,1,1.52-.46c1.82,0,3.07,1.52,3.07,3.52v1.21H186.3l.19-.66a6.74,6.74,0,0,0,.21-1.69v-4l-1.6.95v3.26a1.93,1.93,0,0,1-2.18,2.11h-1a2,2,0,0,1-2.13-2.31V319l-1.65.4v.44H175a3.45,3.45,0,0,0-2.58.93,2.72,2.72,0,0,0-.78,2.12l0,1.84c0,2.46,1.16,3.86,3.38,3.86h1.41a4,4,0,0,0,2-.44l.38-.2.29.32a3.12,3.12,0,0,0,2.45.87H214c2.56,0,3.84-1.31,3.84-3.91v-4.12l-1.6.95Zm-38-.26c-.06,1.23-.65,1.84-1.78,1.84h-1.54c-1.12,0-1.67-.68-1.67-1.86v-1.69a1.61,1.61,0,0,1,1.8-1.82h3.19Z"/><rect class="cls-5" x="214.86" y="330.65" width="1.65" height="1.63"/><rect class="cls-5" x="212.51" y="330.65" width="1.65" height="1.63"/><path class="cls-5" d="M231.59,321.06h-1.38c-2.26,0-3.42,1.43-3.42,3.86v.34a2,2,0,0,1-2.17,2.2h-1.38v-6.28l-1.64,1v7.07a1.94,1.94,0,0,1-2.16,2.13h-.13l-.37,1.84h.48c2.43,0,3.63-1.18,3.8-3.51l0-.5h1.91a3.43,3.43,0,0,0,1.79-.36l.36-.23.28.31a3.46,3.46,0,0,0,2.61.95H235v-5.11c0-2.45-1.12-3.67-3.38-3.67m1.79,7.07h-3.27a1.56,1.56,0,0,1-1.71-1.69v-.1c0-.28,0-.89,0-1.82a1.62,1.62,0,0,1,1.83-1.73h1.5a1.7,1.7,0,0,1,1.36.65,2.13,2.13,0,0,1,.31,1.29Z"/><path class="cls-5" d="M244.3,325.35a1.87,1.87,0,0,1-1.79,2.09l-.47.06L240.4,320l-1.57,1,1.38,6.38h-2.52l-.4,1.71h4.94q3.65,0,3.64-4.06v-7.79l-1.57.95Z"/><path class="cls-5" d="M241.37,318.35h-1.25a1,1,0,1,1,0-2,1.16,1.16,0,0,1,.64.21l.38-.44a1.55,1.55,0,0,0-1.14-.47,1.65,1.65,0,0,0-1.63,1.67,1.55,1.55,0,0,0,.21.84l.09.21h-.85v.85h3.55Z"/><polygon class="cls-5" points="248.19 329.17 249.82 329.17 249.82 317.17 248.19 318.14 248.19 329.17"/><rect class="cls-5" x="267.05" y="316.98" width="1.65" height="1.63"/><path class="cls-5" d="M267.62,320.09a6.68,6.68,0,0,0-2,.25,3.39,3.39,0,0,0-2.05,2.43,11,11,0,0,0-.19,2.28,11.48,11.48,0,0,0,.34,2.41h-5.41a2,2,0,0,1-2.15-2.18c0-2.11.54-2.66,2-2.76l.28-1.65H258c-2.35,0-3.53,1.31-3.53,3.95a5.35,5.35,0,0,0,.87,3.29,3.56,3.56,0,0,0,2.93,1.06h13.12v-5.05c0-2.68-1.29-4-3.81-4m2.16,7.37h-2.64c-1.35,0-2.11-.83-2.11-2.3V324.1a2,2,0,0,1,2.19-2.18h.4a2,2,0,0,1,2.16,2.2Z"/><path class="cls-5" d="M275.23,329.36a1.94,1.94,0,0,1-2.17,2.13h-.13l-.36,1.84h.65q3.64,0,3.64-4.06v-7.94l-1.63,1Z"/><path class="cls-5" d="M338.12,325.35a1.94,1.94,0,0,1-2.17,2.11h-.35a2,2,0,0,1-2.15-2.22v-.51c0-2.43-1.12-3.65-3.38-3.65h-1.39c-2.26,0-3.42,1.42-3.42,3.84v.34a1.94,1.94,0,0,1-2.12,2.2h-5.6l1.1-.91a7.18,7.18,0,0,0,1.48-1.56,5.38,5.38,0,0,0,.38-.59.71.71,0,0,0,.06-.19,4.22,4.22,0,0,0,.26-1.15c0-1.28-.78-2.17-2.31-2.66a8.44,8.44,0,0,0-2.45-.34,8.93,8.93,0,0,0-4.58,1.29,14.22,14.22,0,0,0-.4,2.24,36.16,36.16,0,0,1,3.08,3l.78.87h-32a1.94,1.94,0,0,1-2.17-2.11v-7.23l-1.59-.95v7.94q0,4.06,3.64,4.06h29.3a8.54,8.54,0,0,0,3.92-.91l.24.17a5.46,5.46,0,0,0,3.1.74h3.24v0h1a3.43,3.43,0,0,0,1.79-.36l.36-.23.28.31a3.45,3.45,0,0,0,2.6.95h4.77v-1.11l.68.23a4.18,4.18,0,0,0,.67.12,8.7,8.7,0,0,0,.89.06h.57c2.3-.08,3.45-1.41,3.45-4.05v-7.94l-1.59.95Zm-22,1.49-.28-.42a13.4,13.4,0,0,0-3-3.23l-.59-.44.61-.42a5.56,5.56,0,0,1,3.21-.89,2.84,2.84,0,0,1,2.45.91,2,2,0,0,1,.38,1,3.13,3.13,0,0,1-1.3,2.45,12.47,12.47,0,0,1-1.46,1m15.71,1.31h-3.27a1.56,1.56,0,0,1-1.71-1.69v-.1c0-.28,0-.89,0-1.84a1.61,1.61,0,0,1,1.82-1.71h1.5a1.72,1.72,0,0,1,1.37.63,2.13,2.13,0,0,1,.31,1.29Z"/><polygon class="cls-5" points="342.03 329.17 343.67 329.17 343.67 317.17 342.03 318.14 342.03 329.17"/><rect class="cls-5" x="352.57" y="316.75" width="1.65" height="1.63"/><rect class="cls-5" x="350.22" y="316.75" width="1.65" height="1.63"/><path class="cls-5" d="M392,325.26a2,2,0,0,1-2.15,2.2H388.2v-6.11l-1.57.81V326a1.52,1.52,0,0,1-1.52,1.5h-2.34v-6.11l-1.6.81v5.3H358.71a2,2,0,0,1-2.13-2.31V319l-1.65.4v.44h-3.19a3.47,3.47,0,0,0-2.59.93,2.75,2.75,0,0,0-.78,2.12l0,1.84c0,2.46,1.16,3.86,3.39,3.86h1.4a4,4,0,0,0,2-.44l.38-.2.28.32a3.13,3.13,0,0,0,2.45.87H390q3.68,0,3.68-4.06v-3.76l-1.59.81Zm-37.11-.17c-.06,1.23-.65,1.84-1.79,1.84H351.6c-1.12,0-1.67-.68-1.67-1.86v-1.69a1.62,1.62,0,0,1,1.81-1.82h3.19Z"/><path class="cls-5" d="M397.43,329.36a1.94,1.94,0,0,1-2.17,2.13h-.13l-.36,1.84h.65q3.65,0,3.64-4.06v-7.94l-1.63,1Z"/><path class="cls-5" d="M417.41,321.06H416c-2.26,0-3.42,1.43-3.42,3.86v.34a2,2,0,0,1-2.16,2.2H409v-2.94a5,5,0,0,0-2.26-4.14,4.57,4.57,0,0,0-2.47-.67,4.94,4.94,0,0,0-2.09.54l.68,1.63a3.47,3.47,0,0,1,1.46-.36,3.22,3.22,0,0,1,3,3.25v2.69h-5.54l-.4,1.71H411a3.41,3.41,0,0,0,1.78-.36l.36-.23.29.31a3.45,3.45,0,0,0,2.6.95h4.77v-5.11c0-2.45-1.12-3.67-3.38-3.67m1.78,7.07h-3.26a1.56,1.56,0,0,1-1.71-1.69v-.1c0-.28,0-.89,0-1.82a1.61,1.61,0,0,1,1.82-1.73h1.5a1.73,1.73,0,0,1,1.37.65,2.14,2.14,0,0,1,.3,1.29Z"/><path class="cls-5" d="M178,293.68h1.62l6.19,14.56h-2l-1.48-3.58h-7.28l-1.5,3.58h-2Zm.78,2.22h0l-3,7.16h5.94Z"/><rect class="cls-5" x="187.61" y="292.7" width="1.6" height="15.54"/><polygon class="cls-5" points="198.4 293.68 200.97 293.68 205.9 305.09 205.94 305.09 210.92 293.68 213.43 293.68 213.43 308.24 211.7 308.24 211.7 296.03 211.66 296.03 206.44 308.24 205.39 308.24 200.17 296.03 200.13 296.03 200.13 308.24 198.4 308.24 198.4 293.68"/><path class="cls-5" d="M216.63,299.85a4.46,4.46,0,0,1,1.76-1.12,6.12,6.12,0,0,1,2.06-.36,4.09,4.09,0,0,1,3.09,1,4.33,4.33,0,0,1,.94,3.06v4.13c0,.27,0,.56,0,.85s.06.57.11.82h-1.55a4,4,0,0,1-.09-.73c0-.27,0-.51,0-.71h0a3.94,3.94,0,0,1-1.26,1.21,3.72,3.72,0,0,1-1.9.47,5.14,5.14,0,0,1-1.39-.18,3.6,3.6,0,0,1-1.13-.55,2.74,2.74,0,0,1-.77-.89,2.5,2.5,0,0,1-.29-1.24,2.66,2.66,0,0,1,.62-1.87,3.74,3.74,0,0,1,1.53-1,7.26,7.26,0,0,1,2-.41c.71-.06,1.35-.09,1.94-.09h.62V302a2,2,0,0,0-.63-1.59,2.66,2.66,0,0,0-1.76-.53,4.47,4.47,0,0,0-1.53.26,3.55,3.55,0,0,0-1.32.79Zm4.65,3.76a5.73,5.73,0,0,0-2.45.43,1.48,1.48,0,0,0-.91,1.42,1.4,1.4,0,0,0,.61,1.28,2.76,2.76,0,0,0,1.51.39,2.85,2.85,0,0,0,1.22-.24,2.61,2.61,0,0,0,.88-.63,2.66,2.66,0,0,0,.53-.91,3.77,3.77,0,0,0,.21-1.12v-.62Z"/><path class="cls-5" d="M227.3,299.85a4.46,4.46,0,0,1,1.76-1.12,6.08,6.08,0,0,1,2.06-.36,4.06,4.06,0,0,1,3.08,1,4.33,4.33,0,0,1,1,3.06v4.13a8.32,8.32,0,0,0,0,.85c0,.3.06.57.1.82h-1.54a4,4,0,0,1-.09-.73c0-.27,0-.51,0-.71h0a3.88,3.88,0,0,1-1.27,1.21,3.67,3.67,0,0,1-1.9.47,5.11,5.11,0,0,1-1.38-.18,3.66,3.66,0,0,1-1.14-.55,2.87,2.87,0,0,1-.77-.89,2.61,2.61,0,0,1-.28-1.24,2.7,2.7,0,0,1,.61-1.87,3.74,3.74,0,0,1,1.53-1,7.33,7.33,0,0,1,2-.41c.7-.06,1.35-.09,1.94-.09h.62V302a2,2,0,0,0-.63-1.59,2.66,2.66,0,0,0-1.76-.53,4.47,4.47,0,0,0-1.53.26,3.55,3.55,0,0,0-1.32.79Zm4.64,3.76a5.71,5.71,0,0,0-2.44.43,1.46,1.46,0,0,0-.91,1.42,1.4,1.4,0,0,0,.61,1.28,2.73,2.73,0,0,0,1.51.39,2.89,2.89,0,0,0,1.22-.24,2.71,2.71,0,0,0,.88-.63,2.66,2.66,0,0,0,.53-.91,4.12,4.12,0,0,0,.21-1.12v-.62Z"/><path class="cls-5" d="M238.09,300.9c0-.44,0-.85,0-1.24s0-.73,0-1h1.52c0,.26,0,.52,0,.78s0,.52,0,.8h0a2.81,2.81,0,0,1,.46-.68,3.77,3.77,0,0,1,.71-.59,4,4,0,0,1,.93-.41,3.92,3.92,0,0,1,1.11-.15l.32,0a1.32,1.32,0,0,1,.33.08l-.1,1.63a2.71,2.71,0,0,0-.86-.13,2.43,2.43,0,0,0-2.15,1,4.48,4.48,0,0,0-.67,2.62v4.68h-1.6Z"/><path class="cls-5" d="M253.54,306.49a4.76,4.76,0,0,1-1.89,1.55,6.05,6.05,0,0,1-2.38.44,5,5,0,0,1-2-.4,4.53,4.53,0,0,1-2.49-2.68,5.63,5.63,0,0,1-.34-2,5.46,5.46,0,0,1,.37-2.05,4.59,4.59,0,0,1,1-1.6,4.45,4.45,0,0,1,1.56-1,5.08,5.08,0,0,1,2-.37,4.84,4.84,0,0,1,1.85.34,4,4,0,0,1,1.45,1,4.27,4.27,0,0,1,.93,1.58,6.35,6.35,0,0,1,.33,2.13v.51h-7.77a3.5,3.5,0,0,0,1,2.17,3.17,3.17,0,0,0,1,.67,3,3,0,0,0,1.21.24,3.8,3.8,0,0,0,1.77-.37,3.88,3.88,0,0,0,1.29-1.09Zm-1.37-3.93a2.79,2.79,0,0,0-.8-2,2.91,2.91,0,0,0-2.1-.74,3.13,3.13,0,0,0-2.16.74,3.09,3.09,0,0,0-1,2Z"/><path class="cls-5" d="M257.2,300h-2.09v-1.35h2.09v-2.16a7.39,7.39,0,0,1,.17-1.62,3.44,3.44,0,0,1,.56-1.26,2.66,2.66,0,0,1,1.06-.83,3.92,3.92,0,0,1,1.63-.3,3.83,3.83,0,0,1,.65.06,1.65,1.65,0,0,1,.58.19l-.23,1.44a3.14,3.14,0,0,0-1.09-.21,1.75,1.75,0,0,0-1,.22,1.32,1.32,0,0,0-.53.59,2.72,2.72,0,0,0-.2.92c0,.35,0,.74,0,1.15v1.81h2.34V300h-2.34v8.27H257.2Z"/><path class="cls-5" d="M273.58,293.68h1.63l6.18,14.56h-2l-1.48-3.58h-7.28l-1.5,3.58h-1.95Zm.79,2.22h-.05l-3,7.16h5.94Z"/><path class="cls-5" d="M283,300.9c0-.44,0-.85,0-1.24s0-.73,0-1h1.52c0,.26,0,.52,0,.78s0,.52,0,.8h0a2.81,2.81,0,0,1,.46-.68,3.77,3.77,0,0,1,.71-.59,4,4,0,0,1,.93-.41,3.92,3.92,0,0,1,1.11-.15,3.76,3.76,0,0,1,1.3.19,3,3,0,0,1,.87.48,2.16,2.16,0,0,1,.55.59c.13.22.24.4.32.57a4.37,4.37,0,0,1,1.23-1.35,3.14,3.14,0,0,1,1.81-.48,4.65,4.65,0,0,1,1.73.28,2.74,2.74,0,0,1,1.13.8,3.2,3.2,0,0,1,.61,1.27,6.69,6.69,0,0,1,.19,1.68v5.83H295.9v-5.75a4.5,4.5,0,0,0-.1-1,2.27,2.27,0,0,0-.37-.84,1.91,1.91,0,0,0-.72-.59,2.43,2.43,0,0,0-1.15-.23,2.39,2.39,0,0,0-1,.2,2.42,2.42,0,0,0-.8.58,2.81,2.81,0,0,0-.53.89,3.34,3.34,0,0,0-.19,1.17v5.54h-1.61v-5.44a4.36,4.36,0,0,0-.43-2.27,1.55,1.55,0,0,0-1.42-.67,3,3,0,0,0-1.34.27,2.3,2.3,0,0,0-.93.76,3.3,3.3,0,0,0-.53,1.17,5.82,5.82,0,0,0-.18,1.5v4.68H283Z"/><path class="cls-5" d="M309.14,306.49a4.76,4.76,0,0,1-1.89,1.55,6.05,6.05,0,0,1-2.38.44,5,5,0,0,1-2-.4,4.59,4.59,0,0,1-2.5-2.68,5.86,5.86,0,0,1-.33-2,5.46,5.46,0,0,1,.37-2.05,4.55,4.55,0,0,1,2.59-2.64,5.08,5.08,0,0,1,2-.37,4.84,4.84,0,0,1,1.85.34,4,4,0,0,1,1.45,1,4.41,4.41,0,0,1,.93,1.58,6.35,6.35,0,0,1,.33,2.13v.51h-7.77a3.48,3.48,0,0,0,.3,1.18,3.26,3.26,0,0,0,.67,1,3.17,3.17,0,0,0,1,.67,3,3,0,0,0,1.21.24,3.73,3.73,0,0,0,1.76-.37,3.91,3.91,0,0,0,1.3-1.09Zm-1.37-3.93a2.76,2.76,0,0,0-.81-2,2.87,2.87,0,0,0-2.09-.74,3.13,3.13,0,0,0-2.16.74,3.09,3.09,0,0,0-1,2Z"/><path class="cls-5" d="M312,300.9c0-.44,0-.85,0-1.24s0-.73,0-1h1.52c0,.26,0,.52,0,.78s0,.52,0,.8h0a2.81,2.81,0,0,1,.46-.68,3.77,3.77,0,0,1,.71-.59,4,4,0,0,1,.93-.41,3.92,3.92,0,0,1,1.11-.15l.32,0a1.32,1.32,0,0,1,.33.08l-.1,1.63a2.71,2.71,0,0,0-.86-.13,2.43,2.43,0,0,0-2.15,1,4.48,4.48,0,0,0-.67,2.62v4.68H312Z"/><path class="cls-5" d="M319,294.85a1.14,1.14,0,0,1,.34-.82,1.11,1.11,0,0,1,.83-.35,1.13,1.13,0,0,1,.83.35,1.18,1.18,0,1,1-2,.82m.37,3.77H321v9.62h-1.6Z"/><path class="cls-5" d="M331,301a3.14,3.14,0,0,0-1.11-.89,3,3,0,0,0-1.32-.28,3.32,3.32,0,0,0-1.41.28,2.63,2.63,0,0,0-1,.77,3.47,3.47,0,0,0-.61,1.14,4.76,4.76,0,0,0-.2,1.39,4.16,4.16,0,0,0,.23,1.38,3.78,3.78,0,0,0,.66,1.14,2.87,2.87,0,0,0,1,.77,3,3,0,0,0,1.33.28,2.86,2.86,0,0,0,2.45-1.19l1.19,1.13a4.2,4.2,0,0,1-1.64,1.17,5.67,5.67,0,0,1-4,0,4.3,4.3,0,0,1-1.57-1.05,4.79,4.79,0,0,1-1-1.6,5.88,5.88,0,0,1,0-4,4.66,4.66,0,0,1,2.59-2.66,5.27,5.27,0,0,1,2-.38,5.5,5.5,0,0,1,2,.37,4.44,4.44,0,0,1,1.67,1.15Z"/><path class="cls-5" d="M333.93,299.85a4.46,4.46,0,0,1,1.76-1.12,6.08,6.08,0,0,1,2.06-.36,4.06,4.06,0,0,1,3.08,1,4.33,4.33,0,0,1,.95,3.06v4.13a8.32,8.32,0,0,0,0,.85c0,.3.06.57.1.82h-1.54a4,4,0,0,1-.09-.73c0-.27,0-.51,0-.71h0A3.88,3.88,0,0,1,339,308a3.67,3.67,0,0,1-1.9.47,5.11,5.11,0,0,1-1.38-.18,3.66,3.66,0,0,1-1.14-.55,2.87,2.87,0,0,1-.77-.89,2.61,2.61,0,0,1-.28-1.24,2.7,2.7,0,0,1,.61-1.87,3.74,3.74,0,0,1,1.53-1,7.33,7.33,0,0,1,2-.41c.7-.06,1.35-.09,1.94-.09h.62V302a2,2,0,0,0-.63-1.59,2.66,2.66,0,0,0-1.76-.53,4.47,4.47,0,0,0-1.53.26,3.67,3.67,0,0,0-1.33.79Zm4.64,3.76a5.71,5.71,0,0,0-2.44.43,1.46,1.46,0,0,0-.91,1.42,1.4,1.4,0,0,0,.61,1.28,2.73,2.73,0,0,0,1.51.39,2.89,2.89,0,0,0,1.22-.24,2.71,2.71,0,0,0,.88-.63,2.66,2.66,0,0,0,.53-.91,4.12,4.12,0,0,0,.21-1.12v-.62Z"/><path class="cls-5" d="M344.72,300.9c0-.44,0-.85,0-1.24s0-.73,0-1h1.52c0,.26,0,.52,0,.78s0,.52,0,.8h0a2.81,2.81,0,0,1,.46-.68,3.77,3.77,0,0,1,.71-.59,4.15,4.15,0,0,1,.93-.41,3.92,3.92,0,0,1,1.11-.15,4.24,4.24,0,0,1,1.63.29,3,3,0,0,1,1.14.8,3.23,3.23,0,0,1,.67,1.24,5.76,5.76,0,0,1,.22,1.59v5.94H351.5v-5.77a3.1,3.1,0,0,0-.53-1.91,2,2,0,0,0-1.67-.7,3,3,0,0,0-1.34.27,2.3,2.3,0,0,0-.93.76,3.3,3.3,0,0,0-.53,1.17,5.82,5.82,0,0,0-.18,1.5v4.68h-1.6Z"/><path class="cls-5" d="M369.06,296.25a2.58,2.58,0,0,0-1.16-1,3.55,3.55,0,0,0-1.5-.32,4.32,4.32,0,0,0-1.13.14,3.41,3.41,0,0,0-1,.43,2.16,2.16,0,0,0-.71.76,2.23,2.23,0,0,0-.27,1.11,2.42,2.42,0,0,0,.15.88,1.82,1.82,0,0,0,.51.68,3.71,3.71,0,0,0,.94.58,11.87,11.87,0,0,0,1.46.53c.56.18,1.11.37,1.64.58a5.83,5.83,0,0,1,1.39.78,3.48,3.48,0,0,1,1,1.18,4,4,0,0,1,.36,1.78,3.88,3.88,0,0,1-.43,1.89,4,4,0,0,1-1.14,1.33,5,5,0,0,1-1.64.78,7.1,7.1,0,0,1-1.91.26,6.83,6.83,0,0,1-1.27-.12,5.52,5.52,0,0,1-1.22-.35,4.55,4.55,0,0,1-1.1-.61,3.8,3.8,0,0,1-.89-.94l1.48-1.21a3.09,3.09,0,0,0,1.32,1.21,3.94,3.94,0,0,0,1.78.41,4,4,0,0,0,1.13-.16,3.27,3.27,0,0,0,1-.49,2.54,2.54,0,0,0,.74-.79,2,2,0,0,0,.29-1.09,2.36,2.36,0,0,0-.23-1.1,2,2,0,0,0-.69-.72,5.17,5.17,0,0,0-1.2-.56l-1.68-.58a10.53,10.53,0,0,1-1.44-.56,4.26,4.26,0,0,1-1.14-.78,3.32,3.32,0,0,1-.76-1.11,3.83,3.83,0,0,1-.28-1.55,3.92,3.92,0,0,1,.41-1.83,4,4,0,0,1,1.11-1.31,5.09,5.09,0,0,1,1.58-.79,6.32,6.32,0,0,1,1.85-.27,6.4,6.4,0,0,1,2.25.38,4.44,4.44,0,0,1,1.82,1.33Z"/><path class="cls-5" d="M380.13,301a3.14,3.14,0,0,0-1.11-.89,3,3,0,0,0-1.31-.28,3.33,3.33,0,0,0-1.42.28,2.71,2.71,0,0,0-1,.77,3.45,3.45,0,0,0-.6,1.14,4.45,4.45,0,0,0-.21,1.39,3.93,3.93,0,0,0,.24,1.38,3.41,3.41,0,0,0,.66,1.14,2.84,2.84,0,0,0,1,.77,3.06,3.06,0,0,0,1.34.28,2.84,2.84,0,0,0,2.44-1.19l1.2,1.13a4.31,4.31,0,0,1-1.65,1.17,5.33,5.33,0,0,1-2,.37,5.4,5.4,0,0,1-2-.37,4.38,4.38,0,0,1-1.57-1.05,4.79,4.79,0,0,1-1-1.6,5.88,5.88,0,0,1,0-4,4.66,4.66,0,0,1,2.59-2.66,5.32,5.32,0,0,1,2-.38,5.45,5.45,0,0,1,2,.37,4.47,4.47,0,0,1,1.68,1.15Z"/><path class="cls-5" d="M383.19,292.7h1.61V300h0a2.51,2.51,0,0,1,.45-.56,3.09,3.09,0,0,1,.69-.51,4.75,4.75,0,0,1,.89-.37,4,4,0,0,1,1.05-.14,4.29,4.29,0,0,1,1.64.29,3.13,3.13,0,0,1,1.14.8,3.37,3.37,0,0,1,.67,1.24,5.79,5.79,0,0,1,.21,1.6v5.94H390v-5.78a3,3,0,0,0-.54-1.91,1.94,1.94,0,0,0-1.66-.7,3.13,3.13,0,0,0-1.35.27,2.27,2.27,0,0,0-.92.76,3.5,3.5,0,0,0-.54,1.17,6.31,6.31,0,0,0-.17,1.5v4.69h-1.61Z"/><path class="cls-5" d="M394.07,303.43a5.25,5.25,0,0,1,.39-2.06,4.64,4.64,0,0,1,1.07-1.59,4.7,4.7,0,0,1,1.62-1,5.89,5.89,0,0,1,4.11,0,4.84,4.84,0,0,1,1.63,1,4.77,4.77,0,0,1,1.06,1.59,5.48,5.48,0,0,1,0,4.11,4.77,4.77,0,0,1-1.06,1.59,4.84,4.84,0,0,1-1.63,1,5.89,5.89,0,0,1-4.11,0,4.7,4.7,0,0,1-1.62-1,4.64,4.64,0,0,1-1.07-1.59,5.24,5.24,0,0,1-.39-2.05m1.72,0a4,4,0,0,0,.24,1.4,3.34,3.34,0,0,0,.69,1.13,3.07,3.07,0,0,0,1.08.76,3.38,3.38,0,0,0,1.41.28,3.3,3.3,0,0,0,1.4-.28,3.07,3.07,0,0,0,1.08-.76,3.34,3.34,0,0,0,.69-1.13,4.23,4.23,0,0,0,0-2.81,3.34,3.34,0,0,0-.69-1.13,3.2,3.2,0,0,0-1.08-.76,3.3,3.3,0,0,0-1.4-.28,3.38,3.38,0,0,0-1.41.28,3.2,3.2,0,0,0-1.08.76A3.34,3.34,0,0,0,396,302a4,4,0,0,0-.24,1.41"/><path class="cls-5" d="M406.28,303.43a5.25,5.25,0,0,1,.39-2.06,4.64,4.64,0,0,1,1.07-1.59,4.7,4.7,0,0,1,1.62-1,5.89,5.89,0,0,1,4.11,0,4.7,4.7,0,0,1,1.62,1,4.64,4.64,0,0,1,1.07,1.59,5.61,5.61,0,0,1,0,4.11,4.64,4.64,0,0,1-1.07,1.59,4.7,4.7,0,0,1-1.62,1,5.89,5.89,0,0,1-4.11,0,4.7,4.7,0,0,1-1.62-1,4.64,4.64,0,0,1-1.07-1.59,5.24,5.24,0,0,1-.39-2.05m1.72,0a4,4,0,0,0,.24,1.4,3.34,3.34,0,0,0,.69,1.13,3.07,3.07,0,0,0,1.08.76,3.67,3.67,0,0,0,2.81,0,3.07,3.07,0,0,0,1.08-.76,3.34,3.34,0,0,0,.69-1.13,4.23,4.23,0,0,0,0-2.81,3.34,3.34,0,0,0-.69-1.13,3.2,3.2,0,0,0-1.08-.76,3.67,3.67,0,0,0-2.81,0,3.2,3.2,0,0,0-1.08.76,3.34,3.34,0,0,0-.69,1.13,4,4,0,0,0-.24,1.41"/><rect class="cls-5" x="419.18" y="292.7" width="1.6" height="15.54"/><rect class="cls-5" x="171.6" y="349.99" width="65.61" height="0.98"/><rect class="cls-5" x="355.18" y="349.99" width="65.61" height="0.98"/><path class="cls-5" d="M244.75,351.25a2.7,2.7,0,0,0,2.41,1.37,1.76,1.76,0,0,0,1.91-1.53c0-2.29-4.94-.68-4.94-3.85a2.58,2.58,0,0,1,2.85-2.4,3,3,0,0,1,2.93,1.57l-1,.57a2,2,0,0,0-2-1.17c-.78,0-1.77.47-1.77,1.34,0,2.25,4.94.5,4.94,3.87,0,1.71-1.43,2.57-3,2.57a3.67,3.67,0,0,1-3.35-1.69Z"/><path class="cls-5" d="M253.12,341a.81.81,0,1,1-.82.81.81.81,0,0,1,.82-.81m-.55,4.11h1.08v8.32h-1.08Z"/><path class="cls-5" d="M256.71,347.4c0-.61-.09-1.91-.09-2.34h1.08c0,.61,0,1.3.08,1.46h.05a3.12,3.12,0,0,1,2.85-1.68c2.59,0,3.16,1.77,3.16,3.59v4.95h-1.08v-4.9c0-1.35-.37-2.67-2.08-2.67s-2.89,1.12-2.89,3.41v4.16h-1.08Z"/><path class="cls-5" d="M273.69,352.15a3.83,3.83,0,0,1-3.06,1.44,4.38,4.38,0,1,1,0-8.75,4.07,4.07,0,0,1,3.1,1.44l-.87.65a3.05,3.05,0,0,0-2.23-1.12,3.41,3.41,0,0,0,0,6.81,2.9,2.9,0,0,0,2.23-1.15Z"/><path class="cls-5" d="M282.73,351.81a4.32,4.32,0,0,1-7.82-2.61,4.13,4.13,0,0,1,4.16-4.36,3.79,3.79,0,0,1,3.91,3.89v.76h-7a3.1,3.1,0,0,0,3.15,3.13,3.34,3.34,0,0,0,2.79-1.48Zm-.83-3.29a2.8,2.8,0,0,0-2.88-2.71,3.09,3.09,0,0,0-3,2.71Z"/><polygon class="cls-5" points="290.58 342.03 290.56 342.03 288.25 343.93 287.59 343.1 290.74 340.52 291.66 340.52 291.66 353.27 290.58 353.27 290.58 342.03"/><path class="cls-5" d="M301.57,347.65h0a3.33,3.33,0,0,1-1.89.54,3.83,3.83,0,0,1-3.91-3.92,4.18,4.18,0,0,1,8.35,0,6.34,6.34,0,0,1-1.16,3.25l-3.46,5.75H298.1Zm1.34-3.38a3,3,0,0,0-6,0,3,3,0,0,0,6,0"/><path class="cls-5" d="M309.28,340.3a3.29,3.29,0,0,1,3.49,3.32,3,3,0,0,1-2,2.81h0a3.19,3.19,0,0,1,2.48,3.28,3.94,3.94,0,0,1-7.88,0,3.19,3.19,0,0,1,2.48-3.28h0a3,3,0,0,1-2-2.81,3.29,3.29,0,0,1,3.49-3.32m0,12.21a2.79,2.79,0,1,0-2.76-2.79,2.68,2.68,0,0,0,2.76,2.79m0-6.55a2.27,2.27,0,0,0,2.3-2.34,2.31,2.31,0,1,0-4.61,0,2.27,2.27,0,0,0,2.31,2.34"/><polygon class="cls-5" points="321.93 341.49 316.86 353.27 315.65 353.27 320.82 341.49 314.69 341.49 314.69 340.52 321.93 340.52 321.93 341.49"/><path class="cls-5" d="M336.59,352.9c0,.3-.33.58-.9.58a2.29,2.29,0,0,1-2.18-1.25c-.67.84-1.88,1.31-3.74,1.31a12.1,12.1,0,0,1-2.4-.25l.12-.81.09-.08a15.72,15.72,0,0,0,2.24.19,4.54,4.54,0,0,0,3.29-1.1c-.65-1.29-1.77-3.44-2.66-5l.7-.75h.14c.68,1.41,1.95,4.07,2.69,5.44.61,1.12,1.09,1.38,2.09,1.38.38,0,.52.14.52.35m-5.51-9.71-1.09-.76.67-1,1.1.74Z"/><path class="cls-5" d="M342.57,352.9c0,.3-.3.58-.87.58a4.21,4.21,0,0,1-2.83-1,3.13,3.13,0,0,1-2.64,1h-.52l.38-.93h.38a2.4,2.4,0,0,0,1.77-.57,13.46,13.46,0,0,0,1.08-3.25l.92-.22.15.07a15.94,15.94,0,0,1-1,3.14,4.16,4.16,0,0,0,2.72.83c.38,0,.49.14.49.35M339.76,346l-1.08-.76.66-1,1.1.74Z"/><path class="cls-5" d="M350.09,352.06a1.52,1.52,0,0,1-1.74,1.63,7.3,7.3,0,0,1-3.88-1.53c-.63,1-1.25,1.32-2.77,1.32l.38-.93c1.08,0,1.31-.36,1.88-1.34s1.44-3.79,3.13-3.79,3,2.57,3,4.64m-3-3.69c-.95,0-1.58,1.79-2.15,3a6.8,6.8,0,0,0,3.17,1.36c.59,0,.91-.11,1.1-.36.17-1.46-1-4-2.12-4"/></g></g></svg>