<?xml version="1.0" encoding="UTF-8" standalone="no"?>
<!-- Created with Inkscape (http://www.inkscape.org/) -->

<svg
   xmlns:dc="http://purl.org/dc/elements/1.1/"
   xmlns:cc="http://creativecommons.org/ns#"
   xmlns:rdf="http://www.w3.org/1999/02/22-rdf-syntax-ns#"
   xmlns:svg="http://www.w3.org/2000/svg"
   xmlns="http://www.w3.org/2000/svg"
   xmlns:sodipodi="http://sodipodi.sourceforge.net/DTD/sodipodi-0.dtd"
   xmlns:inkscape="http://www.inkscape.org/namespaces/inkscape"
   id="svg2985"
   version="1.1"
   inkscape:version="0.48.5 r10040"
   width="1000"
   height="351.07907"
   xml:space="preserve"
   sodipodi:docname="A.svg"><metadata
     id="metadata2991"><rdf:RDF><cc:Work
         rdf:about=""><dc:format>image/svg+xml</dc:format><dc:type
           rdf:resource="http://purl.org/dc/dcmitype/StillImage" /></cc:Work></rdf:RDF></metadata><defs
     id="defs2989"><clipPath
       clipPathUnits="userSpaceOnUse"
       id="clipPath2999"><path
         d="M 0,792 612,792 612,0.03 0,0.03 0,792 z"
         id="path3001"
         inkscape:connector-curvature="0" /></clipPath><clipPath
       clipPathUnits="userSpaceOnUse"
       id="clipPath3257"><path
         d="m 358.308,54.647 -145.684,0 0,-33.619 145.684,0 0,33.619 z"
         id="path3259"
         inkscape:connector-curvature="0" /></clipPath><clipPath
       clipPathUnits="userSpaceOnUse"
       id="clipPath3263"><path
         d="m 350.106,35.566 0,-2.997 -7.451,0 0,11.011 7.364,0 0,-2.999 -3.469,0 0,-1.034 3.144,0 0,-2.832 -3.144,0 0,-1.149 3.556,0 m -12.476,4.401 0,-7.398 -3.949,0 0,7.398 -2.215,0 0,3.613 8.375,0 0,-3.613 -2.211,0 m -13.141,-0.379 c -0.336,0.381 -0.783,0.575 -1.338,0.575 -0.556,0 -1.002,-0.196 -1.343,-0.58 -0.338,-0.387 -0.51,-0.893 -0.51,-1.52 0,-0.627 0.172,-1.129 0.51,-1.508 0.341,-0.379 0.787,-0.568 1.343,-0.568 0.555,0 1.002,0.189 1.338,0.568 0.34,0.379 0.508,0.881 0.508,1.508 0,0.632 -0.168,1.141 -0.508,1.525 m 4.114,-3.777 c -0.288,-0.695 -0.704,-1.313 -1.256,-1.861 -0.553,-0.536 -1.186,-0.946 -1.907,-1.233 -0.718,-0.284 -1.486,-0.428 -2.297,-0.428 -0.822,0 -1.589,0.144 -2.306,0.428 -0.719,0.287 -1.356,0.702 -1.91,1.248 -0.547,0.533 -0.961,1.143 -1.241,1.834 -0.283,0.692 -0.421,1.446 -0.421,2.262 0,0.816 0.138,1.573 0.421,2.269 0.28,0.696 0.694,1.311 1.241,1.842 0.551,0.539 1.185,0.952 1.9,1.237 0.717,0.281 1.488,0.423 2.316,0.423 0.829,0 1.6,-0.142 2.315,-0.423 0.719,-0.285 1.355,-0.698 1.912,-1.237 0.539,-0.538 0.951,-1.152 1.236,-1.849 0.282,-0.697 0.426,-1.451 0.426,-2.262 0,-0.806 -0.146,-1.557 -0.429,-2.25 m -14.694,-0.122 c -0.101,-0.505 -0.267,-0.927 -0.49,-1.27 -0.441,-0.688 -1.045,-1.214 -1.807,-1.58 -0.761,-0.366 -1.632,-0.55 -2.611,-0.55 -0.98,0 -1.854,0.184 -2.613,0.55 -0.764,0.366 -1.364,0.892 -1.807,1.58 -0.221,0.336 -0.381,0.753 -0.48,1.257 -0.102,0.5 -0.149,1.151 -0.149,1.948 l 0,5.956 3.949,0 0,-5.986 c 0,-0.695 0.082,-1.174 0.249,-1.436 0.166,-0.263 0.451,-0.395 0.851,-0.395 0.4,0 0.686,0.134 0.855,0.405 0.172,0.271 0.258,0.745 0.258,1.426 l 0,5.986 3.95,0 0,-5.956 c 0,-0.782 -0.051,-1.427 -0.155,-1.935 m -18.201,4.552 c -0.369,0.415 -0.859,0.623 -1.471,0.623 -0.609,0 -1.099,-0.21 -1.472,-0.632 -0.377,-0.419 -0.563,-0.97 -0.563,-1.653 0,-0.683 0.184,-1.225 0.549,-1.625 0.365,-0.402 0.861,-0.602 1.486,-0.602 l 0.223,0 -0.981,1.107 2.729,0.53 c 0.02,0.097 0.037,0.197 0.045,0.295 0.01,0.097 0.012,0.197 0.012,0.295 0,0.692 -0.186,1.247 -0.557,1.662 m 3.949,-5.139 1.821,-2.029 -3.418,-1.512 -0.869,1.388 c -0.495,-0.22 -0.985,-0.386 -1.473,-0.493 -0.488,-0.112 -0.981,-0.167 -1.481,-0.167 -0.91,0 -1.756,0.154 -2.537,0.457 -0.781,0.302 -1.474,0.75 -2.078,1.342 -0.598,0.58 -1.049,1.25 -1.359,2.012 -0.305,0.76 -0.457,1.588 -0.457,2.479 0,0.898 0.154,1.73 0.462,2.496 0.309,0.765 0.76,1.437 1.352,2.011 0.592,0.586 1.279,1.03 2.063,1.331 0.783,0.302 1.632,0.452 2.546,0.452 0.911,0 1.758,-0.154 2.545,-0.458 0.784,-0.309 1.477,-0.754 2.073,-1.339 0.593,-0.587 1.043,-1.259 1.353,-2.019 0.309,-0.76 0.465,-1.584 0.465,-2.472 0,-0.666 -0.084,-1.288 -0.252,-1.86 -0.166,-0.57 -0.418,-1.109 -0.756,-1.619 m -15.263,0.587 c -0.104,-0.505 -0.266,-0.927 -0.491,-1.27 -0.443,-0.688 -1.045,-1.214 -1.806,-1.58 -0.762,-0.366 -1.631,-0.55 -2.61,-0.55 -0.984,0 -1.855,0.184 -2.617,0.55 -0.762,0.366 -1.363,0.892 -1.805,1.58 -0.22,0.336 -0.38,0.753 -0.48,1.257 -0.1,0.5 -0.15,1.151 -0.15,1.948 l 0,5.956 3.949,0 0,-5.986 c 0,-0.695 0.084,-1.174 0.25,-1.436 0.166,-0.263 0.451,-0.395 0.853,-0.395 0.399,0 0.684,0.134 0.854,0.405 0.17,0.271 0.256,0.745 0.256,1.426 l 0,5.986 3.953,0 0,-5.956 c 0,-0.782 -0.055,-1.427 -0.156,-1.935 m -15.438,4.557 c -0.651,0 -1.17,-0.2 -1.565,-0.598 -0.396,-0.397 -0.591,-0.929 -0.591,-1.589 0,-0.646 0.186,-1.162 0.564,-1.549 0.375,-0.386 0.881,-0.578 1.516,-0.578 0.381,0 0.769,0.082 1.164,0.248 0.395,0.164 0.826,0.426 1.293,0.787 l -0.127,-4.152 c -0.432,-0.174 -0.865,-0.307 -1.298,-0.395 -0.43,-0.088 -0.86,-0.131 -1.292,-0.131 -0.537,0 -1.056,0.061 -1.552,0.181 -0.498,0.12 -0.944,0.291 -1.347,0.513 -0.974,0.56 -1.708,1.271 -2.208,2.128 -0.498,0.858 -0.748,1.843 -0.748,2.956 0,0.823 0.141,1.585 0.425,2.288 0.284,0.702 0.695,1.321 1.239,1.858 0.546,0.541 1.178,0.952 1.897,1.229 0.722,0.279 1.503,0.418 2.338,0.418 0.448,0 0.888,-0.047 1.321,-0.139 0.436,-0.093 0.86,-0.232 1.27,-0.418 l 0,-4.066 c -0.361,0.34 -0.731,0.592 -1.109,0.76 -0.377,0.166 -0.774,0.249 -1.19,0.249 m -11.391,0 c -0.649,0 -1.17,-0.2 -1.565,-0.598 -0.393,-0.397 -0.592,-0.929 -0.592,-1.589 0,-0.646 0.191,-1.162 0.567,-1.549 0.375,-0.386 0.88,-0.578 1.513,-0.578 0.381,0 0.772,0.082 1.166,0.248 0.395,0.164 0.827,0.426 1.293,0.787 l -0.129,-4.152 c -0.43,-0.174 -0.863,-0.307 -1.295,-0.395 -0.431,-0.088 -0.861,-0.131 -1.295,-0.131 -0.535,0 -1.052,0.061 -1.55,0.181 -0.494,0.12 -0.946,0.291 -1.346,0.513 -0.975,0.56 -1.711,1.271 -2.209,2.128 -0.498,0.858 -0.75,1.843 -0.75,2.956 0,0.823 0.143,1.585 0.426,2.288 0.283,0.702 0.697,1.321 1.24,1.858 0.545,0.541 1.18,0.952 1.899,1.229 0.721,0.279 1.5,0.418 2.335,0.418 0.448,0 0.889,-0.047 1.323,-0.139 0.436,-0.093 0.857,-0.232 1.268,-0.418 l 0,-4.066 c -0.361,0.34 -0.731,0.592 -1.107,0.76 -0.378,0.166 -0.776,0.249 -1.192,0.249 m -13.924,-1.942 c -0.182,0.689 -0.303,1.218 -0.369,1.591 -0.067,0.373 -0.108,0.722 -0.124,1.051 l -0.074,0 c -0.017,-0.329 -0.056,-0.678 -0.123,-1.051 -0.064,-0.373 -0.187,-0.902 -0.369,-1.591 l -0.369,-1.364 1.799,0 -0.371,1.364 m 1.494,-5.735 -0.385,1.515 -3.26,0 -0.369,-1.515 -4.646,0 4.293,12.019 4.81,0 4.203,-12.019 -4.646,0"
         id="path3265"
         inkscape:connector-curvature="0" /></clipPath><clipPath
       clipPathUnits="userSpaceOnUse"
       id="clipPath3275"><path
         d="m 358.308,54.647 -145.684,0 0,-33.619 145.684,0 0,33.619 z"
         id="path3277"
         inkscape:connector-curvature="0" /></clipPath><clipPath
       clipPathUnits="userSpaceOnUse"
       id="clipPath3281"><path
         d="m 337.257,27.714 c -0.164,0.253 -0.412,0.38 -0.746,0.38 -0.301,0 -0.572,-0.101 -0.813,-0.303 -0.242,-0.204 -0.4,-0.47 -0.484,-0.81 l 2.162,0 c 0.027,0.327 -0.012,0.57 -0.119,0.733 m 0.75,-1.096 -0.037,-0.174 -2.887,0 c -0.053,-0.428 0.012,-0.753 0.189,-0.977 0.176,-0.227 0.426,-0.341 0.749,-0.341 0.242,0 0.459,0.063 0.65,0.191 0.193,0.124 0.363,0.325 0.51,0.604 l 0.664,-0.084 c -0.178,-0.397 -0.43,-0.705 -0.756,-0.921 -0.328,-0.22 -0.719,-0.329 -1.166,-0.329 -0.569,0 -0.987,0.175 -1.256,0.523 -0.27,0.348 -0.35,0.838 -0.238,1.468 0.111,0.65 0.371,1.157 0.771,1.516 0.397,0.362 0.863,0.539 1.399,0.539 0.517,0 0.91,-0.175 1.177,-0.53 0.264,-0.35 0.34,-0.847 0.231,-1.485 m -3.268,2.847 c -0.133,0.026 -0.257,0.037 -0.379,0.037 -0.201,0 -0.349,-0.043 -0.445,-0.126 -0.098,-0.085 -0.168,-0.244 -0.209,-0.477 l -0.063,-0.357 0.754,0 -0.091,-0.512 -0.752,0 -0.594,-3.362 -0.652,0 0.593,3.362 -0.58,0 0.09,0.512 0.578,0 0.075,0.411 c 0.044,0.259 0.101,0.452 0.171,0.577 0.092,0.173 0.227,0.31 0.407,0.414 0.175,0.107 0.41,0.16 0.695,0.16 0.185,0 0.385,-0.022 0.602,-0.066 l -0.2,-0.573 m -3.666,-4.789 -0.654,0 0.682,3.872 0.658,0 -0.686,-3.872 m 0.811,4.589 -0.658,0 0.134,0.755 0.659,0 -0.135,-0.755 m -2.188,-3.96 -0.111,-0.629 -3.34,0 0.942,5.344 0.708,0 -0.832,-4.715 2.633,0 m -5.789,2.509 c -0.144,0.094 -0.295,0.141 -0.455,0.141 -0.144,0 -0.279,-0.042 -0.41,-0.129 -0.131,-0.088 -0.232,-0.206 -0.307,-0.359 -0.115,-0.234 -0.197,-0.489 -0.244,-0.765 l -0.359,-2.028 -0.656,0 0.683,3.871 0.592,0 -0.105,-0.585 c 0.199,0.273 0.371,0.455 0.513,0.543 0.143,0.085 0.291,0.13 0.444,0.13 0.22,0 0.433,-0.07 0.636,-0.211 l -0.332,-0.608 m -3.736,-0.093 c -0.172,0.246 -0.42,0.369 -0.746,0.369 -0.326,0 -0.621,-0.123 -0.883,-0.367 -0.258,-0.246 -0.432,-0.618 -0.518,-1.113 -0.087,-0.496 -0.045,-0.867 0.127,-1.112 0.172,-0.25 0.424,-0.372 0.752,-0.372 0.327,0 0.618,0.124 0.879,0.373 0.26,0.247 0.434,0.625 0.526,1.133 0.084,0.478 0.039,0.841 -0.137,1.089 m 0.816,-1.056 c -0.088,-0.498 -0.234,-0.89 -0.431,-1.177 -0.201,-0.284 -0.457,-0.505 -0.772,-0.664 -0.312,-0.157 -0.638,-0.237 -0.976,-0.237 -0.541,0 -0.948,0.173 -1.223,0.521 -0.271,0.348 -0.352,0.848 -0.236,1.502 0.126,0.717 0.419,1.248 0.881,1.594 0.382,0.286 0.812,0.429 1.291,0.429 0.533,0 0.937,-0.173 1.212,-0.523 0.278,-0.351 0.362,-0.83 0.254,-1.445 m -3.816,2.724 -2.899,0 -0.293,-1.654 2.51,0 -0.111,-0.631 -2.51,0 -0.428,-2.428 -0.705,0 0.94,5.344 3.607,0 -0.111,-0.631 m -8.834,-4.791 c -0.234,-0.425 -0.408,-0.718 -0.523,-0.879 -0.157,-0.215 -0.317,-0.375 -0.487,-0.475 -0.168,-0.099 -0.355,-0.152 -0.566,-0.152 -0.125,0 -0.26,0.029 -0.408,0.079 l 0.037,0.618 c 0.134,-0.039 0.258,-0.059 0.365,-0.059 0.144,0 0.268,0.024 0.361,0.071 0.098,0.052 0.182,0.119 0.252,0.206 0.053,0.067 0.149,0.229 0.287,0.489 l 0.088,0.161 -0.785,3.881 0.705,0 0.41,-2.245 c 0.055,-0.283 0.096,-0.583 0.123,-0.898 0.129,0.303 0.27,0.597 0.426,0.885 l 1.225,2.258 0.658,0 -2.168,-3.94 m -2.965,3.116 c -0.164,0.253 -0.412,0.38 -0.746,0.38 -0.303,0 -0.574,-0.101 -0.814,-0.303 -0.241,-0.204 -0.403,-0.47 -0.483,-0.81 l 2.162,0 c 0.027,0.327 -0.013,0.57 -0.119,0.733 m 0.746,-1.096 -0.035,-0.174 -2.887,0 c -0.051,-0.428 0.012,-0.753 0.19,-0.977 0.176,-0.227 0.424,-0.341 0.75,-0.341 0.238,0 0.457,0.063 0.648,0.191 0.193,0.124 0.364,0.325 0.512,0.604 l 0.662,-0.084 c -0.176,-0.397 -0.428,-0.705 -0.754,-0.921 -0.328,-0.22 -0.719,-0.329 -1.168,-0.329 -0.566,0 -0.984,0.175 -1.254,0.523 -0.271,0.348 -0.351,0.838 -0.238,1.468 0.113,0.65 0.369,1.157 0.769,1.516 0.399,0.362 0.866,0.539 1.401,0.539 0.517,0 0.91,-0.175 1.176,-0.53 0.263,-0.35 0.341,-0.847 0.228,-1.485 m -4.363,0.437 -0.422,-2.381 -0.654,0 0.414,2.356 c 0.047,0.266 0.058,0.467 0.031,0.599 -0.031,0.131 -0.102,0.238 -0.217,0.318 -0.117,0.078 -0.261,0.118 -0.435,0.118 -0.282,0 -0.537,-0.089 -0.772,-0.267 -0.234,-0.177 -0.394,-0.512 -0.482,-1.008 l -0.373,-2.116 -0.656,0 0.683,3.871 0.588,0 -0.096,-0.55 c 0.36,0.426 0.809,0.638 1.346,0.638 0.232,0 0.438,-0.043 0.619,-0.126 0.182,-0.084 0.311,-0.193 0.381,-0.329 0.074,-0.136 0.113,-0.299 0.121,-0.484 0.002,-0.123 -0.023,-0.336 -0.076,-0.639 m -4.869,0.666 c -0.176,0.246 -0.424,0.369 -0.748,0.369 -0.328,0 -0.621,-0.123 -0.881,-0.367 -0.262,-0.246 -0.434,-0.618 -0.52,-1.113 -0.09,-0.496 -0.046,-0.867 0.127,-1.112 0.172,-0.25 0.424,-0.372 0.75,-0.372 0.328,0 0.619,0.124 0.879,0.373 0.26,0.247 0.436,0.625 0.524,1.133 0.086,0.478 0.041,0.841 -0.131,1.089 m 0.812,-1.056 c -0.088,-0.498 -0.232,-0.89 -0.431,-1.177 -0.2,-0.284 -0.456,-0.505 -0.77,-0.664 -0.314,-0.157 -0.639,-0.237 -0.978,-0.237 -0.541,0 -0.95,0.173 -1.221,0.521 -0.274,0.348 -0.354,0.848 -0.236,1.502 0.127,0.717 0.419,1.248 0.878,1.594 0.383,0.286 0.815,0.429 1.293,0.429 0.532,0 0.938,-0.173 1.213,-0.523 0.276,-0.351 0.362,-0.83 0.252,-1.445 m -4.867,-1.989 -0.682,0 0.788,4.473 -2.342,-4.473 -0.637,0 -0.744,4.549 -0.803,-4.549 -0.68,0 0.94,5.344 1.066,0 0.598,-3.784 c 0.055,-0.354 0.094,-0.615 0.115,-0.792 0.096,0.195 0.241,0.479 0.436,0.857 l 1.935,3.719 0.951,0 -0.941,-5.344 m -8.43,-0.011 -0.586,0 0.1,0.568 c -0.379,-0.438 -0.828,-0.657 -1.344,-0.657 -0.228,0 -0.435,0.042 -0.619,0.131 -0.179,0.089 -0.308,0.198 -0.381,0.331 -0.072,0.133 -0.111,0.295 -0.117,0.487 -0.004,0.127 0.02,0.331 0.066,0.612 l 0.426,2.401 0.656,0 -0.378,-2.151 c -0.063,-0.342 -0.088,-0.572 -0.084,-0.691 0.011,-0.174 0.076,-0.309 0.191,-0.406 0.115,-0.101 0.274,-0.149 0.469,-0.149 0.199,0 0.392,0.05 0.582,0.152 0.191,0.099 0.336,0.237 0.437,0.412 0.104,0.171 0.186,0.426 0.243,0.757 l 0.365,2.076 0.656,0 -0.682,-3.873 m -4.425,3.056 c -0.174,0.246 -0.422,0.369 -0.746,0.369 -0.327,0 -0.622,-0.123 -0.881,-0.367 -0.26,-0.246 -0.434,-0.618 -0.52,-1.113 -0.09,-0.496 -0.047,-0.867 0.127,-1.112 0.174,-0.25 0.424,-0.372 0.752,-0.372 0.324,0 0.617,0.124 0.877,0.373 0.262,0.247 0.435,0.625 0.525,1.133 0.084,0.478 0.039,0.841 -0.134,1.089 m 0.816,-1.056 c -0.09,-0.498 -0.232,-0.89 -0.432,-1.177 -0.201,-0.284 -0.457,-0.505 -0.771,-0.664 -0.313,-0.157 -0.639,-0.237 -0.977,-0.237 -0.543,0 -0.949,0.173 -1.222,0.521 -0.274,0.348 -0.35,0.848 -0.237,1.502 0.125,0.717 0.42,1.248 0.879,1.594 0.383,0.286 0.815,0.429 1.293,0.429 0.533,0 0.938,-0.173 1.213,-0.523 0.277,-0.351 0.361,-0.83 0.254,-1.445 m -5.414,0.275 -0.398,-2.264 -0.708,0 0.399,2.264 -1.516,3.08 0.862,0 0.769,-1.611 c 0.139,-0.301 0.27,-0.602 0.383,-0.905 0.209,0.28 0.461,0.594 0.748,0.945 l 1.315,1.571 0.824,0 -2.678,-3.08 m -6.299,0.788 c -0.168,0.243 -0.4,0.362 -0.697,0.362 -0.291,0 -0.561,-0.117 -0.807,-0.355 -0.247,-0.237 -0.411,-0.59 -0.493,-1.057 -0.09,-0.507 -0.055,-0.877 0.107,-1.111 0.161,-0.232 0.394,-0.35 0.697,-0.35 0.302,0 0.574,0.116 0.819,0.349 0.245,0.232 0.411,0.595 0.498,1.092 0.085,0.473 0.044,0.831 -0.124,1.07 m 0.48,-2.528 c -0.107,-0.604 -0.242,-1.03 -0.411,-1.282 -0.165,-0.253 -0.393,-0.451 -0.687,-0.596 -0.292,-0.146 -0.632,-0.218 -1.021,-0.218 -0.462,0 -0.816,0.102 -1.064,0.311 -0.248,0.207 -0.33,0.521 -0.246,0.937 l 0.621,-0.094 c -0.009,-0.196 0.041,-0.34 0.145,-0.428 0.144,-0.123 0.353,-0.185 0.635,-0.185 0.306,0 0.55,0.062 0.738,0.185 0.187,0.121 0.328,0.29 0.425,0.507 0.057,0.136 0.123,0.416 0.196,0.843 -0.346,-0.338 -0.733,-0.506 -1.16,-0.506 -0.534,0 -0.911,0.192 -1.138,0.576 -0.222,0.383 -0.287,0.843 -0.194,1.382 0.068,0.369 0.194,0.71 0.382,1.023 0.19,0.312 0.425,0.554 0.709,0.724 0.285,0.169 0.597,0.254 0.942,0.254 0.457,0 0.8,-0.184 1.031,-0.554 l 0.084,0.466 0.605,0 -0.592,-3.345 m -3.923,1.855 -0.421,-2.381 -0.657,0 0.416,2.356 c 0.047,0.266 0.055,0.467 0.029,0.599 -0.028,0.131 -0.1,0.238 -0.215,0.318 -0.117,0.078 -0.265,0.118 -0.438,0.118 -0.278,0 -0.536,-0.089 -0.772,-0.267 -0.232,-0.177 -0.391,-0.512 -0.479,-1.008 l -0.374,-2.116 -0.657,0 0.682,3.871 0.593,0 -0.098,-0.55 c 0.358,0.426 0.809,0.638 1.346,0.638 0.232,0 0.438,-0.043 0.619,-0.126 0.181,-0.084 0.309,-0.193 0.38,-0.329 0.074,-0.136 0.115,-0.299 0.121,-0.484 0.003,-0.123 -0.022,-0.336 -0.075,-0.639 m -4.646,-2.379 -0.655,0 0.681,3.872 0.657,0 -0.683,-3.872 m 0.809,4.589 -0.656,0 0.132,0.755 0.658,0 -0.134,-0.755 m -3.594,-4.6 -0.611,0 -0.791,3.873 0.693,0 0.422,-2.321 c 0.047,-0.25 0.085,-0.512 0.111,-0.781 0.094,0.205 0.219,0.451 0.373,0.738 l 1.278,2.364 0.674,0 -2.149,-3.873 m -4.21,1.706 c -0.276,-0.04 -0.477,-0.083 -0.596,-0.134 -0.122,-0.046 -0.219,-0.117 -0.298,-0.211 -0.076,-0.094 -0.124,-0.197 -0.144,-0.314 -0.033,-0.174 0.01,-0.32 0.121,-0.436 0.111,-0.117 0.295,-0.176 0.549,-0.176 0.254,0 0.488,0.055 0.705,0.167 0.217,0.11 0.387,0.261 0.514,0.454 0.097,0.148 0.17,0.369 0.22,0.654 l 0.043,0.243 c -0.255,-0.097 -0.627,-0.179 -1.114,-0.247 m 1.876,0.799 -0.154,-0.873 c -0.108,-0.611 -0.162,-0.996 -0.162,-1.158 -0.002,-0.162 0.027,-0.317 0.084,-0.465 l -0.686,0 c -0.045,0.135 -0.059,0.296 -0.047,0.479 -0.279,-0.208 -0.541,-0.355 -0.779,-0.439 -0.24,-0.085 -0.488,-0.127 -0.745,-0.127 -0.427,0 -0.735,0.103 -0.927,0.313 -0.191,0.206 -0.258,0.471 -0.201,0.796 0.031,0.188 0.105,0.362 0.219,0.516 0.115,0.16 0.25,0.287 0.406,0.38 0.156,0.094 0.326,0.166 0.512,0.215 0.134,0.033 0.334,0.067 0.599,0.1 0.541,0.061 0.944,0.136 1.212,0.224 l 0.03,0.172 c 0.049,0.268 0.02,0.454 -0.084,0.564 -0.142,0.149 -0.378,0.223 -0.709,0.223 -0.307,0 -0.544,-0.054 -0.712,-0.164 -0.166,-0.105 -0.307,-0.297 -0.428,-0.573 l -0.625,0.086 c 0.107,0.277 0.242,0.499 0.404,0.667 0.164,0.17 0.381,0.299 0.649,0.392 0.269,0.089 0.57,0.135 0.902,0.135 0.332,0 0.595,-0.039 0.787,-0.116 0.191,-0.078 0.326,-0.177 0.402,-0.294 0.079,-0.12 0.118,-0.266 0.127,-0.447 0.002,-0.112 -0.023,-0.313 -0.074,-0.606 m -4.017,1.337 -0.688,-0.049 c 0.023,0.335 -0.055,0.592 -0.234,0.765 -0.182,0.172 -0.475,0.258 -0.887,0.258 -0.426,0 -0.752,-0.079 -0.975,-0.234 -0.224,-0.16 -0.355,-0.346 -0.394,-0.567 -0.035,-0.193 0.006,-0.35 0.123,-0.476 0.115,-0.122 0.449,-0.25 1,-0.38 0.553,-0.13 0.928,-0.244 1.123,-0.341 0.285,-0.143 0.484,-0.325 0.594,-0.545 0.109,-0.219 0.138,-0.473 0.088,-0.76 -0.051,-0.285 -0.18,-0.554 -0.387,-0.804 -0.207,-0.25 -0.477,-0.447 -0.805,-0.586 -0.33,-0.141 -0.685,-0.211 -1.066,-0.211 -0.485,0 -0.879,0.072 -1.18,0.213 -0.301,0.14 -0.522,0.353 -0.656,0.636 -0.137,0.284 -0.178,0.603 -0.123,0.96 l 0.677,0.058 c -0.017,-0.267 0.018,-0.487 0.104,-0.657 0.086,-0.171 0.238,-0.312 0.465,-0.416 0.222,-0.105 0.486,-0.159 0.791,-0.159 0.271,0 0.515,0.041 0.736,0.121 0.221,0.08 0.395,0.189 0.52,0.33 0.125,0.139 0.201,0.293 0.232,0.457 0.027,0.168 0.006,0.314 -0.068,0.439 -0.076,0.125 -0.219,0.232 -0.426,0.315 -0.135,0.054 -0.436,0.144 -0.906,0.261 -0.469,0.118 -0.795,0.23 -0.973,0.334 -0.23,0.133 -0.393,0.3 -0.482,0.498 -0.092,0.199 -0.116,0.42 -0.071,0.664 0.047,0.272 0.168,0.522 0.364,0.756 0.193,0.235 0.449,0.414 0.763,0.535 0.317,0.123 0.653,0.182 1.012,0.182 0.399,0 0.734,-0.063 1.016,-0.191 0.279,-0.128 0.478,-0.315 0.599,-0.565 0.117,-0.246 0.157,-0.529 0.114,-0.841"
         id="path3283"
         inkscape:connector-curvature="0" /></clipPath><clipPath
       clipPathUnits="userSpaceOnUse"
       id="clipPath3293"><path
         d="m 358.308,54.647 -145.684,0 0,-33.619 145.684,0 0,33.619 z"
         id="path3295"
         inkscape:connector-curvature="0" /></clipPath><clipPath
       clipPathUnits="userSpaceOnUse"
       id="clipPath3299"><path
         d="m 353.14,46.395 0.379,0 c 0.164,0 0.273,-0.012 0.332,-0.035 l 0.14,-0.107 0.053,-0.162 c 0,-0.093 -0.035,-0.169 -0.105,-0.225 -0.071,-0.057 -0.204,-0.086 -0.395,-0.086 l -0.404,0 0,0.615 m 0,-1.758 0,0.863 0.195,0 c 0.115,-10e-4 0.205,-0.027 0.266,-0.074 0.084,-0.065 0.197,-0.22 0.339,-0.47 l 0.182,-0.319 0.404,0 -0.25,0.397 c -0.117,0.187 -0.218,0.321 -0.302,0.4 l -0.172,0.108 c 0.174,0.013 0.318,0.075 0.426,0.185 0.105,0.111 0.158,0.24 0.158,0.389 0,0.105 -0.032,0.206 -0.096,0.3 -0.062,0.094 -0.148,0.159 -0.258,0.198 -0.105,0.035 -0.279,0.054 -0.519,0.054 l -0.701,0 0,-2.031 0.328,0 m 1.277,2.416 c 0.252,-0.136 0.449,-0.33 0.59,-0.584 0.142,-0.252 0.213,-0.514 0.213,-0.789 0,-0.271 -0.071,-0.533 -0.209,-0.782 -0.139,-0.249 -0.332,-0.444 -0.582,-0.584 -0.254,-0.139 -0.514,-0.209 -0.787,-0.209 -0.276,0 -0.537,0.07 -0.785,0.209 -0.253,0.14 -0.446,0.335 -0.584,0.584 -0.141,0.249 -0.211,0.511 -0.211,0.782 0,0.275 0.07,0.537 0.212,0.789 0.141,0.254 0.338,0.448 0.59,0.584 0.252,0.135 0.512,0.204 0.778,0.204 0.265,0 0.521,-0.069 0.775,-0.204 m -1.707,0.275 c -0.303,-0.162 -0.541,-0.396 -0.709,-0.701 -0.17,-0.302 -0.256,-0.618 -0.256,-0.947 0,-0.325 0.084,-0.639 0.252,-0.939 0.166,-0.301 0.4,-0.535 0.701,-0.701 0.299,-0.165 0.616,-0.251 0.944,-0.251 0.328,0 0.64,0.086 0.941,0.251 0.301,0.166 0.535,0.4 0.703,0.701 0.166,0.3 0.25,0.614 0.25,0.939 0,0.329 -0.086,0.645 -0.256,0.947 -0.17,0.305 -0.404,0.539 -0.709,0.701 -0.3,0.163 -0.611,0.245 -0.929,0.245 -0.319,0 -0.629,-0.082 -0.932,-0.245"
         id="path3301"
         inkscape:connector-curvature="0" /></clipPath><clipPath
       clipPathUnits="userSpaceOnUse"
       id="clipPath3383"><path
         d="m 611.786,543.311 -170.803,0 0,135.552 170.803,0 0,-135.552 m 0,249.412 -170.803,0 0,6.491 170.803,0 0,-6.491"
         id="path3385"
         inkscape:connector-curvature="0" /></clipPath><clipPath
       clipPathUnits="userSpaceOnUse"
       id="clipPath3389"><path
         d="M 0,792 612,792 612,0.03 0,0.03 0,792 z"
         id="path3391"
         inkscape:connector-curvature="0" /></clipPath><clipPath
       clipPathUnits="userSpaceOnUse"
       id="clipPath3401"><path
         d="m 440.983,792 170.803,0 0,-113.137 -170.803,0 0,113.137 z"
         id="path3403"
         inkscape:connector-curvature="0" /></clipPath><clipPath
       clipPathUnits="userSpaceOnUse"
       id="clipPath3413"><path
         d="M 0,792 612,792 612,0.03 0,0.03 0,792 z"
         id="path3415"
         inkscape:connector-curvature="0" /></clipPath></defs><sodipodi:namedview
     pagecolor="#ffffff"
     bordercolor="#666666"
     borderopacity="1"
     objecttolerance="10"
     gridtolerance="10"
     guidetolerance="10"
     inkscape:pageopacity="0"
     inkscape:pageshadow="2"
     inkscape:window-width="1063"
     inkscape:window-height="1032"
     id="namedview2987"
     showgrid="false"
     fit-margin-left="0.5"
     fit-margin-bottom="0.5"
     fit-margin-top="0.5"
     fit-margin-right="0.5"
     inkscape:zoom="0.54980454"
     inkscape:cx="629.20204"
     inkscape:cy="29.610761"
     inkscape:window-x="854"
     inkscape:window-y="-11"
     inkscape:window-maximized="0"
     inkscape:current-layer="g2993" /><g
     id="g2993"
     inkscape:groupmode="layer"
     inkscape:label="beneficiary"
     transform="matrix(1.25,0,0,-1.25,-3178.9375,-849.28092)"><g
       id="g3964"
       transform="matrix(5.680001,0,0,5.680001,2580.737,-872.52962)"><path
         inkscape:connector-curvature="0"
         d="m 0,0 -6.547,-14.999 1.463,0 1.695,3.984 7.946,0 1.63,-3.984 1.567,0 L 1.442,0 0,0 z m 0.657,-1.524 3.389,-8.219 -6.886,0 3.497,8.219 z"
         style="fill:#231f20;fill-opacity:1;fill-rule:nonzero;stroke:none"
         id="path3966" /></g><g
       id="g3976"
       transform="matrix(5.680001,0,0,5.680001,2704.8001,-944.35886)"><path
         d="m 0,0 c -1.419,-1.95 -3.369,-2.734 -5.571,-2.734 -4.576,0 -7.754,3.306 -7.754,7.882 0,4.576 3.178,7.882 7.754,7.882 2.032,0 3.855,-0.681 5.167,-2.353 L -1.547,9.724 c -0.931,1.398 -2.519,2.032 -4.024,2.032 -3.92,0 -6.358,-2.878 -6.358,-6.608 0,-3.73 2.438,-6.609 6.358,-6.609 1.505,0 3.367,0.719 4.427,2.33 L 0,0 z"
         style="fill:#231f20;fill-opacity:1;fill-rule:nonzero;stroke:none"
         id="path3978"
         inkscape:connector-curvature="0" /></g><g
       id="g3980"
       transform="matrix(5.680001,0,0,5.680001,2719.3585,-872.52502)"><path
         d="m 0,0 1.397,0 0,-6.61 8.39,0 0,6.61 1.399,0 0,-14.999 -1.399,0 0,7.118 -8.39,0 0,-7.118 -1.397,0 L 0,0 z"
         style="fill:#231f20;fill-opacity:1;fill-rule:nonzero;stroke:none"
         id="path3982"
         inkscape:connector-curvature="0" /></g><path
       d="m 2806.2364,-872.52445 7.9407,0 0,-85.19434 -7.9407,0 0,85.19434 z"
       style="fill:#231f20;fill-opacity:1;fill-rule:nonzero;stroke:none"
       id="path3984"
       inkscape:connector-curvature="0" /><g
       id="g3986"
       transform="matrix(5.680001,0,0,5.680001,2837.5213,-872.52502)"><path
         d="m 0,0 9.173,0 0,-1.269 -7.775,0 0,-5.341 7.288,0 0,-1.271 -7.288,0 0,-5.848 8.115,0 0,-1.27 -9.513,0 L 0,0 z"
         style="fill:#231f20;fill-opacity:1;fill-rule:nonzero;stroke:none"
         id="path3988"
         inkscape:connector-curvature="0" /></g><g
       id="g3990"
       transform="matrix(5.680001,0,0,5.680001,2896.8398,-872.52502)"><path
         d="M 0,0 1.506,0 6.334,-13.156 11.207,0 l 1.487,0 -5.703,-14.999 -1.398,0 L 0,0 z"
         style="fill:#231f20;fill-opacity:1;fill-rule:nonzero;stroke:none"
         id="path3992"
         inkscape:connector-curvature="0" /></g><g
       id="g3994"
       transform="matrix(5.680001,0,0,5.680001,2980.2302,-872.52502)"><path
         d="m 0,0 9.174,0 0,-1.269 -7.775,0 0,-5.341 7.286,0 0,-1.271 -7.286,0 0,-5.848 8.115,0 0,-1.27 -9.514,0 L 0,0 z"
         style="fill:#231f20;fill-opacity:1;fill-rule:nonzero;stroke:none"
         id="path3996"
         inkscape:connector-curvature="0" /></g><g
       id="g3998"
       transform="matrix(5.680001,0,0,5.680001,3066.6287,-906.82257)"><path
         d="M 0,0 0.656,0 C 2.118,0 3.58,0.214 3.58,2.035 3.58,3.179 2.69,4.004 1.441,4.004 0.423,4.004 -0.445,3.39 -0.806,2.353 l -2.689,0.719 c 0.658,2.226 2.605,3.222 4.808,3.222 2.585,0 4.809,-1.357 4.809,-4.006 0,-1.61 -0.973,-2.987 -2.564,-3.388 l 0,-0.043 c 1.908,-0.276 2.926,-1.799 2.926,-3.644 0,-2.861 -2.397,-4.43 -5.064,-4.43 -2.457,0 -4.494,1.019 -5.146,3.52 l 2.71,0.719 c 0.315,-1.229 1.078,-1.949 2.436,-1.949 1.355,0 2.519,0.955 2.519,2.353 0,1.947 -1.777,2.286 -3.323,2.286 L 0,-2.288 0,0 z"
         style="fill:#231f20;fill-opacity:1;fill-rule:nonzero;stroke:none"
         id="path4000"
         inkscape:connector-curvature="0" /></g><g
       id="g4002"
       transform="matrix(5.680001,0,0,5.680001,3146.7633,-945.43692)"><path
         d="m 0,0 c 2.543,0 2.883,3.474 2.883,5.337 0,1.865 -0.34,5.339 -2.883,5.339 -2.542,0 -2.881,-3.474 -2.881,-5.339 C -2.881,3.474 -2.542,0 0,0 m 0,13.091 c 1.674,0 5.426,-0.658 5.426,-7.754 0,-7.097 -3.752,-7.755 -5.426,-7.755 -1.674,0 -5.423,0.658 -5.423,7.755 0,7.096 3.749,7.754 5.423,7.754"
         style="fill:#231f20;fill-opacity:1;fill-rule:nonzero;stroke:none"
         id="path4004"
         inkscape:connector-curvature="0" /></g><g
       id="g4006"
       transform="matrix(5.680001,0,0,5.680001,3218.0024,-945.43692)"><path
         d="m 0,0 c 2.542,0 2.881,3.474 2.881,5.337 0,1.865 -0.339,5.339 -2.881,5.339 -2.542,0 -2.882,-3.474 -2.882,-5.339 C -2.882,3.474 -2.542,0 0,0 m 0,13.091 c 1.674,0 5.423,-0.658 5.423,-7.754 0,-7.097 -3.749,-7.755 -5.423,-7.755 -1.673,0 -5.424,0.658 -5.424,7.755 0,7.096 3.751,7.754 5.424,7.754"
         style="fill:#231f20;fill-opacity:1;fill-rule:nonzero;stroke:none"
         id="path4008"
         inkscape:connector-curvature="0" /></g><g
       id="g4010"
       transform="matrix(5.680001,0,0,5.680001,3289.2467,-945.43692)"><path
         d="m 0,0 c 2.54,0 2.88,3.474 2.88,5.337 0,1.865 -0.34,5.339 -2.88,5.339 -2.543,0 -2.881,-3.474 -2.881,-5.339 C -2.881,3.474 -2.543,0 0,0 m 0,13.091 c 1.672,0 5.424,-0.658 5.424,-7.754 0,-7.097 -3.752,-7.755 -5.424,-7.755 -1.675,0 -5.424,0.658 -5.424,7.755 0,7.096 3.749,7.754 5.424,7.754"
         style="fill:#231f20;fill-opacity:1;fill-rule:nonzero;stroke:none"
         id="path4012"
         inkscape:connector-curvature="0" /></g><g
       id="g4014"
       transform="matrix(5.680001,0,0,5.680001,3204.0569,-867.87821)"><path
         d="m 0,0 c 0,0 0.335,0.89 0.298,1.482 -0.038,0.593 0,2.522 -0.224,3.71 -0.222,1.186 -0.442,2.447 -0.481,3.003 -0.036,0.554 -0.147,1.296 -0.296,1.519 -0.148,0.222 -0.408,0.148 -0.445,-0.112 -0.037,-0.258 -0.111,-0.927 -0.111,-1.26 0,-0.333 0.074,-0.817 -0.259,-1.336 -0.334,-0.517 -1.298,-0.814 -1.298,-0.814 0,0 -0.037,-0.333 0.148,-0.482 0.185,-0.148 0.889,-0.703 1.077,-1.075 0.185,-0.37 0.48,-0.742 0.554,-1.001 0.075,-0.26 0.075,-0.779 0.075,-0.779 0,0 -0.186,0.965 -0.629,1.446 -0.447,0.482 -1.336,1.298 -1.633,1.52 -0.298,0.223 -0.519,0.482 -0.519,0.482 0,0 -0.075,-0.074 -0.333,0.075 -0.26,0.148 -0.483,0.333 -0.631,0.518 -0.149,0.185 -0.334,0.371 -0.334,0.371 0,0 -0.075,-0.297 0,-0.518 0.073,-0.223 0.298,-0.223 0.298,-0.223 l 0.368,0 c 0,0 0.039,-0.148 -0.221,-0.113 -0.26,0.038 -0.334,0.113 -0.52,-0.035 -0.185,-0.149 -0.667,-0.037 -0.667,-0.037 0,0 0,-0.335 0.15,-0.705 0.147,-0.37 0.482,-0.705 0.482,-0.705 0,0 -0.482,0.223 -0.742,0.853 -0.259,0.629 -0.445,1.26 -0.445,1.78 0,0.52 0.408,1.185 0.555,1.592 0.15,0.41 0,0.632 -0.369,0.225 C -6.524,8.973 -6.821,7.898 -6.93,7.379 -7.042,6.858 -7.673,5.302 -7.709,4.747 -7.745,4.19 -7.821,2.225 -7.745,1.556 c 0.072,-0.666 0.331,-1.815 0.331,-1.815 0,0 0.519,0.296 0.667,-0.076 0.147,-0.371 -0.148,-0.593 -0.481,-0.703 -0.333,-0.112 -0.593,-0.151 -0.927,-0.112 -0.334,0.038 -0.815,0.26 -1.223,0.296 -0.408,0.038 -0.817,0.038 -1.114,0.076 -0.296,0.036 -0.26,0.221 0.038,0.26 0.297,0.036 0.742,0.259 1.037,0.296 0.298,0.037 0.594,-0.113 0.632,0.147 0.036,0.26 0,1.596 -0.185,2.261 -0.186,0.669 -0.334,2.262 -0.112,3.191 0.221,0.926 0.777,3.372 0.964,4.152 0.186,0.778 1.188,3.3 1.149,4.004 -0.037,0.704 0.222,5.525 -0.037,6.563 -0.26,1.036 -0.445,2.112 -1.038,2.446 -0.594,0.335 -4.67,2.374 -4.969,2.448 -0.295,0.074 -0.667,-0.074 -0.925,0.037 -0.261,0.111 -1.113,0.741 -1.446,0.816 -0.333,0.073 -0.706,0.111 -1.225,0.443 -0.52,0.334 -1.259,0.779 -1.965,0.594 -0.704,-0.185 -2.781,-0.519 -3.3,-0.519 -0.52,0 -0.779,-0.112 -1.297,-0.186 -0.517,-0.075 -0.557,0.221 -0.595,0.667 -0.034,0.445 0,2.189 0,2.189 l -0.294,0.037 c 0,0 0.074,-0.409 -0.113,-0.557 -0.185,-0.147 -0.407,-0.147 -0.407,-0.147 0,0 -0.111,-0.89 0,-1.372 0.112,-0.482 0.296,-1.448 0.296,-1.448 0,0 -0.184,0.185 -0.259,0.445 -0.073,0.26 -0.184,1.187 -0.184,1.187 0,0 -0.038,-1.222 -0.076,-1.519 -0.036,-0.296 -0.183,-0.556 -0.183,-0.556 0,0 -0.039,0.888 -0.039,1.223 0,0.333 -0.037,1.854 -0.037,1.854 0,0 -0.444,-0.111 -0.704,-0.149 -0.259,-0.037 -1.111,-0.26 -1.298,-0.482 -0.186,-0.222 -0.332,-0.407 -0.63,-0.518 -0.295,-0.112 -0.63,0.184 -0.63,0.184 0,0 -0.259,-0.073 -0.444,0.039 -0.186,0.109 -0.261,0.258 -0.261,0.258 0,0 0.408,1.334 0.705,1.816 0.295,0.484 0.704,1.04 0.704,1.04 0,0 0.519,-0.037 0.668,0.221 0.148,0.26 0.036,0.668 0.036,0.668 0,0 0.372,0.78 0.631,1.075 0.26,0.298 0.739,0.778 0.739,0.778 l 0.633,-0.519 c 0,0 0.036,-0.221 0.186,-0.296 0.147,-0.074 0.554,-0.112 0.814,-0.333 0.26,-0.224 0.445,-0.779 0.445,-0.779 0,0 0.409,0.148 0.892,0 0.481,-0.15 3.929,-1.001 4.708,-1.26 0.776,-0.261 3.781,-1.41 4.337,-1.707 0.556,-0.295 1.556,-0.592 2.522,-0.779 0.963,-0.183 3.41,-0.815 4.373,-1.186 0.967,-0.369 2.336,-0.74 3.005,-0.777 0.667,-0.037 3.077,0.185 3.966,0.257 0.89,0.076 2.781,0.151 3.56,0.26 0.778,0.111 1.259,0 2.744,0.297 1.482,0.297 3.706,0.669 4.595,0.779 0.891,0.111 2.968,0.111 3.562,0.111 l 2.446,0 c 0,0 0.221,0.556 0.628,0.668 0.409,0.111 1.002,0.075 1.002,0.075 0,0 0.224,0.334 0.482,0.445 0.261,0.11 0.408,0.035 0.52,-0.26 0.112,-0.296 0.631,-1.521 0.631,-1.521 0,0 -0.187,-0.854 -0.037,-1.039 0.147,-0.183 0.517,-0.295 0.517,-0.295 0,0 0.447,-1.076 0.593,-1.965 0.149,-0.891 0.039,-1.334 0.039,-1.334 0,0 -0.408,-0.075 -0.632,-0.075 -0.222,0 -0.704,-0.074 -0.85,0.259 -0.149,0.334 -0.335,0.743 -0.594,0.779 -0.26,0.037 -0.927,0.481 -0.927,0.481 l -0.445,0.335 -0.334,0.333 -0.63,0.296 c 0,0 0.221,0.112 0.149,0.334 -0.076,0.224 -0.261,0.186 -0.335,-0.112 -0.075,-0.296 -0.149,-1.075 -0.335,-1.408 -0.184,-0.334 -0.593,-0.556 -1.109,-0.408 -0.521,0.149 -0.226,0.074 -0.966,0.113 -0.741,0.036 -3.375,1.036 -3.891,0.926 C 10.199,23.692 8.714,23.321 7.936,23.284 7.156,23.245 6.267,23.209 5.265,23.024 4.266,22.838 3.042,22.432 2.41,22.281 1.782,22.134 0.298,21.986 0.151,21.615 0,21.245 -0.851,19.723 -0.554,17.5 -0.26,15.275 0.78,12.125 0.966,11.273 1.151,10.418 1.374,7.006 1.448,6.378 1.522,5.747 1.706,3.41 1.596,2.781 1.484,2.151 1.448,1.112 1.374,0.779 1.298,0.443 1.298,-0.075 1.298,-0.075 c 0,0 0.557,0.036 0.893,-0.073 C 2.522,-0.259 2.677,-0.422 2.974,-0.572 3.268,-0.718 3.58,-0.797 3.413,-0.964 3.294,-1.085 3.042,-0.89 2.745,-0.854 2.448,-0.816 2.191,-0.89 1.782,-1.038 1.374,-1.189 0.47,-1.256 0.025,-0.961 -0.42,-0.663 -0.481,-0.518 -0.368,-0.259 -0.26,0 0,0 0,0"
         style="fill:#ee2922;fill-opacity:1;fill-rule:evenodd;stroke:none"
         id="path4016"
         inkscape:connector-curvature="0" /></g><g
       id="g4018"
       transform="matrix(5.680001,0,0,5.680001,3332.3954,-881.69595)"><path
         d="M 0,0 0.277,0 C 0.518,0 0.75,0.011 0.75,0.296 0.75,0.542 0.536,0.57 0.354,0.57 L 0,0.57 0,0 z m -0.269,0.789 0.667,0 c 0.421,0 0.621,-0.166 0.621,-0.504 0,-0.322 -0.204,-0.456 -0.47,-0.484 l 0.51,-0.783 -0.291,0 -0.479,0.761 -0.289,0 0,-0.761 -0.269,0 0,1.771 z m 0.578,-2.182 c 0.693,0 1.246,0.561 1.246,1.296 0,0.732 -0.553,1.295 -1.246,1.295 -0.697,0 -1.248,-0.563 -1.248,-1.295 0,-0.735 0.551,-1.296 1.248,-1.296 m 0,2.809 c 0.823,0 1.514,-0.651 1.514,-1.513 0,-0.865 -0.691,-1.517 -1.514,-1.517 -0.827,0 -1.516,0.652 -1.516,1.517 0,0.862 0.689,1.513 1.516,1.513"
         style="fill:#231f20;fill-opacity:1;fill-rule:nonzero;stroke:none"
         id="path4020"
         inkscape:connector-curvature="0" /></g></g></svg>