<svg version="1.2" xmlns="http://www.w3.org/2000/svg" viewBox="0 0 1573 807" width="1573" height="807">
	<title>logo (48)-svg</title>
	<defs>
		<clipPath clipPathUnits="userSpaceOnUse" id="cp1">
			<path d="m0.37 1h1572.26v805.15h-1572.26z"/>
		</clipPath>
	</defs>
	<style>
		.s0 { fill: #626467 } 
		.s1 { fill: #d60812 } 
		.s2 { fill: #0d1319 } 
		.s3 { fill: #006726 } 
	</style>
	<g id="Layer">
		<g id="Clip-Path" clip-path="url(#cp1)">
			<g id="Layer">
				<path id="Layer" fill-rule="evenodd" class="s0" d="m300.7 591.1l10 29.3-1.9 1.6c-7.3 4.9-16 7.4-24.9 7.3-10.6 0.2-21-3.5-29.1-10.5-10.1-10-17.8-22.1-22.6-35.5l-9.8-22.8-164.5 1.1-24.3 58.9c-2.4 5.7-7.6 9.7-13.7 10.5-6.1 0.7-12.2-1.8-16-6.7-3.7-4.9-4.5-11.4-2.2-17.1l137.6-325.7 126.4 289.8c7.2 16.8 10.9 24.9 22.1 24.8 4 0.1 7.9-1.2 11.2-3.6zm-92.2-63.1l-68.9-161.5-67.6 162.4zm382.7-167.6q3.4-0.1 6.8 0c69 1.3 123.8 58.4 122.5 127.4q0 7.9-0.9 15.8l-220.5 1.5c4.9 58.5 50 89.8 99.4 89.5 32.2-0.3 69.8-13.7 90-39.9h2.6l23 19.2v2.6c-25.2 34.2-72.9 50.4-114.2 50.7-71.3 0.5-137.3-46.9-137.9-131.4-0.6-76.9 53-134.8 129.4-135.4zm92.1 112.9c-6.5-53.9-43.4-80.6-90.7-80.3-50 0.4-86.9 30.2-93.2 81.6zm-256.1 121.4l7.3 24.4-1.5 2.5c-6.8 4.8-15 7.2-23.4 6.8-28 0.2-40.8-20.1-41-45l-2-285.5c-0.1-9.9 7.8-17.9 17.7-18 9.8 0 17.9 7.9 17.9 17.7l1.9 274.9c0.1 14.8 1.7 25 11.9 24.9 3.3 0.1 6.4-1.3 8.7-3.6zm496.3-305.3l-14.2 28-1.6-0.9c-9.5-5.7-20.5-8.6-31.6-8.5-26.4 0.2-49.2 16.7-48.9 56.4l0.1 10.2 64.7-0.5c8.4 0 15.3 6.7 15.3 15.2 0.1 8.4-6.7 15.3-15.1 15.4l-64.7 0.4 1.4 202.7c0.1 9.8-7.8 17.8-17.7 17.9-9.8 0.1-17.9-7.9-17.9-17.7l-1.5-202.6-27.5 0.2c-8.4 0-15.3-6.8-15.4-15.2 0-8.4 6.8-15.3 15.2-15.4l27.5-0.2-0.1-10.2c-0.5-61.6 42.1-87.8 83.9-88.2 16.3-0.4 32.5 3.7 46.4 11.9zm-851.5 453.6h-61v52.5h69.8v8.9h-80.2v-126.8h79.8v8.9h-69.5v47.7h61.1zm31.4 61.4v-126.8h36.9c14.4-0.4 28.4 5.2 38.4 15.5 10.3 10.7 15.7 25 15.2 39.8v16.3c0.6 14.8-4.9 29.1-15.2 39.8-10.1 10.3-24 15.9-38.4 15.4zm10.4-117.9v109.1h26.4c11.8 0.3 23.1-4.5 31-13.1 8.2-9.1 12.6-21 12.2-33.3v-16.5c0.4-12.2-4-24-12.3-33-7.9-8.6-19.2-13.4-30.9-13.1zm195.3-8.9v86c0.8 11.9-3.9 23.5-12.7 31.7-9.2 7.6-21 11.5-33 10.9-11.9 0.6-23.5-3.4-32.6-11-8.7-8.2-13.2-19.8-12.5-31.6v-86h10.5v85.9c-0.5 9.3 3 18.5 9.6 25 6.9 6.1 15.9 9.3 25 8.9 9.3 0.4 18.5-2.8 25.6-8.8 6.8-6.5 10.4-15.7 9.8-25.1v-85.9zm118.4 87.2l0.2 0.5c-0.5 11.4-5.4 22.1-13.6 30-8.9 7.6-20.3 11.5-32 10.9-13.1 0.5-25.7-5.2-34.1-15.2-9-11.2-13.7-25.3-13-39.6v-20.7c-0.6-14.3 4-28.4 13-39.5 8.3-10.2 20.9-15.8 34-15.4 11.7-0.6 23.1 3.2 32.1 10.7 8.2 7.9 13.1 18.7 13.5 30.1l-0.2 0.6h-9.7c-0.8-9.1-4.6-17.6-10.9-24.2-6.8-5.9-15.7-8.9-24.8-8.3-10.4-0.3-20.4 4.5-26.7 12.9-7 9.5-10.5 21.1-10 33v20.8c-0.6 11.8 3 23.5 10 33.1 6.3 8.4 16.3 13.2 26.7 12.9 9 0.5 17.9-2.4 24.8-8.2 6.5-6.6 10.3-15.2 10.9-24.4 0 0 9.8 0 9.8 0zm95.1 4.3h-58.1l-13.1 35.3h-10.7l48.1-126.8h9.9l47.8 126.8h-10.8zm-54.6-9.3h51.2l-25.3-68.6h-0.5zm171.6-73.3h-43.7v117.9h-10.5v-117.9h-43.6v-8.8h97.8zm23-8.9h10.5v126.8h-10.5zm138.6 73.7c0.6 14.5-4.1 28.6-13.5 39.7-9.1 10.2-22.4 15.8-36.1 15.2-13.5 0.5-26.6-5-35.6-15.2-9.2-11.1-13.9-25.3-13.2-39.7v-20.6c-0.7-14.4 4-28.6 13.2-39.7 8.9-10.3 22-15.8 35.6-15.3 13.7-0.6 27 5 36.1 15.3 9.3 11 14.2 25.2 13.5 39.7zm-10.3-20.8c0.5-11.9-3.2-23.7-10.5-33.2-7.1-8.4-17.8-13.1-28.8-12.5-10.9-0.6-21.4 4.1-28.3 12.5-7.1 9.6-10.7 21.3-10.1 33.2v20.9c-0.6 12 3 23.7 10.2 33.3 6.9 8.5 17.4 13.1 28.2 12.6 11.1 0.6 21.9-4.1 28.9-12.5 7.3-9.6 11-21.4 10.4-33.4 0 0 0-20.9 0-20.9zm131.2 73.8h-10.4l-72-109-0.6 0.1v108.9h-10.5v-126.8h10.5l72 108.9 0.6-0.1v-108.8h10.4c0 0 0 126.8 0 126.8z"/>
				<path id="Layer" class="s1" d="m1323.7 734.8h-28c-58.7 0.2-115-23.2-156.3-64.9-40.2-40-62.7-94.4-62.3-151.1 1.1-86.6 53.7-164.3 133.7-197.6l2.3-1v-69.4l-4.8 1.5c-117.2 37.4-196.9 146.2-197 269.1 0.8 153.9 128.6 279.2 284.9 279.2h95.8l-0.4-4.2c-3.3-35-32.8-61.7-68-61.6z"/>
				<path id="Layer" class="s2" d="m1375.7 252.5l-4.9-1.5v69.6l2.3 0.9c80.9 34.7 133.5 114.2 133.8 202.3v208.4c-0.2 35.2 26.6 64.7 61.6 68.1l4.1 0.3v-276.3c-0.2-123.5-79.6-233-196.9-271.8z"/>
				<path id="Layer" class="s3" d="m1292 97.8c-18.2 0-32.9 14.7-32.9 32.8v398.4c-0.2 11.9 6.1 23 16.3 29 10.2 6 23 6 33.2 0 10.2-6 16.5-17.1 16.3-29v-398.4c-0.1-18.1-14.8-32.8-32.9-32.8zm31.9-27.1l6.9-30.6c-10.6 5.3-22 8.6-33.8 9.6-6.4-0.3-12.7-2.1-18.2-5.4 8.6-10.1 16.4-15.1 22.7-15.1 4-0.2 7.8 1.7 10 5 3.6-4.9 5.8-10.8 6.4-16.8 0-11-6.4-16.5-19.6-16.5-11.9 0.7-22.8 6.8-29.7 16.5-8 9-12.6 20.7-12.8 32.8 0.9 8.4 5.9 15.9 13.3 20.1-7.3 8.9-12.7 19.1-16 30.1 21.5-14.3 45.5-24.4 70.7-29.7z"/>
			</g>
		</g>
	</g>
</svg>