<?xml version="1.0" encoding="utf-8"?>
<!-- Generator: Adobe Illustrator 22.0.1, SVG Export Plug-In . SVG Version: 6.00 Build 0)  -->
<svg version="1.1" id="Layer_1" xmlns="http://www.w3.org/2000/svg" xmlns:xlink="http://www.w3.org/1999/xlink" x="0px" y="0px"
	 viewBox="0 0 1916.5 968.5" style="enable-background:new 0 0 1916.5 968.5;" xml:space="preserve">
<style type="text/css">
	.st0{fill:#00D4CE;}
	.st1{fill:#EF8114;}
</style>
<g>
	<g>
		<g>
			<path class="st0" d="M31.4,825.8h13.4v79.6h7.3l36.7-34.2h18.6l-42.7,40.9l42.7,55.2H90.8l-38.7-48.5h-7.3v48.5H31.4V825.8z"/>
		</g>
		<g>
			<path class="st0" d="M118.9,933.5c0-14.5,9-24.1,24.1-24.1c0,0,40.2,0.2,40.2,0c0,0,0.2-12,0-12.1c0-11-5.8-14.8-14.8-14.8
				c-13,0-28.8,0.9-46.3,2.2v-9.8c12.8-3.6,28.9-5.3,46.9-5.4c15-0.2,27.7,8,27.7,27.9v70.1h-10l-3.4-11.6
				c-0.4,0-23.7,12.7-40.2,12.7c-13.2,0-24.1-8.5-24.1-23.9V933.5z M142.9,955.1c14.5,0,40.2-9.2,40.2-9.2V920l-40.2,2.9
				c-7.8,0.7-10.7,6-10.7,11.8v9C132.2,952.4,136.8,955.1,142.9,955.1z"/>
		</g>
		<g>
			<path class="st0" d="M217.1,871.3h9.4l4,11.6c11-6.3,19.9-12.7,34.2-12.7c11.8,0,22.4,5.2,26.6,14.1c9.4-7.8,22.6-14.1,38.7-14.1
				c16.6,0,29.7,12.5,29.7,30.9v66.2h-13.4v-66.2c0-10.7-6.9-17.5-16.3-17.5c-14.3,0-23.5,2.4-35.5,10.1v7.1v66.6h-13.4v-66.2
				c0-10.7-7.1-17.5-16.5-17.5c-13.9,0-20.3,3.4-34.2,10.1v73.7h-13.4V871.3z"/>
		</g>
	</g>
	<g>
		<polygon class="st1" points="437.9,871.3 401.2,905.5 393.9,905.5 393.9,825.8 380.6,825.8 380.6,967.4 393.9,967.4 393.9,918.9 
			401.2,918.9 439.9,967.4 456.6,967.4 413.9,912.2 456.6,871.3 		"/>
		<path class="st1" d="M517.9,869.5c-17.9,0.2-34,1.8-46.9,5.4v9.8c17.6-1.3,33.3-2.2,46.3-2.2c9,0,14.8,3.8,14.8,14.8
			c0.2,0.2,0,12.1,0,12.1c0,0.2-40.2,0-40.2,0c-15,0-24.1,9.6-24.1,24.1v11c0,15.4,10.8,23.9,24.1,23.9c16.5,0,39.8-12.7,40.2-12.7
			l3.4,11.6h10v-70.1C545.6,877.4,532.9,869.3,517.9,869.5z M532.2,945.8c0,0-25.7,9.2-40.2,9.2c-6.2,0-10.7-2.7-10.7-11.4v-9
			c0-5.8,2.9-11,10.7-11.8l40.2-2.9V945.8z"/>
		<path class="st1" d="M579.6,933.2V825.7h-13.4v107.5c0,25.5,9.9,34.2,23.9,34.2H606v-9.6c-1.3,0-16.1-3.8-16.1-3.8
			C583.8,952.5,579.6,948.9,579.6,933.2z"/>
		<rect x="619.6" y="871.3" class="st1" width="13.4" height="96.1"/>
		<path class="st1" d="M631.2,841.4h-9c-2.9,0-4.3,1.8-4.3,4.5v9.8c0,2.5,1.8,4.2,4.3,4.2h9c2.5,0,4.2-1.4,4.2-4.2v-9.8
			C635.4,843.4,633.9,841.4,631.2,841.4z"/>
		<path class="st1" d="M768.9,870.2c-16.1,0-29.3,6.3-38.7,14.1c-4.2-8.9-14.8-14.1-26.6-14.1c-14.3,0-23.1,6.3-34.2,12.7l-4-11.6
			H656v96.1h13.4v-73.7c13.9-6.7,20.3-10.1,34.2-10.1c9.4,0,16.5,6.9,16.5,17.5v66.2h13.4v-66.6v-7.1c11.9-7.8,21.2-10.1,35.5-10.1
			c9.4,0,16.3,6.9,16.3,17.5v66.2h13.4v-66.2C798.6,882.7,785.6,870.2,768.9,870.2z"/>
		<path class="st1" d="M865.6,869.5c-17.9,0.2-34,1.8-46.9,5.4v9.8c17.6-1.3,33.3-2.2,46.3-2.2c9.1,0,14.8,3.8,14.8,14.8
			c0.2,0.2,0,12.1,0,12.1c0,0.2-40.2,0-40.2,0c-15,0-24.1,9.6-24.1,24.1v11c0,15.4,10.9,23.9,24.1,23.9c16.5,0,39.8-12.7,40.2-12.7
			l3.4,11.6h10v-70.1C893.2,877.4,880.6,869.3,865.6,869.5z M879.9,945.8c0,0-25.7,9.2-40.2,9.2c-6.2,0-10.7-2.7-10.7-11.4v-9
			c0-5.8,2.9-11,10.7-11.8l40.2-2.9V945.8z"/>
	</g>
	<g>
		<path class="st1" d="M1648,762c-27-30.6-71.6-36.3-105.2-15.4c-5.7,1.1-11.7,0.3-16.9-2.5l-19.7-24l-0.3,0.2
			c-1.2-3.5-2.1-6.9-2.2-10.4c9.2-10.2,15.1-23.4,16-38.2c2.1-34.8-24.3-64.8-59.1-67c-31.7-2-59.2,19.8-65.6,49.9
			c-3.2,3.2-7.3,5.5-11.8,6.6l-48-3.4c-5.9-2.8-10.9-6.8-13.7-12.2c-1.5-13.7-6.4-27-14.7-38.6c-1.5-5.6-1-11.6,1.5-17l25.8-25.8
			l-0.2-0.2c7.4-3.2,15.2-4.1,22.1-0.9c1.2,0.8,2.5,1.5,3.8,2.2c0.3,0.2,0.6,0.3,0.8,0.6l-0.1-0.1c14.8,8.3,31.7,11.7,48.2,10.1
			c42.8-3,76.6-38.6,76.6-82.1c0-40.8-29.7-74.6-68.6-81.1c-5-3-8.9-7.5-11-13l0-36.4h-0.3c1.8-4.4,4.2-8.3,7.3-11.4
			c30.3-4.7,53.4-30.8,53.4-62.3c0-14.8-5.1-28.4-13.6-39.1c0.2-3.5,1.2-7,2.9-10.1l25-25c5.7-2.5,11.6-3.5,17.2-2.4
			c32.2,23.7,77.8,21.1,107-8.1c32.2-32.2,32.2-84.4,0-116.5c-32.2-32.2-84.4-32.2-116.5,0c-28.9,28.9-31.8,73.8-8.8,105.9
			c1.5,5.6,1,11.6-1.5,17l-25.8,25.7l0.2,0.2c-3.4,1.5-6.8,2.5-10.2,2.8c-10.8-8.5-24.3-13.6-39.1-13.6c-34.9,0-63.2,28.3-63.2,63.2
			c0,29.4,20.2,54,47.4,61c1.3,2.2,4.7,4.8,5.6,5.6c2.5,2.2,4.8,4.6,7.6,6.5c0.2,0.2,0.4,0.2,0.5,0.3c0,0.1,0.1,0.2,0.1,0.3v35.4
			c-2.2,5.6-5.6,10.4-10.1,13.6c-17.7,2.1-34.9,9.9-48.5,23.5c-26.6,26.6-31.1,66.8-13.8,98.1l-0.7-0.7c0.8,0.9,1.5,2,2.1,3
			c0.3,0.5,0.6,1,0.9,1.6c3.9,7.3,3.8,16.1,0,23.4l-25,25c-5.7,2.5-11.6,3.5-17.2,2.4c-27.1-20-63.1-21.5-91.4-4.1l-0.5,0.3
			c-5.5,4.4-19-6.8-19-6.8l-23.4-26.6c-2.1-5.8-2.7-11.8-1.3-17.3c25.7-30.7,25.9-76.4-1.4-107.3c-30.1-34.1-82.2-37.3-116.3-7.2
			c-34.1,30.1-37.3,82.2-7.2,116.3c27,30.6,71.6,36.3,105.2,15.4c5.7-1.1,11.7-0.3,16.9,2.5L1174,581l0.2-0.2
			c3.4,9.4,3.2,19.1-3.5,26.6l4.5-4c-23.7,28.8-24.8,69.9-3.4,99.9c1.5,5.6,1,11.6-1.5,17l-25.8,25.8l0.3,0.2
			c-3.4,1.5-6.8,2.5-10.2,2.8c-10.8-8.5-24.3-13.6-39.1-13.7c-34.9,0-63.2,28.3-63.2,63.2c0,12.9,3.7,25.4,11.3,35.8
			c21.7,29.6,68,37.3,95.3,10.2c7.5-7.5,13.9-17,17-27.2c1.8-5.9,2.8-12.6,2.8-18.8c0-14.8-5.1-28.4-13.6-39.1
			c0.2-3.5,1.2-7,2.9-10.1l25.1-25.1c5.7-2.4,11.6-3.5,17.2-2.4c32.3,23.7,77.8,21.1,107-8.1c2.1-2.1,4.1-4.4,5.9-6.7
			c8.4-10.1,13.9-21.8,16.7-34c3.3-5.1,8.2-8.9,14.1-10.7l49,3.4l0-0.3c4.3,2,8.1,4.7,10.9,8c2.8,30.5,27.4,55.2,58.9,57.2
			c14.8,0.9,28.6-3.3,39.9-11.2c3.5,0.4,6.9,1.6,9.9,3.5l19.1,23.3c2.1,5.9,2.7,11.8,1.3,17.3c-25.7,30.7-25.9,76.3,1.4,107.3
			c30.1,34.1,82.2,37.3,116.3,7.2C1674.9,848.2,1678.1,796.1,1648,762"/>
	</g>
	<g>
		<path class="st0" d="M1895.2,489.5c-15-17-35.8-27.2-58.5-28.6c-41.8-2.6-78.4,25-87.9,65.3c-3.2,4.6-7.8,8-13,9.6l-37.3-2.3
			c-2.9-1.4-5.4-3.1-7.4-4.9c-0.9-14.7-6.5-28.3-16.2-39.3c-12.4-14.1-30.3-22.1-49.1-22.1c-16,0-31.3,5.8-43.3,16.4
			c-24,21.2-29,57.4-11.7,84.4c-0.1,4.3-1.2,8.5-3.4,12.1l-26.7,23.6c-6.3,2.3-12.4,2.6-17.5,1.1c-11.1-8.9-24.5-14.8-38.5-17.2
			c-4.8-2.9-8.5-7.2-10.4-12.4v-37.4c3.2-7.5,8.1-12.6,14-14.8c1.3-0.3,2.5-0.6,3.8-1l0.5-0.1c0.2,0,0.4-0.1,0.6-0.1
			c0.1,0,0.3-0.1,0.4-0.1l-0.1-0.3l0.1,0.2c16.7-4.8,31.4-14.4,42.4-27.8c29.2-33.5,27.4-84.4-4-115.8c-16-16-37.3-24.9-60-24.9
			c-17.7,0-34.7,5.4-49.1,15.6c-5.4,1.3-11.1,0.9-16.1-1.4l-26.5-26.5c-1.6-4-2.4-7.9-2.4-11.6c18.9-26.2,16.1-61.7-6.8-84.5
			c-10.4-10.4-23.6-16.8-38.2-18.6c-2.1-2.4-3.6-5.3-4.6-8.4v-35.6c2.4-5.9,5.7-10.3,9.9-13.2c41.7-6.5,71.9-41.7,71.9-83.9
			c0-46.9-38.1-85-85-85c-46.9,0-85,38.1-85,85c0,41.5,29.7,76.7,70.6,83.7c4.8,2.9,8.5,7.2,10.4,12.3v37.4c-1.3,3-2.7,5.5-4.4,7.7
			c-14.6,1.8-27.8,8.2-38.2,18.6c-25.5,25.5-25.5,67.1,0,92.6c12.3,12.3,28.7,19.1,46.2,19.1c14.1,0,27.5-4.4,38.8-12.7
			c4.3-0.2,8.5,0.7,12.3,2.7l25.2,25.2c2.4,5.6,3.2,10.9,2.4,15.8c-11.8,15.1-18.1,33.2-18.1,52.3c0,37.4,24.9,70.7,60.7,81.4l0,0.3
			c1.2,0.1,2.4,0.4,3.5,0.7l0.6,0.2c0.4,0.1,0.8,0.2,1.1,0.3c7.6,2.4,13.5,8.3,16,15.9v35.6c-2.4,6-5.8,10.4-10.1,13.3
			c-3.9,2.6-9.2,4-14.8,5.4c-5.6,1.4-11.3,2.9-15.9,5.7c-8.4,5.1-16.6,12.1-23.7,20.1c-3.4,3.8-6.4,9.3-9.6,15.1
			c-6,10.8-12.8,23-22.8,25.6l-35.6-2.2c-5.7-2.7-9.9-6.3-12.5-10.7c-3.8-41.3-37.9-74.4-79.3-77c-47.1-2.8-87.2,33.1-90.1,79.6
			c-1.4,22.7,6.1,44.5,21.1,61.5c15,17,35.8,27.2,58.5,28.6c41.9,2.5,78.4-25,87.9-65.3c3.2-4.6,7.7-8,13-9.6l36.8,2.3l0.6,0
			c6.7,3.4,14.4,9.5,14.9,20.2h1.2c6,35.2,33.8,63.2,69.4,69.2c4.8,2.9,8.5,7.2,10.4,12.4v37.4c-1.3,3-2.7,5.5-4.4,7.7
			c-14.6,1.8-27.8,8.2-38.2,18.6c-25.5,25.5-25.5,67,0,92.6c12.4,12.3,28.7,19.1,46.2,19.1c14.2,0,27.7-4.5,39-12.9
			c0.4-0.3,9.4-6.9,13.9-14c19.2-26.2,16.4-61.9-6.5-84.8c-10.4-10.4-23.6-16.8-38.2-18.6c-2.1-2.4-3.6-5.3-4.6-8.4v-35.6
			c2.4-5.8,5.7-10.3,9.9-13.2c41.7-6.5,71.9-41.7,71.9-83.9c0-3-0.2-6.1-0.5-9.2c-1.2-13.1-5.4-25.5-12.5-36.8
			c-1.2-5.7-0.4-11.5,2.3-16.6l28.1-24.8c4.1-1.4,8-1.9,11.7-1.7c11.6,9.6,26.4,14.9,41.6,14.9c15.9,0,31.3-5.8,43.2-16.4
			c11-9.7,18.3-22.5,21-37c2.6-1.9,5.5-3.3,8.7-4.1l35.6,2.2c5.7,2.7,9.9,6.3,12.5,10.7c3.9,42,37.2,74.3,79.3,77
			c47.1,2.9,87.2-33.1,90.1-79.6C1917.8,528.3,1910.3,506.5,1895.2,489.5"/>
	</g>
	<g>
		<path class="st1" d="M102,507.9h21.9c6.2,0,10.8-4.9,10.8-11.3v-21.9c0-6.3-4.6-10.8-10.8-10.8H102c-6.5,0-11.3,4.7-11.3,10.8
			v21.9C90.6,503,95.6,507.9,102,507.9z"/>
		<path class="st1" d="M48.2,507.9h21.9c6.2,0,10.9-4.9,10.9-11.3v-21.9c0-6.3-4.6-10.8-10.9-10.8H48.2c-6.4,0-11.3,4.7-11.3,10.8
			v21.9C36.9,503,41.9,507.9,48.2,507.9z"/>
		<path class="st1" d="M901,577.8l-144.4-23.1l-0.6-2.5l148.8-106.4c3.6-2.1,5.6-5.9,5.6-10.6v-13.3c0-5.8-4.6-10.5-10.2-10.5
			c-2.3,0-4.5,0.8-6.2,2.1L727.3,533.5c-4.9,3.7-6,10.1-4.8,14.7l7.1,26c1.2,4.7,5.8,9.8,11.1,10.3l138.5,22.2v83.6
			c0,28.1-16.9,44.8-45.3,44.8H687.7c-1.1-0.3-2.4-0.5-3.6-0.5c-29.5,0-50-21.4-50-51.9l-0.5-8V425.8c0-9.4-6.1-12.8-11.3-12.8
			h-42.8c-5.9,0-10.8,5-10.8,10.9v10.9c0,5.5,5.1,10.4,10.8,10.4h22.5v240.7c0,26.8-21.8,48.6-48.6,48.6h-32.3
			c-29.5,0-50-21.4-50-51.9v-58c0-46.9-38.1-85-85-85h-15.2c-46.9,0-85,38.2-85,85v58c0,44.5-10.6,52.4-40.5,52.4h-19h-4.3h-8.6
			c-20.7,0-44.8-13.2-44.8-50.5V544.2c0-5.5-4.9-9.9-10.8-9.9h-10.9c-4.9,0-10.4,4.1-10.4,9.9v7.6c-12-7.9-26.9-12.2-42.9-12.2H78.2
			c-45.1,0-77.9,35.8-77.9,85v43.7c0,49.3,32.8,85,77.9,85h15.2c19.9,0,40.5-9,53.3-22.6c12.9,19.1,35.4,36.4,66.5,36.4h12.9
			c0.1,0,0.2,0,0.2,0h21.1c26.9,0,46.3-9.2,57.7-27.3c21.1,9,49.8,20.9,77.8,31.5l1.4,0.5h1.5c28.7,0,55.1-14.3,70.6-37.5
			c14.3,20.2,36.7,32.1,62.4,32.7c0.2,0,0.4,0,0.6,0h33.3c26.2,0,50.7-13,65.8-34.1c14.4,21.6,38,34.1,65.4,34.1c0.2,0,0.3,0,0.5,0
			c0.2,0,0.3,0,0.5,0h149.3c46.5,0,76.5-30,76.5-76.5v-99.9C910.8,584.4,906.9,579.3,901,577.8z M317.8,682.6v-58
			c0-31.6,27.1-52.9,52.4-52.9h15.7c36.5,0,52.9,30.9,52.9,52.9v62.3c0,25.1-19.7,52.1-51.5,52.9c-21.7-7.7-51-19.6-71.9-28.5
			C317,703,317.8,693.6,317.8,682.6z M93.4,721.2H78.2c-29.7,0-45.3-26.6-45.3-52.9v-43.7c0-24.4,11.9-52.9,45.3-52.9h15.2
			c28.9,0,42.9,16.4,42.9,50v57.1C136.3,703.8,113.7,721.2,93.4,721.2z"/>
	</g>
	<path class="st0" d="M900.9,167l-144.4-23.1l-0.6-2.5L904.7,35c3.6-2.1,5.6-5.9,5.6-10.6V11.1c0-5.8-4.6-10.5-10.2-10.5
		c-2.3,0-4.5,0.8-6.3,2.1L727.3,122.7c-4.9,3.7-5.9,10.1-4.8,14.7l7.1,26c1.2,4.7,5.8,9.7,11.1,10.3l138.5,22.2v83.5
		c0,28.1-16.9,44.8-45.3,44.8H687.7c-1.1-0.3-2.3-0.5-3.6-0.5c-29.5,0-50-21.4-50-52.4v-62.8c0-43.3-37.4-79.8-81.7-79.8H539
		c-45.8,0-81.7,35.9-81.7,81.7l0.2,1.8c10.9,46.2,17.9,74.7,27,111.9H124.5c-0.6-0.1-1.3-0.1-1.9-0.1H50
		c-4.6-0.3-21.8-0.3-35.2,11.8C8,342,0,353.5,0,373.4v15.2c0,9,7.3,16.3,16.3,16.3c9,0,16.3-7.3,16.3-16.3v-15.2
		c0-6.4,1.4-10.9,4-13.4c3.6-3.4,9.5-3.5,11-3.5c0.3,0,0.4,0,0.4,0c0.5,0,1,0.1,1.5,0.1h73.1c0.9,0,1.8-0.1,2.7-0.2h423.2
		c28.7,0,54.3-13,69.7-34.6c14.7,21.9,38.4,34.6,65.8,34.6c0.2,0,0.3,0,0.5,0c0.2,0,0.3,0,0.5,0h149.3c46.5,0,76.5-30,76.5-76.5
		v-99.9C910.8,173.5,906.9,168.4,900.9,167z M602.3,271.3c0,25.5-20.3,52.9-50.5,52.9h-34.7c-11.3-44.1-25.6-107.4-27.2-115
		c0.4-27.2,21.6-48.3,48.6-48.3h13.8c27.6,0,50,21.4,50,47.6V271.3z"/>
</g>
</svg>
