<?xml version="1.0" encoding="utf-8" ?>
<svg baseProfile="full" height="200" version="1.1" width="360" xmlns="http://www.w3.org/2000/svg" xmlns:ev="http://www.w3.org/2001/xml-events" xmlns:xlink="http://www.w3.org/1999/xlink"><defs /><path d="M 23,166 L 22,167 L 21,167 L 20,168 L 20,171 L 19,172 L 19,176 L 18,177 L 17,177 L 17,180 L 16,181 L 16,184 L 15,185 L 15,186 L 14,187 L 14,190 L 13,191 L 13,194 L 11,196 L 11,199 L 35,199 L 36,198 L 36,196 L 37,195 L 37,192 L 39,190 L 39,188 L 40,187 L 40,183 L 42,181 L 42,179 L 43,178 L 43,175 L 45,173 L 45,170 L 46,169 L 46,167 L 45,166 Z" fill="black" /></svg>