<?xml version="1.0" encoding="UTF-8"?> <svg xmlns="http://www.w3.org/2000/svg" id="Layer_2" viewBox="0 0 1208.64 303.02"><defs><style>.cls-1{fill:#5f2fa8;stroke-width:0px;}</style></defs><g id="Layer_2-2"><g id="Layer_1-2"><path class="cls-1" d="m1165.71,121.26l-36.5,113.81-41.51-113.81h-31.49l-41.16,113.81-36.51-113.81h-42.95l63.34,175h31.49l41.51-113.45,41.51,113.45h31.85l63.35-175h-42.95.02Zm-730.48,66.57c6.08-22.55,23.26-37.22,46.88-37.22s41.87,15.39,44.38,37.22h-91.26Zm49.03-70.15c-50.46,0-90.19,39.37-90.19,90.19s39.73,91.98,90.9,91.98c42.95,0,76.23-24.34,82.67-61.2h-40.08c-3.58,15.03-20.4,25.05-41.87,25.05-29.7,0-47.95-17.54-51.89-45.45h134.92c.72-3.58,1.07-8.59,1.07-13.24,0-51.18-38.29-87.32-85.53-87.32m-240.55,70.15c6.08-22.55,23.26-37.22,46.88-37.22s41.87,15.39,44.38,37.22h-91.26,0Zm49.03-70.15c-50.46,0-90.19,39.37-90.19,90.19s39.73,91.98,90.9,91.98c42.95,0,76.23-24.34,82.67-61.2h-40.08c-3.58,15.03-20.4,25.05-41.87,25.05-29.7,0-47.95-17.54-51.89-45.45h134.92c.72-3.58,1.07-8.59,1.07-13.24,0-51.18-38.29-87.32-85.53-87.32m872.97,3.58l-36.5,113.81-41.51-113.81h-31.49l-41.16,113.81-36.51-113.81h-42.95l63.34,175h31.49l41.51-113.45,41.51,113.45h31.85l63.35-175h-42.95.02Zm-730.48,66.57c6.08-22.55,23.26-37.22,46.88-37.22s41.87,15.39,44.38,37.22h-91.26Zm49.03-70.15c-50.46,0-90.19,39.37-90.19,90.19s39.73,91.98,90.9,91.98c42.95,0,76.23-24.34,82.67-61.2h-40.08c-3.58,15.03-20.4,25.05-41.87,25.05-29.7,0-47.95-17.54-51.89-45.45h134.92c.72-3.58,1.07-8.59,1.07-13.24,0-51.18-38.29-87.32-85.53-87.32m-240.55,70.15c6.08-22.55,23.26-37.22,46.88-37.22s41.87,15.39,44.38,37.22h-91.26,0Zm49.03-70.15c-50.46,0-90.19,39.37-90.19,90.19s39.73,91.98,90.9,91.98c42.95,0,76.23-24.34,82.67-61.2h-40.08c-3.58,15.03-20.4,25.05-41.87,25.05-29.7,0-47.95-17.54-51.89-45.45h134.92c.72-3.58,1.07-8.59,1.07-13.24,0-51.18-38.29-87.32-85.53-87.32m536.15,144.23c-29.7,0-52.97-23.62-52.97-53.33s23.26-52.96,52.97-52.96,53.32,22.9,53.32,52.96-22.9,53.33-53.32,53.33m93.41-10.99V121.26h-40.08v30.78c-12.53-21.83-34-34.36-61.91-34.36-46.52,0-83.75,40.44-83.75,90.9s37.22,91.26,83.75,91.26c27.75,0,49.12-12.39,61.68-33.97,5.39,15.66,18.94,30.97,44.5,30.97h16.86v-35.42h-9.23c-3.03,0-10.85-.03-11.81-10.5m-299.19-82.06c0-11.1,11.09-17.89,26.84-17.89,18.25,0,30.42,9.66,32.21,21.47h40.08c-3.94-35.43-35.43-54.75-71.58-54.75-40.8,0-66.21,23.26-66.21,53.68,0,66.56,101.28,36.15,101.28,73.72,0,12.17-11.45,20.4-30.78,20.4s-34.71-10.02-36.15-25.41h-38.29c3.58,37.58,33.64,59.77,76.59,59.77,38.65,0,67.64-23.62,67.64-55.12,0-73.01-101.64-40.44-101.64-75.87m205.78,93.05c-29.7,0-52.97-23.62-52.97-53.33s23.26-52.96,52.97-52.96,53.32,22.9,53.32,52.96-22.9,53.33-53.32,53.33m93.41-10.99V121.26h-40.08v30.78c-12.53-21.83-34-34.36-61.91-34.36-46.52,0-83.75,40.44-83.75,90.9s37.22,91.26,83.75,91.26c27.75,0,49.12-12.39,61.68-33.97,5.39,15.66,18.94,30.97,44.5,30.97h16.86v-35.42h-9.23c-3.03,0-10.85-.03-11.81-10.5m-299.19-82.06c0-11.1,11.09-17.89,26.84-17.89,18.25,0,30.42,9.66,32.21,21.47h40.08c-3.94-35.43-35.43-54.75-71.58-54.75-40.8,0-66.21,23.26-66.21,53.68,0,66.56,101.28,36.15,101.28,73.72,0,12.17-11.45,20.4-30.78,20.4s-34.71-10.02-36.15-25.41h-38.29c3.58,37.58,33.64,59.77,76.59,59.77,38.65,0,67.64-23.62,67.64-55.12,0-73.01-101.64-40.44-101.64-75.87"></path><path class="cls-1" d="m127.19,28.53s-.07-.02,0,0c.41.1-.37-.09,0,0"></path><path class="cls-1" d="m149.87,129.19c-.37.07.34-.06,0,0,0,0,0,0,0,0"></path><path class="cls-1" d="m127.19,28.53s-.07-.02,0,0c.41.1-.37-.09,0,0"></path><path class="cls-1" d="m149.87,129.19c-.37.07.34-.06,0,0,0,0,0,0,0,0"></path><path class="cls-1" d="m110.04,59.25c.51.07,1.88.31,2.39.39,2.05.39,3.81.82,5.15,1.18,0,0,4.34.92,9.87,3.44,5.54,2.51,12.25,6.62,16.97,12.98,1.2,1.51,2.25,3.15,2.94,4.81.02.03-.02-.03,0,0,.89,2.15,1.24,4.44.66,6.72-1.93,5.88-7.95,8.19-15.22,6.57-26.2-6.6-37.85-36.89-37.85-36.89,5.56-.26,11.05.2,15.1.8m73.29,128.24c-22.48-58.75-144.13-35.83-141.07-89.81.56-13.01,8.37-23.69,19.52-29.88,11.22,32.56,37.89,59.67,76.59,62.14,3.69.18,8.02-.15,11.52-.74.07-.02,0,0,0,0,17.95-3.18,31.61-20.09,32.93-35.71,3.45-36.81-31.26-59.86-55.62-64.96,0-.02.02,0,0,0,0,0,.04,0,0,0-.01,0,0,0,0,0-22.39-5.32-39.9-3.45-40.14-3.41,0-.02,0,0,0,0-1.42-7.91-1.64-18.09-1.93-25.12h-36.11c.27,10.6,1.26,22.92,2.84,34.26C24.72,46.68,7.02,71.01,5.53,99.71c-6.43,99.45,151.68,51.94,144.46,127.74-2.29,9.89-7.1,17.41-13.45,23.28-31.42,27.52-96.51,14.66-96.21-45.84H.16c-5.38,98.78,122.42,131.58,175.94,58.39,16.38-25.93,17.29-52.88,7.22-75.8"></path></g></g></svg> 